<?xml version="1.0" encoding="UTF-8" standalone="no"?>
<svg
   version="1.1"
   viewBox="-5 -10 79.999207 58.000011"
   id="svg2"
   sodipodi:docname="alps_2.svg"
   width="79.999207"
   height="58.000011"
   inkscape:version="1.4 (e7c3feb100, 2024-10-09)"
   xmlns:inkscape="http://www.inkscape.org/namespaces/inkscape"
   xmlns:sodipodi="http://sodipodi.sourceforge.net/DTD/sodipodi-0.dtd"
   xmlns="http://www.w3.org/2000/svg"
   xmlns:svg="http://www.w3.org/2000/svg">
  <defs
     id="defs2" />
  <sodipodi:namedview
     id="namedview2"
     pagecolor="#ffffff"
     bordercolor="#000000"
     borderopacity="0.25"
     inkscape:showpageshadow="2"
     inkscape:pageopacity="0.0"
     inkscape:pagecheckerboard="0"
     inkscape:deskcolor="#d1d1d1"
     inkscape:zoom="8.3805248"
     inkscape:cx="44.44829"
     inkscape:cy="35.081335"
     inkscape:window-width="1920"
     inkscape:window-height="1011"
     inkscape:window-x="0"
     inkscape:window-y="0"
     inkscape:window-maximized="1"
     inkscape:current-layer="svg2" />
  <path
     id="path5"
     style="fill:#26a269;stroke:#26a269;stroke-width:2;stroke-dasharray:none"
     d="M 41.484375 22.373047 C 41.458521 22.458723 41.010795 24.119119 40.488281 26.0625 C 40.038674 27.734712 39.595414 29.202119 39.392578 29.724609 C 39.330665 29.853567 39.271524 29.964729 39.212891 30.054688 C 38.915553 30.424545 38.413416 30.647943 37.796875 30.691406 C 37.519242 30.68026 37.187705 30.624266 36.802734 30.53125 C 36.163114 30.339027 35.239658 30.003335 34.095703 29.53125 C 32.522371 28.881969 31.145141 28.349609 31.035156 28.349609 C 30.925173 28.349609 29.380165 30.135289 27.601562 32.316406 C 25.822962 34.497522 24.148082 36.395959 23.878906 36.535156 C 23.609731 36.674352 23.167759 36.787109 22.898438 36.787109 C 22.788263 36.787109 22.685507 36.775895 22.583984 36.757812 C 22.582109 36.757478 22.579999 36.758153 22.578125 36.757812 C 22.53637 36.749662 22.496283 36.735244 22.455078 36.724609 C 21.731771 36.526722 21.149731 35.756481 20.013672 33.634766 C 19.308686 32.318126 18.684033 31.195915 18.626953 31.140625 C 18.536238 31.052764 5.6523438 53.657266 5.6523438 53.904297 C 5.6523437 53.956595 21.072573 54 39.917969 54 L 74.181641 54 L 73.693359 53.283203 C 73.424169 52.888749 69.823718 47.440625 65.693359 41.175781 C 61.563 34.910937 57.265426 28.39715 56.144531 26.701172 L 54.107422 23.617188 L 51.646484 27.138672 C 50.690444 28.506728 49.916492 29.543124 49.390625 30.181641 C 49.317711 30.224117 49.266111 30.277356 49.267578 30.332031 C 49.031262 30.610809 48.839132 30.818417 48.757812 30.855469 C 48.527789 30.960275 48.045094 31.045291 47.671875 31.048828 C 47.640339 31.048644 47.619243 31.045397 47.589844 31.044922 C 46.616341 31.021883 46.138859 30.401636 43.708984 26.083984 C 42.511649 23.956433 41.510225 22.287367 41.484375 22.373047 z "
     transform="translate(-5,-10)" />
  <path
     id="path4"
     style="fill:#ffffff;stroke:#ffffff;stroke-width:1;stroke-dasharray:none"
     d="M 32.513672 6.4199219 C 32.451034 6.4240086 29.84655 10.959906 26.724609 16.5 L 21.046875 26.572266 L 22.167969 28.722656 C 22.783973 29.90532 23.29904 30.874853 23.3125 30.876953 C 23.325959 30.879015 24.597968 29.335712 26.140625 27.447266 C 27.683283 25.558822 29.138156 23.927338 29.373047 23.820312 C 30.128553 23.476082 30.705504 23.60484 33.423828 24.724609 C 34.891055 25.329011 36.139519 25.764089 36.199219 25.693359 C 36.258917 25.62263 36.819812 23.640883 37.445312 21.289062 L 38.583984 17.013672 L 36.089844 12.599609 C 34.718128 10.171586 33.37735 7.7860937 33.111328 7.2988281 C 32.845307 6.8115625 32.576312 6.4158319 32.513672 6.4199219 z "
     transform="translate(-5,-10)" />
  <path
     d="m 27.519251,-9.99986 c 0.72266,0 1.3867,0.38672 1.7422,1.0156 l 13.699,24.234 4.5625,-6.5273 c 0.37891,-0.54297 1.0039,-0.86328 1.6641,-0.85547 0.66406,0.01172 1.2773,0.34766 1.6445,0.89844 l 23.836,36.133 c 0.40625,0.61328 0.44141,1.4023 0.09375,2.0508 -0.35156,0.64844 -1.0273,1.0508 -1.7617,1.0508 H -3.0003987 c -0.71094,0 -1.3672,-0.37891 -1.7266,-0.99219 -0.35938,-0.61328 -0.36328,-1.3711 -0.01563,-1.9922 l 30.5229997,-54 0.06641,-0.11328 C 26.217871,-9.66016 26.842871,-10 27.518681,-10 Z m 7.0273,29.219 c -0.14844,0.55469 -0.52734,1.0195 -1.043,1.2734 -0.51172,0.25391 -1.1133,0.27734 -1.6445,0.05859 l -5.9648,-2.4336 -6.3984,7.832 c -0.42188,0.51953 -1.0781,0.79297 -1.7461,0.72266 -0.66797,-0.06641 -1.2578,-0.46094 -1.5703,-1.0547 l -2.5898,-4.9062 -13.15999969,23.289 H 69.284651 l -20.172,-30.574 -4.6914,6.7188 c -0.39453,0.5625 -1.0508,0.88672 -1.7383,0.85156 -0.68359,-0.03125 -1.3047,-0.41406 -1.6445,-1.0117 l -4.543,-8.0391 z m -18.617,-2.6445 2.3789,4.5078 5.4258,-6.6367 0.10938,-0.125 c 0.5625,-0.58594 1.4297,-0.77344 2.1914,-0.46484 l 5.2344,2.1367 2.418,-9.0195 -6.168,-10.906 z"
     id="path1"
     style="stroke:none;stroke-opacity:1;fill:#3d3846;fill-opacity:1" />
</svg>
