<?xml version="1.0" encoding="UTF-8" standalone="no"?>
<svg
   version="1.1"
   x="0px"
   y="0px"
   viewBox="0 0 83.394997 59.551125"
   enable-background="new 0 0 90 90"
   xml:space="preserve"
   id="svg2"
   sodipodi:docname="alps_1.svg"
   inkscape:version="1.4 (e7c3feb100, 2024-10-09)"
   width="83.394997"
   height="59.551125"
   xmlns:inkscape="http://www.inkscape.org/namespaces/inkscape"
   xmlns:sodipodi="http://sodipodi.sourceforge.net/DTD/sodipodi-0.dtd"
   xmlns="http://www.w3.org/2000/svg"
   xmlns:svg="http://www.w3.org/2000/svg"><defs
     id="defs2" /><sodipodi:namedview
     id="namedview2"
     pagecolor="#ffffff"
     bordercolor="#000000"
     borderopacity="0.25"
     inkscape:showpageshadow="2"
     inkscape:pageopacity="0.0"
     inkscape:pagecheckerboard="0"
     inkscape:deskcolor="#d1d1d1"
     inkscape:zoom="3.5555556"
     inkscape:cx="0.28125"
     inkscape:cy="67.5"
     inkscape:window-width="1920"
     inkscape:window-height="1011"
     inkscape:window-x="0"
     inkscape:window-y="0"
     inkscape:window-maximized="1"
     inkscape:current-layer="svg2" /><path
     fill="#000000"
     d="m 65.927,26.978125 c -0.359,0 -0.789,0.121 -1.287,0.335 -2.099,-4.375 -10.949,-22.7279995 -13.455,-26.38599952 -0.436,-0.636 -1.07,-0.963 -1.818,-0.924 C 45.66,0.20812548 38.69,12.137125 35.627,17.721125 30.032,8.4541255 28.336,6.0501255 26.91,6.0501255 l -0.184,0.013 c -0.869,0.124 -2.061,0.294 -14.342,26.4449995 -5.96,12.693 -11.697,25.507 -11.753,25.635 L 0,59.551125 h 83.395 l -0.619,-1.403 c -0.033,-0.077 -3.422,-7.746 -7.064,-15.317 -7.63,-15.853 -8.876,-15.853 -9.785,-15.853 z m -0.144,2.022 c 1.14,0.918 4.221,6.641 7.812,14.042 l -6.95,-7.435 -2.69,2.937 -4.827,-2.465 h -4.064 c 1.582,-1.01 3.25,-2.197 4.896,-3.372 2.073,-1.479 4.872,-3.475 5.823,-3.707 z M 49.535,2.0581255 c 1.166,1.701 3.861,6.921 6.56,12.3259995 l -3.464,-2.633 -2.627,2.423 L 45.65,9.1751255 41.143,12.245125 C 44.947,6.1291255 48.375,1.8161255 49.535,2.0581255 Z m -10.83,14.2679995 6.604,-4.498 4.538,5.212 2.908,-2.682 5.336,4.056 c 2.136,4.339 4.012,8.232 4.794,9.861 -1.099,0.687 -2.43,1.623 -4.087,2.804 -3.351,2.39 -7.94,5.663 -9.968,5.664 -1.851,-0.228 -8.076,-10.502 -12.006,-17.033 0.621,-1.153 1.25,-2.285 1.881,-3.384 z M 26.997,8.2401255 c 1.384,1.313 4.909,7.1739995 7.786,11.9559995 1.504,2.502 2.857,4.73 4.088,6.713 l -7.795,-4.092 -5.293,4.48 -4.544,-4.624 -3.153,2.503 c 4.132,-8.574 7.583,-15.3169995 8.911,-16.9359995 z M 80.324,57.551125 H 3.088 c 3.814,-8.501 8.656,-19.06 13.027,-28.255 l 4.959,-3.938 4.584,4.664 5.682,-4.808 9.67,5.076 c 3.697,5.705 6.045,8.452 7.809,8.452 0.754,0 1.639,-0.249 2.608,-0.663 h 7.219 l 5.755,2.938 2.259,-2.466 9.769,10.45 c 1.299,2.788 2.618,5.681 3.895,8.55 z"
     id="path1" /></svg>
