<svg xmlns="http://www.w3.org/2000/svg" version="1.1" viewBox="-5.0 -10.0 110.0 135.0">
 <path d="m42.52 21c0.72266 0 1.3867 0.38672 1.7422 1.0156l13.699 24.234 4.5625-6.5273c0.37891-0.54297 1.0039-0.86328 1.6641-0.85547 0.66406 0.011718 1.2773 0.34766 1.6445 0.89844l23.836 36.133c0.40625 0.61328 0.44141 1.4023 0.09375 2.0508-0.35156 0.64844-1.0273 1.0508-1.7617 1.0508h-76c-0.71094 0-1.3672-0.37891-1.7266-0.99219-0.35938-0.61328-0.36328-1.3711-0.015626-1.9922l30.523-54 0.066406-0.11328c0.37109-0.5625 0.99609-0.90234 1.6719-0.90234zm7.0273 29.219c-0.14844 0.55469-0.52734 1.0195-1.043 1.2734-0.51172 0.25391-1.1133 0.27734-1.6445 0.058593l-5.9648-2.4336-6.3984 7.832c-0.42188 0.51953-1.0781 0.79297-1.7461 0.72266-0.66797-0.066406-1.2578-0.46094-1.5703-1.0547l-2.5898-4.9062-13.16 23.289h68.855l-20.172-30.574-4.6914 6.7188c-0.39453 0.5625-1.0508 0.88672-1.7383 0.85156-0.68359-0.03125-1.3047-0.41406-1.6445-1.0117l-4.543-8.0391zm-18.617-2.6445 2.3789 4.5078 5.4258-6.6367 0.10938-0.125c0.5625-0.58594 1.4297-0.77344 2.1914-0.46484l5.2344 2.1367 2.418-9.0195-6.168-10.906z"/>
<text x="0.0" y="117.5" font-size="5.0" font-weight="bold" font-family="Arbeit Regular, Helvetica, Arial-Unicode, Arial, Sans-serif" fill="#000000">Created by HDM</text><text x="0.0" y="122.5" font-size="5.0" font-weight="bold" font-family="Arbeit Regular, Helvetica, Arial-Unicode, Arial, Sans-serif" fill="#000000">from Noun Project</text></svg>