<?xml version="1.0" encoding="UTF-8" standalone="no"?>
<svg
   version="1.1"
   viewBox="-5 -10 81.245544 68.277557"
   id="svg2"
   sodipodi:docname="alps_3.svg"
   width="81.245544"
   height="68.277557"
   inkscape:version="1.4 (e7c3feb100, 2024-10-09)"
   xmlns:inkscape="http://www.inkscape.org/namespaces/inkscape"
   xmlns:sodipodi="http://sodipodi.sourceforge.net/DTD/sodipodi-0.dtd"
   xmlns="http://www.w3.org/2000/svg"
   xmlns:svg="http://www.w3.org/2000/svg">
  <defs
     id="defs2" />
  <sodipodi:namedview
     id="namedview2"
     pagecolor="#ffffff"
     bordercolor="#000000"
     borderopacity="0.25"
     inkscape:showpageshadow="2"
     inkscape:pageopacity="0.0"
     inkscape:pagecheckerboard="0"
     inkscape:deskcolor="#d1d1d1"
     inkscape:zoom="5.6296296"
     inkscape:cx="40.677632"
     inkscape:cy="41.565789"
     inkscape:window-width="1680"
     inkscape:window-height="1013"
     inkscape:window-x="0"
     inkscape:window-y="0"
     inkscape:window-maximized="1"
     inkscape:current-layer="svg2" />
  <path
     d="m 58.51443,-2.093739 c -0.75781,-1.2734 -0.83594,-2.7656 -0.21875,-4.1992 0.75391,-1.7578 2.3438,-2.9727 4.1445,-3.1641 1.1289,-0.12109 2.2422,0.12109 3.207,0.70703 0.4375,0.26562 0.92188,0.29688 1.2852,0.08594 1.8867,-1.0898 3.9531,-1.0938 5.8242,-0.0078 1.8789,1.0898 3,2.9883 3,5.0781 0,2.9766 -2.2109,5.3945 -5.3711,5.8789 -0.5,0.07812 -1.2383,0.1875 -2.1094,0.1875 -1.4883,0 -3.3594,-0.33203 -5.0625,-1.7422 -0.12891,-0.10547 -0.24609,-0.16797 -0.33594,-0.17969 -1.8203,-0.17187 -3.4922,-1.1875 -4.3594,-2.6484 z"
     id="path6"
     style="fill:#9a9996" />
  <path
     d="m 0.70223021,-2.847639 c 0.43358999,-2.5156 2.60159999,-4.3203 5.17579999,-4.3203 h 0.09766 c 0.76953,0.01563 1.4922,0.17578 2.1445,0.48047 0.11328,0.05469 0.25781,0.01953 0.32812,-0.08203 1.4336,-2.0547 3.5116998,-3.2305 5.7069998,-3.2305 2.2969,0 4.2383,1.1406 5.6172,3.2969 0.05859,0.09375 0.19531,0.13281 0.30469,0.08594 0.87891,-0.36328 1.8203,-0.55078 2.8047,-0.55078 3.5859,0 5.8047,2.9258 5.8047,5.6328 0,3.0078 -1.9023,5.1953 -4.8477,5.5742 -0.17578,0.02344 -0.32422,0.13281 -0.41016,0.30078 -1.3281,2.582 -4.2422,3.5 -6.5234,3.5 -0.98438,0 -1.9297,-0.25781 -2.8125,-0.76562 -0.14062,-0.08203 -0.30469,-0.09375 -0.44531,-0.03516 -1.9297,0.80859 -4.1327998,0.75 -5.8944998,-0.15625 -1.4297,-0.73438 -2.3984,-1.9414 -2.7266,-3.3945 -0.03125,-0.14453 -0.15625,-0.26172 -0.3125,-0.29687 -2.7266,-0.61328 -4.48829999,-3.2695 -4.00779999,-6.043 z"
     id="path4"
     style="fill:#9a9996" />
  <path
     d="m 2.6084302,-2.519519 c -0.30469,1.7578 0.80859,3.4375 2.5273,3.8281 0.88281,0.19922 1.5781,0.89062 1.7734,1.7578 0.19922,0.88281 0.8125,1.6289 1.7266,2.1016 1.2578,0.64844 2.8515998,0.68359 4.2577998,0.08984 0.30078,-0.125 0.62109,-0.1875 0.9375,-0.1875 0.42187,0 0.83984,0.10938 1.2227,0.32812 0.58594,0.33594 1.207,0.50781 1.8477,0.50781 1.7109,0 3.875,-0.64453 4.8047,-2.4531 0.37891,-0.73438 1.082,-1.2344 1.8867,-1.3359 1.9766,-0.25391 3.1562,-1.6172 3.1562,-3.6523 0,-1.5508 -1.3438,-3.6953 -3.8672,-3.6953 -0.72656,0 -1.418,0.13672 -2.0625,0.40234 -0.98047,0.41016 -2.1094,0.05859 -2.6797,-0.83203 -1.0195,-1.5938 -2.3633,-2.4023 -3.9883,-2.4023 -1.5508,0 -3.0547,0.875 -4.1172,2.4023 -0.6093698,0.875 -1.7577998,1.1797 -2.7304998,0.73047 -0.40625,-0.1875 -0.86719,-0.28906 -1.3633,-0.29688 -1.6602,-0.05078 -3.0508,1.0859 -3.332,2.7148 z"
     id="path5"
     style="fill:#ffffff" />
  <path
     d="m 75.88546,57.096681 c -0.44531,0.73437 -1.2344,1.1797 -2.0977,1.1797 h -43.078 c 2.9805,-6.1445 16.328,-33.113 17.406,-35.23 0.52734,-1.0117 1.7812,-1.6602 2.6992,-1.8984 0.94922,-0.25 1.8086,-0.16797 2.4141,0.23047 1.2188,0.80078 2.4766,1.2969 3.4961,1.6914 1.1289,0.4375 1.8203,0.71094 2.1406,1.2852 l 17.09,30.301 c 0.41406,0.79297 0.37891,1.6953 -0.07031,2.4414 z"
     id="path16"
     style="fill:#865e3c" />
  <path
     d="m 42.37803,30.140561 c -3.4727,7.0273 -10.875,22.047 -13.824,28.137 H -1.9689698 c -1.0703,0 -2.0391,-0.54297 -2.5859,-1.457 -0.55469,-0.91016 -0.59375,-2.0195 -0.10156,-2.9609 l 18.2269998,-35.125 c 0.25781,-0.50391 1.7812,-3.125 2.582,-4.0898 0.45312,-0.55078 1.2578,-1.2578 1.3867,-1.3477 0.55469,-0.41406 1.0625,-0.63281 1.5469,-0.73047 0.44141,-0.08984 0.79688,-0.08984 1.0859,-0.06641 0.48438,-0.28516 0.80078,-0.78125 1.1562,-1.3477 0.60547,-0.97266 1.4453,-2.3086 3.4844,-2.3633 h 0.05078 c 1.5469,0 6.332,1.5156 7.293,3.2148 l 10.23,18.141 z"
     id="path2"
     style="fill:#63452c" />
  <path
     d="m 69.89406,13.761381 c -0.76953,0 -1.3945,0.625 -1.3945,1.3945 0,0.7695 0.625,1.3945 1.3945,1.3945 0.76953,0 1.3945,-0.625 1.3945,-1.3945 0,-0.7695 -0.625,-1.3945 -1.3945,-1.3945 z"
     id="path21" />
  <path
     d="m 69.89406,11.823881 c 1.8359,0 3.3281,1.4922 3.3281,3.3281 0,1.8359 -1.4922,3.3281 -3.3281,3.3281 -1.8359,0 -3.3281,-1.4922 -3.3281,-3.3281 0,-1.8359 1.4922,-3.3281 3.3281,-3.3281 z"
     id="path20"
     style="fill:#1c71d8" />
  <path
     d="m -2.1649398,7.581681 c 0,0.76953 0.625,1.3945 1.39450001,1.3945 0.76949999506,0 1.3945,-0.625 1.3945,-1.3945 0,-0.76953 -0.62500000494,-1.3945 -1.3945,-1.3945 -0.76950001,0 -1.39450001,0.625 -1.39450001,1.3945 z"
     id="path19" />
  <path
     d="m -4.0985398,7.581681 c 0,-1.8359 1.4922,-3.3281 3.32810001,-3.3281 1.83589999,0 3.32809999,1.4922 3.32809999,3.3281 0,1.8359 -1.4922,3.3281 -3.32809999,3.3281 -1.83590001,0 -3.32810001,-1.4922 -3.32810001,-3.3281 z"
     id="path18"
     style="fill:#1c71d8" />
  <path
     d="m 61.31946,32.647681 -4.0898,-7.2539 c -0.19531,-0.12109 -0.75391,-0.34375 -1.207,-0.52344 -1.0469,-0.40625 -2.3516,-1.1797 -3.8594,-1.8711 -0.26172,-0.12109 -0.63281,-0.03906 -0.85156,0.01953 -0.71484,0.1875 -1.3164,0.62109 -1.4727,0.91016 -1.0859,2.1172 -2.7891,5.4336 -3.1836,6.2031 l -1.75,3.3672 2.7812,-1.1953 c 0.83984,-0.1875 1.7227,0 2.4062,0.51562 l 4.332,3.543 c 0.73437,0.51563 1.7539,0.26953 2.168,-0.52344 l 2.0508,-3.2969 c 0.23047,-0.32422 0.64453,-0.47656 1.0312,-0.37891 l 1.6406,0.48438 z"
     id="path17"
     style="fill:#ffffff" />
  <path
     d="m 37.26046,12.315681 c 0.25391,0 0.50781,-0.09766 0.69531,-0.29688 l 0.77344,-0.80078 c 0.37109,-0.38672 0.35938,-0.99609 -0.02344,-1.3672 -0.38281,-0.37109 -0.99609,-0.35938 -1.3672,0.02344 l -0.77344,0.80078 c -0.37109,0.38672 -0.35937,0.99609 0.02344,1.3672 0.1875,0.17969 0.42969,0.27344 0.67188,0.27344 z"
     id="path15"
     style="fill:#f5c211" />
  <path
     d="m 51.80746,-2.750319 c 0.25391,0 0.50781,-0.09766 0.69531,-0.29688 l 0.77344,-0.80078 c 0.37109,-0.38281 0.35938,-0.99609 -0.02344,-1.3672 -0.38281,-0.37109 -0.99609,-0.35938 -1.3672,0.02344 l -0.77344,0.80078 c -0.37109,0.38281 -0.35938,0.99609 0.02344,1.3672 0.1875,0.17969 0.42969,0.27344 0.67188,0.27344 z"
     id="path14"
     style="fill:#f5c211" />
  <path
     d="m 52.50668,9.874681 c -0.37109,-0.38281 -0.98438,-0.39453 -1.3672,-0.02344 -0.38281,0.37109 -0.39453,0.98438 -0.02344,1.3672 l 0.77344,0.80078 c 0.19141,0.19531 0.44141,0.29688 0.69531,0.29688 0.24219,0 0.48438,-0.08984 0.67188,-0.27344 0.38281,-0.37109 0.39453,-0.98438 0.02344,-1.3672 z"
     id="path13"
     style="fill:#f5c211" />
  <path
     d="m 37.33868,-3.043319 c 0.19141,0.19531 0.44141,0.29688 0.69531,0.29688 0.24219,0 0.48438,-0.08984 0.67188,-0.27344 0.38281,-0.37109 0.39453,-0.98438 0.02344,-1.3672 l -0.77344,-0.80078 c -0.37109,-0.38281 -0.98438,-0.39453 -1.3672,-0.02344 -0.38282,0.371093 -0.39453,0.98438 -0.02344,1.3672 z"
     id="path12"
     style="fill:#f5c211" />
  <path
     d="m 43.95198,13.327681 v 1.1133 c 0,0.53516 0.43359,0.96875 0.96875,0.96875 0.53516,0 0.96875,-0.43359 0.96875,-0.96875 v -1.1133 c 0,-0.53516 -0.43359,-0.96875 -0.96875,-0.96875 -0.53516,0 -0.96875,0.43359 -0.96875,0.96875 z"
     id="path11"
     style="fill:#f5c211" />
  <path
     d="m 44.92073,-5.531319 c 0.53516,0 0.96875,-0.43359 0.96875,-0.96875 v -1.1133 c 0,-0.53516 -0.43359,-0.96875 -0.96875,-0.96875 -0.53516,0 -0.96875,0.43359 -0.96875,0.96875 v 1.1133 c 0,0.53516 0.43359,0.96875 0.96875,0.96875 z"
     id="path10"
     style="fill:#f5c211" />
  <path
     d="m 33.89373,4.382781 h 1.1133 c 0.53516,0 0.96875,-0.43359 0.96875,-0.96875 0,-0.53516 -0.43359,-0.96875 -0.96875,-0.96875 h -1.1133 c -0.53516,0 -0.96875,0.43359 -0.96875,0.96875 0,0.53516 0.43359,0.96875 0.96875,0.96875 z"
     id="path9"
     style="fill:#f5c211" />
  <path
     d="m 54.83473,4.382781 h 1.1133 c 0.53516,0 0.96875,-0.43359 0.96875,-0.96875 0,-0.53516 -0.43359,-0.96875 -0.96875,-0.96875 h -1.1133 c -0.53516,0 -0.96875,0.43359 -0.96875,0.96875 0,0.53516 0.43359,0.96875 0.96875,0.96875 z"
     id="path8"
     style="fill:#f5c211" />
  <path
     d="m 60.17853,-3.082019 c 0.55078,0.92578 1.6797,1.5938 2.875,1.707 0.48438,0.04687 0.95312,0.25391 1.3906,0.61328 2.0312,1.6836 4.4531,1.3125 5.6133,1.1367 1.8867,-0.28906 3.7578,-1.625 3.7617,-3.9688 0,-1.3906 -0.76172,-2.6641 -2.0352,-3.4023 -1.2812,-0.74219 -2.5859,-0.73828 -3.8828,0.01172 -0.97266,0.5625 -2.2188,0.51953 -3.2539,-0.10547 -0.49609,-0.30078 -1.0586,-0.45703 -1.6406,-0.45703 -0.11719,0 -0.23438,0.0078 -0.35547,0.01953 -1.0938,0.11719 -2.1016,0.90234 -2.5742,2 -0.37109,0.86328 -0.33203,1.707 0.10547,2.4453 z"
     id="path7"
     style="fill:#ffffff" />
  <path
     d="m 35.41323,24.730361 0.89062,-1.418 -5.8477,-10.359 c -0.14063,-0.25 -0.67578,-0.59375 -1.3828,-0.9375 -0.12891,-0.06641 -0.26562,-0.12109 -0.39844,-0.1875 -1.3047,-0.58203 -2.9688,-1.1094 -3.793,-1.1094 h -0.02734 c -0.96094,0.02734 -1.2969,0.49219 -1.8984,1.4531 -0.46484,0.74219 -0.99219,1.5859 -2.0117,2.1055 -0.25781,0.12891 -0.51172,0.15625 -0.73047,0.15625 -0.08203,0 -0.22656,-0.0078 -0.37891,-0.01172 -0.66016,0 -2.0273,0.32422 -4.5547,5.2031 l -2.2891,4.4219 c 0,0 1.8789,-0.48438 2.3672,-0.53516 0.42969,-0.04297 0.85156,0.20703 1.1094,0.56641 l 3.9961,5.4727 c 0.26953,0.375 0.69141,0.5625 1.1094,0.5625 0.35547,0 0.71484,-0.13672 0.98828,-0.41797 l 6.0391,-6.2461 c 0.26562,-0.27734 0.625,-0.41797 0.99219,-0.41797 0.24609,0 0.49219,0.06641 0.71094,0.19531 l 3.2344,1.9609 c 0.22656,0.13672 0.47266,0.19922 0.71484,0.19922 0.45703,0 0.90234,-0.22656 1.1602,-0.64453 z"
     id="path3"
     style="fill:#ffffff" />
  <path
     d="m 38.33113,3.226561 c 0,-3.6406 2.9492,-6.5898 6.5898,-6.5898 3.6406,0 6.5898,2.9492 6.5898,6.5898 0,3.6406 -2.9492,6.5898 -6.5898,6.5898 -3.6406,0 -6.5898,-2.9492 -6.5898,-6.5898 z"
     id="path1"
     style="fill:#f5c211" />
</svg>
