<svg xmlns="http://www.w3.org/2000/svg" xmlns:xlink="http://www.w3.org/1999/xlink" version="1.1" x="0px" y="0px" viewBox="0 0 90 112.5" enable-background="new 0 0 90 90" xml:space="preserve"><path fill="#000000" d="M69.23,42.202c-0.359,0-0.789,0.121-1.287,0.335c-2.099-4.375-10.949-22.728-13.455-26.386  c-0.436-0.636-1.07-0.963-1.818-0.924c-3.707,0.205-10.677,12.134-13.74,17.718c-5.595-9.267-7.291-11.671-8.717-11.671  l-0.184,0.013c-0.869,0.124-2.061,0.294-14.342,26.445C9.727,60.425,3.99,73.239,3.934,73.367l-0.631,1.408h83.395l-0.619-1.403  c-0.033-0.077-3.422-7.746-7.064-15.317C71.385,42.202,70.139,42.202,69.23,42.202z M69.086,44.224  c1.14,0.918,4.221,6.641,7.812,14.042l-6.95-7.435l-2.69,2.937l-4.827-2.465h-4.064c1.582-1.01,3.25-2.197,4.896-3.372  C65.336,46.452,68.135,44.456,69.086,44.224z M52.838,17.282c1.166,1.701,3.861,6.921,6.56,12.326l-3.464-2.633l-2.627,2.423  l-4.354-4.999l-4.507,3.07C48.25,21.353,51.678,17.04,52.838,17.282z M42.008,31.55l6.604-4.498l4.538,5.212l2.908-2.682  l5.336,4.056c2.136,4.339,4.012,8.232,4.794,9.861c-1.099,0.687-2.43,1.623-4.087,2.804c-3.351,2.39-7.94,5.663-9.968,5.664  c-1.851-0.228-8.076-10.502-12.006-17.033C40.748,33.781,41.377,32.649,42.008,31.55z M30.3,23.464  c1.384,1.313,4.909,7.174,7.786,11.956c1.504,2.502,2.857,4.73,4.088,6.713l-7.795-4.092l-5.293,4.48l-4.544-4.624L21.389,40.4  C25.521,31.826,28.972,25.083,30.3,23.464z M83.627,72.775H6.391c3.814-8.501,8.656-19.06,13.027-28.255l4.959-3.938l4.584,4.664  l5.682-4.808l9.67,5.076c3.697,5.705,6.045,8.452,7.809,8.452c0.754,0,1.639-0.249,2.608-0.663h7.219l5.755,2.938l2.259-2.466  l9.769,10.45C81.031,67.013,82.35,69.906,83.627,72.775z"/><text x="0" y="105" fill="#000000" font-size="5px" font-weight="bold" font-family="'Helvetica Neue', Helvetica, Arial-Unicode, Arial, Sans-serif">Created by iconcheese</text><text x="0" y="110" fill="#000000" font-size="5px" font-weight="bold" font-family="'Helvetica Neue', Helvetica, Arial-Unicode, Arial, Sans-serif">from the Noun Project</text></svg>