<?xml version="1.0" encoding="UTF-8" standalone="no"?>
<svg
   version="1.1"
   viewBox="-5 -10 72.808601 79.994354"
   id="svg6"
   sodipodi:docname="animazione.svg"
   inkscape:version="1.4 (e7c3feb100, 2024-10-09)"
   width="72.808601"
   height="79.994354"
   xmlns:inkscape="http://www.inkscape.org/namespaces/inkscape"
   xmlns:sodipodi="http://sodipodi.sourceforge.net/DTD/sodipodi-0.dtd"
   xmlns="http://www.w3.org/2000/svg"
   xmlns:svg="http://www.w3.org/2000/svg">
  <defs
     id="defs6" />
  <sodipodi:namedview
     id="namedview6"
     pagecolor="#ffffff"
     bordercolor="#000000"
     borderopacity="0.25"
     inkscape:showpageshadow="2"
     inkscape:pageopacity="0.0"
     inkscape:pagecheckerboard="0"
     inkscape:deskcolor="#d1d1d1"
     inkscape:zoom="7.7100828"
     inkscape:cx="22.17875"
     inkscape:cy="52.139518"
     inkscape:window-width="1920"
     inkscape:window-height="1131"
     inkscape:window-x="0"
     inkscape:window-y="32"
     inkscape:window-maximized="1"
     inkscape:current-layer="svg6" />
  <path
     id="path9"
     style="fill:#ffffff;stroke:#ffffff;stroke-width:2;stroke-dasharray:none"
     d="M 21.347656 15.373047 C 21.077791 15.3844 19.252523 15.844932 17.103516 16.445312 L 12.935547 17.609375 L 13.978516 19.310547 C 14.552743 20.246269 15.1736 21.259325 15.357422 21.5625 C 15.498767 21.795616 15.65458 21.994673 15.751953 22.074219 L 15.757812 22.082031 L 15.761719 22.080078 C 15.786597 22.099088 15.807533 22.111533 15.822266 22.111328 C 16.048623 22.108158 19.343044 21.109882 19.625 20.958984 C 19.653419 20.943775 19.683737 20.919576 19.712891 20.888672 C 19.753061 20.871806 19.780203 20.857289 19.787109 20.849609 C 19.800072 20.835197 19.830909 20.758396 19.869141 20.652344 C 20.000776 20.400032 20.151782 19.989052 20.347656 19.357422 C 21.123865 16.854405 21.443781 15.657659 21.398438 15.417969 C 21.400084 15.402449 21.400875 15.39111 21.398438 15.388672 C 21.397595 15.38783 21.390203 15.388764 21.386719 15.388672 C 21.384581 15.385198 21.383458 15.37923 21.380859 15.376953 C 21.377069 15.373632 21.365647 15.37229 21.347656 15.373047 z "
     transform="translate(-5,-10)" />
  <path
     id="path10"
     style="fill:#ffffff;stroke:#ffffff;stroke-width:2;stroke-dasharray:none"
     d="M 35.861328 11.271484 C 35.862143 11.265562 34.533027 11.632274 32.894531 12.087891 C 30.922731 12.587015 28.659109 13.192163 28.470703 13.296875 C 28.464108 13.300541 28.456978 13.311225 28.447266 13.326172 L 28.365234 13.349609 L 28.183594 13.966797 C 27.659883 15.420824 26.655217 18.761937 26.740234 18.904297 C 26.821494 19.040363 26.690766 19.067717 29.289062 18.341797 C 32.083689 17.561026 33.293551 17.213356 33.841797 16.970703 C 33.843864 16.969788 33.845607 16.969662 33.847656 16.96875 C 34.032459 16.91173 34.139648 16.875978 34.148438 16.867188 C 34.150583 16.865042 34.172321 16.797556 34.181641 16.771484 C 34.252114 16.709134 34.288054 16.647561 34.314453 16.578125 C 34.581542 15.875625 35.880944 11.45321 35.833984 11.40625 C 35.833098 11.405364 35.82678 11.406682 35.824219 11.40625 C 35.835885 11.362983 35.859878 11.282025 35.861328 11.271484 z "
     transform="translate(-5,-10)" />
  <path
     id="path11"
     style="fill:#ffffff;stroke:#ffffff;stroke-width:2;stroke-dasharray:none"
     d="M 50.0625 7.3730469 C 50.029423 7.3768477 49.950292 7.3945943 49.861328 7.4140625 C 49.860025 7.4143477 49.858736 7.4137742 49.857422 7.4140625 C 49.821801 7.4144985 49.78333 7.4155682 49.740234 7.4179688 C 49.265151 7.4444319 43.239512 9.0688484 42.878906 9.2675781 C 42.86966 9.2726738 42.859634 9.2829926 42.847656 9.2988281 C 42.81057 9.3122138 42.775794 9.3265173 42.769531 9.3320312 C 42.758196 9.342011 42.687798 9.5575266 42.597656 9.84375 C 42.141588 11.027948 41.351237 13.682294 41.214844 14.539062 C 41.195148 14.616359 41.181766 14.676027 41.181641 14.689453 C 41.181408 14.714376 41.186339 14.736661 41.195312 14.757812 C 41.196666 14.781593 41.198371 14.80008 41.205078 14.808594 C 41.296895 14.925141 41.469638 14.91927 41.933594 14.783203 C 42.267989 14.685133 43.4163 14.366397 44.486328 14.074219 C 46.841598 13.431098 47.847395 13.144339 48.306641 12.925781 C 48.30722 12.925505 48.308016 12.926057 48.308594 12.925781 C 48.443957 12.884733 48.53683 12.853734 48.542969 12.847656 C 48.551059 12.839647 48.567593 12.802142 48.587891 12.748047 C 48.653615 12.68443 48.687945 12.618661 48.716797 12.542969 C 48.836516 12.228894 50.039952 8.0701786 50.150391 7.5878906 C 50.167444 7.5134215 50.148743 7.465574 50.083984 7.4394531 C 50.090349 7.4013953 50.091764 7.3788734 50.087891 7.375 C 50.085923 7.3730322 50.077835 7.3712847 50.0625 7.3730469 z "
     transform="translate(-5,-10)" />
  <path
     id="path12"
     style="fill:#ffffff;stroke:#ffffff;stroke-width:2;stroke-dasharray:none"
     d="M 64.601562 3.2207031 C 64.598527 3.2156978 64.33816 3.2841579 63.988281 3.3789062 C 63.178159 3.522908 57.592545 5.0807686 57.253906 5.2597656 C 57.24681 5.2635165 57.23633 5.2774082 57.224609 5.296875 C 57.213898 5.3007395 57.157631 5.3170794 57.15625 5.3183594 C 57.144934 5.328844 57.049089 5.6248619 56.904297 6.0898438 C 56.902771 6.0947425 56.901927 6.0966257 56.900391 6.1015625 C 56.899853 6.1030491 56.898976 6.1039792 56.898438 6.1054688 C 56.365816 7.5790372 55.447266 10.488764 55.447266 10.822266 C 55.447266 10.89745 55.48484 10.958984 55.53125 10.958984 C 55.696858 10.958984 62.648831 8.9820205 62.845703 8.8789062 C 62.855249 8.8739067 62.866984 8.8624712 62.878906 8.8476562 L 62.939453 8.8300781 L 63.005859 8.6074219 C 63.165075 8.2477215 63.398427 7.5554237 63.658203 6.65625 C 63.994608 5.4918372 64.355915 4.2549918 64.460938 3.9082031 L 64.652344 3.2792969 L 64.583984 3.2890625 C 64.587525 3.2745591 64.602122 3.2216309 64.601562 3.2207031 z "
     transform="translate(-5,-10)" />
  <path
     id="path13"
     style="fill:#ffffff;stroke:#ffffff;stroke-width:2;stroke-dasharray:none"
     d="M 64.947266 29.253906 L 61.087891 29.257812 L 61.054688 29.3125 L 60.984375 29.3125 L 60.332031 30.349609 C 59.109606 32.291372 58.396554 33.489271 58.181641 33.962891 C 58.094188 34.113578 58.041016 34.21225 58.041016 34.224609 C 58.041016 34.251415 58.65861 34.269908 59.558594 34.277344 C 60.231003 34.294217 61.062551 34.306641 61.990234 34.306641 L 65.792969 34.306641 L 67.154297 32.132812 C 68.434664 30.089336 68.771273 29.522692 68.802734 29.345703 C 68.804447 29.336069 68.806641 29.325849 68.806641 29.318359 C 68.806641 29.296521 68.2998 29.282342 67.521484 29.275391 C 66.835741 29.26063 65.943327 29.252451 64.947266 29.253906 z "
     transform="translate(-5,-10)" />
  <path
     id="path14"
     style="fill:#ffffff;stroke:#ffffff;stroke-width:2;stroke-dasharray:none"
     d="M 47.482422 29.119141 L 46.173828 29.121094 L 44.617188 31.601562 C 43.761165 32.96629 43.008623 34.171238 42.945312 34.279297 C 42.84555 34.449577 42.938103 34.464465 43.644531 34.390625 C 44.092811 34.343765 45.897419 34.306641 47.654297 34.306641 L 50.849609 34.306641 L 52.296875 32 C 53.093637 30.732124 53.781339 29.603935 53.824219 29.492188 C 53.834416 29.465615 53.835599 29.442696 53.824219 29.421875 C 53.849291 29.378187 53.890625 29.306936 53.890625 29.302734 C 53.890625 29.288561 53.487529 29.275181 52.869141 29.265625 C 52.502949 29.245323 52.019552 29.225693 51.345703 29.203125 C 49.939943 29.156045 48.202137 29.11837 47.482422 29.119141 z "
     transform="translate(-5,-10)" />
  <path
     id="path15"
     style="fill:#ffffff;stroke:#ffffff;stroke-width:2;stroke-dasharray:none"
     d="M 32.566406 29.119141 L 31.257812 29.121094 L 29.701172 31.601562 C 28.84515 32.96629 28.092607 34.171238 28.029297 34.279297 C 27.929534 34.449577 28.024042 34.464465 28.730469 34.390625 C 29.17875 34.343765 30.981403 34.306641 32.738281 34.306641 L 35.933594 34.306641 L 37.382812 32 C 38.179575 30.732124 38.865323 29.603935 38.908203 29.492188 C 38.918786 29.464609 38.91912 29.44133 38.90625 29.419922 C 38.932098 29.375233 38.974609 29.304846 38.974609 29.300781 C 38.974609 29.287192 38.569265 29.274742 37.945312 29.265625 C 37.579872 29.24549 37.10056 29.225528 36.431641 29.203125 C 35.025882 29.156045 33.28612 29.11837 32.566406 29.119141 z "
     transform="translate(-5,-10)" />
  <path
     id="path16"
     style="fill:#ffffff;stroke:#ffffff;stroke-width:2;stroke-dasharray:none"
     d="M 22.117188 29.257812 C 21.853402 29.257812 21.588617 29.26172 21.361328 29.267578 C 20.700283 29.265863 20.224187 29.279719 20.199219 29.304688 C 20.197069 29.306837 20.194583 29.309202 20.193359 29.3125 L 20.181641 29.3125 L 20.191406 29.330078 C 20.195674 29.450338 20.502718 29.967249 21.691406 31.882812 C 21.828633 32.103952 21.985993 32.277716 22.080078 32.322266 C 22.0805 32.322776 22.081617 32.323721 22.082031 32.324219 C 22.098731 32.344274 22.108822 32.355819 22.113281 32.355469 C 22.117353 32.355151 22.12815 32.343493 22.142578 32.326172 C 22.143949 32.324526 22.145025 32.324058 22.146484 32.322266 C 22.252888 32.241361 22.717248 31.579254 23.212891 30.798828 L 24.158203 29.3125 L 23.976562 29.308594 L 23.087891 29.273438 C 22.819864 29.263023 22.468901 29.257812 22.117188 29.257812 z "
     transform="translate(-5,-10)" />
  <path
     id="path8"
     style="fill:#ffffff;stroke:#ffffff;stroke-width:2;stroke-dasharray:none"
     d="m -2.044859,27.259396 0.0918,18.320312 0.08984,18.320313 0.326172,0.677734 c 0.325649,0.67907 1.213291,1.578199 1.917969,1.94336 0.207083,0.107306 0.644725,0.241405 0.972656,0.296874 0.02774,0.0047 0.662355,0.0091 0.875,0.01367 1.252585,0.04283 6.099998,0.05643 11.179688,0.06641 5.221359,0.01675 11.284877,0.03152 18.384765,0.03516 l 29.845703,0.01563 0.634766,-0.333984 c 0.863596,-0.454735 1.541562,-1.1364 2.060547,-2.066407 l 0.435547,-0.777343 0.04297,-18.25586 0.04102,-18.255859 H 31.404359 Z m 31.183593,11.548828 c 0.52024,-0.03941 1.031952,0.03497 1.47461,0.236328 0.822395,0.374103 3.919447,2.118016 6.789062,3.822266 2.112395,1.254542 2.708798,1.671837 2.994141,2.091797 0.491173,0.722894 0.658203,1.274715 0.658203,2.183593 0,1.587352 -0.433804,2.271265 -2.154297,3.404297 -1.270317,0.836569 -6.932757,4.100533 -7.898437,4.552734 -0.510848,0.239213 -0.854822,0.300416 -1.621094,0.291016 -1.291818,-0.0159 -1.711467,-0.169742 -2.542969,-0.929687 -1.108039,-1.012683 -1.105047,-0.9897 -1.060547,-7.634766 0.04193,-6.26035 8.05e-4,-5.965648 0.966797,-6.931641 0.636826,-0.636826 1.527465,-1.02025 2.394531,-1.085937 z" />
  <path
     id="path6"
     style="fill:#f5c211;stroke:#f5c211;stroke-width:2;stroke-dasharray:none"
     d="m 4.916078,8.5972857 c -0.05187,-0.06136 -5.260438,1.374762 -5.830078,1.6074223 -0.219862,0.0898 -0.526993,0.324883 -0.681641,0.521485 -0.280077,0.356046 -0.28125,0.381978 -0.28125,6.953125 v 6.597656 h 8.171875 c 4.494115,0 8.169922,-0.02444 8.169922,-0.05469 0,-0.04877 -9.441259,-15.4977473 -9.548828,-15.6250003 z M 2.050844,11.177365 c 0.864391,0 1.324075,0.312632 1.517578,1.03125 0.169635,0.629977 -0.05614,1.378057 -0.515625,1.703124 -0.691681,0.48934 -1.718603,0.383912 -2.197266,-0.224609 -0.19584,-0.248964 -0.267578,-0.528301 -0.267578,-1.044922 0,-1.008814 0.454076,-1.464843 1.462891,-1.464843 z m 6.570312,8.560546 c 0.255119,-0.01699 0.521123,0.03439 0.78125,0.166016 0.414024,0.209499 0.91211,0.950453 0.91211,1.357422 0,0.492176 -0.354253,1.123029 -0.767578,1.367187 -0.494296,0.291985 -1.145867,0.279953 -1.65625,-0.03125 -0.511289,-0.311754 -0.6875,-0.630765 -0.6875,-1.236328 -1e-6,-0.911611 0.652612,-1.572067 1.417968,-1.623047 z m -6.505859,0.0039 c 1.282315,0.01151 2.121224,1.766823 0.917969,2.779297 -0.406318,0.341895 -1.066087,0.425795 -1.617188,0.203124 -0.498427,-0.201387 -0.828125,-0.766373 -0.828125,-1.417968 0,-0.682277 0.231369,-1.091655 0.779297,-1.375 C 1.624953,19.798 1.877831,19.739679 2.115297,19.741811 Z" />
  <path
     d="m 64.6095,-3.4903233 -1.1094,-3.9492 c -0.25,-0.89844 -0.83984,-1.6484 -1.6602,-2.1094 -0.82031,-0.4609397 -1.7695,-0.5703097 -2.6719,-0.32031 l -57.418,16.086 -3.3086,0.92969 C -3.5898,7.7167667 -5,9.5761567 -5,11.685557 v 51.09 c 0,3.9805 3.2383,7.2188 7.2188,7.2188 h 58.371 c 3.9805,0 7.2188,-3.2383 7.2188,-7.2188 v -43.09 c 0,-1.9297 -1.5703,-3.5 -3.5,-3.5 l -51.129,0.0039 -0.83984,-1.3789 49.84,-13.96900028 c 1.8711,-0.51953 2.9609,-2.46880002 2.4414,-4.32810002 z M 64.797,27.318677 v 35.461 c 0,2.3281 -1.8906,4.2188 -4.2188,4.2188 H 2.2192 c -2.3281,0 -4.2188,-1.8906 -4.2188,-4.2188 v -35.461 h 66.809 z m -8.7266,-8.1289 h 7.9609 l -3.2383,5.1289 h -7.9609 z m -14.934,0 h 7.9492 l -3.2305,5.1289 h -7.9609 l 3.2383,-5.1289 z m -14.918,0 h 7.9492 l -3.2305,5.1289 h -7.9609 l 3.2383,-5.1289 z m -6.9805,0 -2.1406,3.3984 -2.0781,-3.3984 z m -4.5898,5.1289 h -16.648 v -12.629 c 0,-0.76953 0.51172,-1.4414 1.25,-1.6484 L 4.922,8.4514767 14.6525,24.322477 Z m 0.23047,-13.332 -4.1719,1.1719 -2.7812,-4.5508003 8.6797,-2.4297 -1.7305,5.8086003 z m 14.371,-4.0273003 -7.6719,2.1406 1.7305,-5.8086 7.6602,-2.1406 z m 14.367,-4.0312 -7.6602,2.1406 1.7305,-5.80079998 7.6602,-2.14840002 z m 14.383,-4.0391 -7.6602,2.1484 1.7305,-5.8008 7.6602,-2.1484 z"
     id="path1" />
  <path
     d="m 25.720398,57.413087 c 0.752374,0.427026 1.575857,0.650697 2.409659,0.650697 0.833803,0 1.641967,-0.223671 2.394302,-0.650697 l 10.568743,-6.105355 c 1.49452,-0.87438 2.394303,-2.419811 2.394303,-4.153266 0,-1.728379 -0.899796,-3.294085 -2.394303,-4.153266 L 30.524359,36.895845 c -1.494519,-0.874379 -3.294085,-0.874379 -4.803961,0 -1.49452,0.874367 -2.394303,2.41981 -2.394303,4.153266 v 12.205635 c 0,1.72838 0.899796,3.278859 2.394303,4.153266 z m 1.509876,-16.35851 c 0,-0.442265 0.28468,-0.676112 0.442265,-0.767614 0.101678,-0.06609 0.259264,-0.132169 0.457518,-0.132169 0.132169,0 0.28468,0.04067 0.442265,0.132169 l 10.568743,6.105355 c 0.391433,0.223684 0.442265,0.574448 0.442265,0.767614 0,0.193179 -0.05083,0.549032 -0.442265,0.767614 l -10.568743,6.105355 c -0.391433,0.223684 -0.726944,0.0915 -0.899796,0 -0.157585,-0.0915 -0.442265,-0.325348 -0.442265,-0.767614 z"
     id="path2"
     style="stroke-width:1.3014" />
  <path
     d="m 3.5895,12.677677 c 0,2 -3,2 -3,0 0,-2 3,-2 3,0"
     id="path3" />
  <path
     d="m 2.0895,19.806677 c -0.82812,0 -1.5,0.67188 -1.5,1.5 0,0.82812 0.67188,1.5 1.5,1.5 0.82812,0 1.5,-0.67969 1.5,-1.5 0,-0.82031 -0.67188,-1.5 -1.5,-1.5 z"
     id="path4" />
  <path
     d="m 8.7265,22.806677 c 0.82812,0 1.5,-0.67969 1.5,-1.5 0,-0.82031 -0.67188,-1.5 -1.5,-1.5 -0.82812,0 -1.5,0.67188 -1.5,1.5 0,0.82812 0.67188,1.5 1.5,1.5 z"
     id="path5" />
  <path
     id="path7"
     style="fill:#f5c211;stroke:#f5c211;stroke-width:2.60278;stroke-dasharray:none"
     d="m 28.070977,40.16971 c -0.104111,0 -0.327659,0.154708 -0.498188,0.343141 -0.289577,0.320004 -0.309752,0.752373 -0.297389,6.562885 0.0073,3.421488 0.06478,6.381819 0.127094,6.578135 0.09383,0.295637 0.216869,0.451404 0.648155,0.350766 0.0081,2.62e-4 0.01748,0.0026 0.02542,0.0026 0.02228,-1.42e-4 0.07949,-0.02101 0.165216,-0.05846 0.780792,-0.257841 2.345801,-1.131891 5.665635,-3.034888 2.920857,-1.674297 4.509235,-2.604713 5.187779,-3.230607 0.228654,-0.185052 0.31581,-0.304163 0.3406,-0.411769 0.225677,-0.446134 -0.181444,-0.742196 -0.930293,-1.192096 -2.713168,-1.630045 -10.26918,-5.909647 -10.43402,-5.909647 z" />
</svg>
