<?xml version="1.0" encoding="UTF-8" standalone="no"?>
<svg
   data-name="Layer 1"
   viewBox="0 0 64 80"
   x="0px"
   y="0px"
   version="1.1"
   id="svg912"
   sodipodi:docname="base_dati_osservati.svg"
   inkscape:version="1.1.1 (3bf5ae0d25, 2021-09-20)"
   xmlns:inkscape="http://www.inkscape.org/namespaces/inkscape"
   xmlns:sodipodi="http://sodipodi.sourceforge.net/DTD/sodipodi-0.dtd"
   xmlns="http://www.w3.org/2000/svg"
   xmlns:svg="http://www.w3.org/2000/svg"
   xmlns:rdf="http://www.w3.org/1999/02/22-rdf-syntax-ns#"
   xmlns:cc="http://creativecommons.org/ns#"
   xmlns:dc="http://purl.org/dc/elements/1.1/">
  <defs
     id="defs916" />
  <sodipodi:namedview
     id="namedview914"
     pagecolor="#ffffff"
     bordercolor="#666666"
     borderopacity="1.0"
     inkscape:pageshadow="2"
     inkscape:pageopacity="0.0"
     inkscape:pagecheckerboard="0"
     showgrid="false"
     inkscape:zoom="2.13125"
     inkscape:cx="-17.595308"
     inkscape:cy="-26.744868"
     inkscape:window-width="1920"
     inkscape:window-height="1027"
     inkscape:window-x="0"
     inkscape:window-y="0"
     inkscape:window-maximized="1"
     inkscape:current-layer="svg912" />
  <title
     id="title898">x</title>
  <path
     d="M17.62,38.38H7.76a1.5,1.5,0,0,0-1.5,1.5V62a1.5,1.5,0,0,0,1.5,1.5h9.86a1.5,1.5,0,0,0,1.5-1.5V39.88A1.5,1.5,0,0,0,17.62,38.38Zm-1.5,22.14H9.26V41.38h6.86Z"
     id="path900" />
  <path
     d="M36.93,30.25H27.07a1.5,1.5,0,0,0-1.5,1.5V62a1.5,1.5,0,0,0,1.5,1.5h9.86a1.5,1.5,0,0,0,1.5-1.5V31.75A1.5,1.5,0,0,0,36.93,30.25Zm-1.5,30.27H28.57V33.25h6.86Z"
     id="path902" />
  <path
     d="M56.24,21.11H46.38a1.5,1.5,0,0,0-1.5,1.5V62a1.5,1.5,0,0,0,1.5,1.5h9.86a1.5,1.5,0,0,0,1.5-1.5V22.61A1.5,1.5,0,0,0,56.24,21.11Zm-1.5,39.41H47.88V24.11h6.86Z"
     id="path904" />
  <path
     d="M8.29,32.72h.23c1.09-.17,25.9-4.14,45.09-26.6l.33,3.18a1.5,1.5,0,0,0,1.49,1.35h.16A1.49,1.49,0,0,0,56.92,9l-.74-7.16a1.46,1.46,0,0,0-.56-1A1.44,1.44,0,0,0,54.51.49l-7.11.87a1.5,1.5,0,0,0,.36,3l3.82-.47C33.06,25.71,8.33,29.7,8.07,29.74a1.5,1.5,0,0,0,.22,3Z"
     id="path906" />
  <text
     x="0"
     y="79"
     fill="#000000"
     font-size="5px"
     font-weight="bold"
     font-family="'Helvetica Neue', Helvetica, Arial-Unicode, Arial, Sans-serif"
     id="text908">Created by Fariha Begum</text>
  <text
     x="0"
     y="84"
     fill="#000000"
     font-size="5px"
     font-weight="bold"
     font-family="'Helvetica Neue', Helvetica, Arial-Unicode, Arial, Sans-serif"
     id="text910">from the Noun Project</text>
  <metadata
     id="metadata975">
    <rdf:RDF>
      <cc:Work
         rdf:about="">
        <dc:title>x</dc:title>
      </cc:Work>
    </rdf:RDF>
  </metadata>
</svg>
