<?xml version="1.0" encoding="UTF-8" standalone="no"?>
<svg
   version="1.1"
   viewBox="-5 -10 87.478928 87.5"
   id="svg843"
   sodipodi:docname="caldo_prev.svg"
   inkscape:version="1.4 (e7c3feb100, 2024-10-09)"
   width="87.478928"
   height="87.5"
   xmlns:inkscape="http://www.inkscape.org/namespaces/inkscape"
   xmlns:sodipodi="http://sodipodi.sourceforge.net/DTD/sodipodi-0.dtd"
   xmlns="http://www.w3.org/2000/svg"
   xmlns:svg="http://www.w3.org/2000/svg">
  <defs
     id="defs847">
    <rect
       x="-40.591247"
       y="35.552333"
       width="123.54529"
       height="45.019523"
       id="rect1" />
  </defs>
  <sodipodi:namedview
     id="namedview845"
     pagecolor="#ffffff"
     bordercolor="#666666"
     borderopacity="1.0"
     inkscape:pageshadow="2"
     inkscape:pageopacity="0.0"
     inkscape:pagecheckerboard="0"
     showgrid="false"
     inkscape:zoom="5.0518518"
     inkscape:cx="38.797654"
     inkscape:cy="38.995601"
     inkscape:window-width="1680"
     inkscape:window-height="1013"
     inkscape:window-x="0"
     inkscape:window-y="0"
     inkscape:window-maximized="1"
     inkscape:current-layer="svg843"
     fit-margin-top="0"
     fit-margin-left="0"
     fit-margin-right="0"
     fit-margin-bottom="0"
     inkscape:showpageshadow="2"
     inkscape:deskcolor="#d1d1d1"
     showguides="true" />
  <g
     id="g1353"
     transform="translate(-11.247333,-16.25)">
    <path
       d="M 43.75,21.875 C 43.75,13.25 36.75,6.25 28.125,6.25 19.5,6.25 12.5,13.25 12.5,21.875 V 56.594 C 7.3125,61.8128 5.1875,69.219 6.75,76.625 8.75,86.0312 17.281,93.75 28.094,93.75 40.25,93.75 50,83.9375 50,71.875 50,66.125 47.75,60.656 43.75,56.594 Z M 12.875,75.313 c -1.2188,-5.6562 0.59375,-11.281 4.8438,-15.031 0.65625,-0.59375 1.0625,-1.4375 1.0625,-2.3438 v -36.062 c 0,-5.1562 4.2188,-9.375 9.375,-9.375 5.1562,0 9.375,4.2188 9.375,9.375 v 36.062 c 0,0.90625 0.375,1.75 1.0625,2.3438 3.3125,2.9375 5.1875,7.1562 5.1875,11.594 0,18.344 -27.031,21.562 -30.875,3.4375 z"
       id="path833"
       style="fill:#babdb6" />
    <path
       d="M 31.25,63.062 V 21.874 c 0,-1.7188 -1.4062,-3.125 -3.125,-3.125 -1.7188,0 -3.125,1.4062 -3.125,3.125 v 41.188 c -3.625,1.2812 -6.25,4.7188 -6.25,8.8125 0,5.1562 4.2188,9.375 9.375,9.375 5.1562,0 9.375,-4.2188 9.375,-9.375 0,-4.0625 -2.625,-7.5 -6.25,-8.8125 z M 28.125,75 C 26.4062,75 25,73.5938 25,71.875 c 0,-1.7188 1.4062,-3.125 3.125,-3.125 1.7188,0 3.125,1.4062 3.125,3.125 0,1.7188 -1.4062,3.125 -3.125,3.125 z"
       id="path835"
       style="fill:#cc0000" />
    <path
       d="M 92.844,29.031 77.219,13.406 c -1.2188,-1.2188 -3.1875,-1.2188 -4.4062,0 l -15.625,15.625 c -1.2188,1.2188 -1.2188,3.1875 0,4.4062 1.2188,1.2187 3.1875,1.2188 4.4062,0 l 10.281,-10.281 v 61.219 c 0,1.7188 1.4062,3.125 3.125,3.125 1.7188,0 3.125,-1.4062 3.125,-3.125 v -61.219 l 10.281,10.281 c 1.2188,1.2188 3.1875,1.2188 4.4062,0 1.2187,-1.2188 1.2188,-3.1875 0,-4.4062 z"
       id="path837"
       style="fill:#cc0000" />
  </g>
  <text
     xml:space="preserve"
     transform="matrix(2.0631633,0,0,2.0631633,93.35186,-33.550872)"
     id="text1"
     style="font-size:20.6802px;line-height:23.0089px;font-family:Helvetica;-inkscape-font-specification:Helvetica;text-align:start;letter-spacing:0px;word-spacing:0px;writing-mode:lr-tb;direction:ltr;white-space:pre;shape-inside:url(#rect1);display:inline;fill:#ffffff;stroke:#2ec27e;stroke-width:0;stroke-dasharray:none"><tspan
       x="-40.591797"
       y="53.577374"
       id="tspan2"><tspan
         style="font-weight:900;font-family:Timmana;-inkscape-font-specification:'Timmana Heavy';stroke:#000000"
         id="tspan1">Prev</tspan></tspan></text>
</svg>
