<?xml version="1.0" encoding="UTF-8" standalone="no"?>
<svg
   version="1.1"
   viewBox="-5 -10 95.007004 94.999397"
   id="svg8"
   sodipodi:docname="calendario.svg"
   width="95.007004"
   height="94.999397"
   inkscape:version="1.1.1 (3bf5ae0d25, 2021-09-20)"
   xmlns:inkscape="http://www.inkscape.org/namespaces/inkscape"
   xmlns:sodipodi="http://sodipodi.sourceforge.net/DTD/sodipodi-0.dtd"
   xmlns="http://www.w3.org/2000/svg"
   xmlns:svg="http://www.w3.org/2000/svg">
  <defs
     id="defs12" />
  <sodipodi:namedview
     id="namedview10"
     pagecolor="#ffffff"
     bordercolor="#666666"
     borderopacity="1.0"
     inkscape:pageshadow="2"
     inkscape:pageopacity="0.0"
     inkscape:pagecheckerboard="0"
     showgrid="false"
     fit-margin-top="0"
     fit-margin-left="0"
     fit-margin-right="0"
     fit-margin-bottom="0"
     inkscape:zoom="5.0518519"
     inkscape:cx="47.408358"
     inkscape:cy="55.029326"
     inkscape:window-width="1920"
     inkscape:window-height="1027"
     inkscape:window-x="0"
     inkscape:window-y="0"
     inkscape:window-maximized="1"
     inkscape:current-layer="svg8" />
  <path
     d="m 26.2026,0.5664 h 7.8789 v -2.1445 c 0,-4.6367 3.7812,-8.4219 8.4219,-8.4219 4.6367,0 8.4219,3.7852 8.4219,8.4219 v 2.1445 h 7.8789 V -1.582 c 0,-4.6367 3.7812,-8.418 8.418,-8.418 4.6367,0 8.418,3.7812 8.418,8.418 V 0.5664 H 78.48 c 6.3516,0 11.527,5.1758 11.527,11.527 v 61.383 c 0,6.3516 -5.1719,11.523 -11.527,11.523 H 6.523 C 0.1714,84.9994 -5,79.8236 -5,73.4764 V 12.0934 C -5,5.7418 0.1719,0.5664 6.523,0.5664 h 2.8398 v -2.1445 c 0,-4.6367 3.7812,-8.4219 8.4219,-8.4219 4.6367,0 8.4219,3.7852 8.4219,8.4219 v 2.1445 z"
     id="path2" />
  <path
     d="m 0.5901,28.5312 v 44.945 c 0,3.2656 2.6719,5.9375 5.9375,5.9375 h 71.949 c 3.2656,0 5.9375,-2.6719 5.9375,-5.9375 v -44.945 z"
     id="path1274"
     style="fill:#ffffff" />
  <path
     d="m 19.7811,-3.5738 c -1.8086,-1.8086 -4.832,-0.46875 -4.832,1.9961 v 9.8789 c 0,2.4688 3.0195,3.8086 4.832,2 0.51562,-0.51562 0.83203,-1.2227 0.83203,-2 v -9.8789 c 0,-0.77734 -0.32031,-1.4844 -0.83203,-1.9961 z"
     id="path1272"
     style="fill:#ffcc00" />
  <path
     d="m 69.2111,-3.5738 c -1.8047,-1.8086 -4.8242,-0.46875 -4.8242,1.9961 V 8.309 c 0,2.4648 3.0195,3.8008 4.8242,1.9961 0.51562,-0.51563 0.83203,-1.2227 0.83203,-1.9961 v -9.8867 c 0,-0.77344 -0.32031,-1.4805 -0.83203,-1.9961 z"
     id="path1270"
     style="fill:#ffcc00" />
  <path
     d="M 44.4961,-3.5738 C 42.6875,-5.3824 39.668,-4.04255 39.668,-1.5777 v 9.8789 c 0,2.4688 3.0234,3.8086 4.8281,2 0.51562,-0.51562 0.83203,-1.2227 0.83203,-2 v -9.8789 c 0,-0.77734 -0.32031,-1.4844 -0.83203,-1.9961 z"
     id="path1268"
     style="fill:#ffcc00" />
  <path
     d="m 34.0781,6.1567 h -7.8789 v 2.1445 c 0,4.6367 -3.7852,8.4219 -8.4219,8.4219 -4.6367,0 -8.4219,-3.7812 -8.4219,-8.4219 V 6.1567 H 6.5156 c -3.2656,0 -5.9375,2.6719 -5.9375,5.9375 v 10.848 h 83.824 v -10.848 c 0,-3.2656 -2.6719,-5.9375 -5.9375,-5.9375 h -2.8398 v 2.1484 c 0,4.6367 -3.7812,8.418 -8.418,8.418 -4.6368,0 -8.418,-3.7812 -8.418,-8.418 V 6.1567 h -7.8789 v 2.1445 c 0,4.6367 -3.7812,8.4219 -8.4219,8.4219 -4.6367,0 -8.4219,-3.7812 -8.4219,-8.4219 V 6.1567 Z"
     id="path1266"
     style="fill:#cc0000" />
  <path
     d="m 73.9731,36.5047 c -2.6055,1.9805 -4.8125,4.6055 -6.6406,7.4609 l -1.918,-1.918 c -1.0898,-1.0898 -2.8594,-1.0898 -3.9492,0 -1.0898,1.0898 -1.0898,2.8594 0,3.9492 l 4.4883,4.4883 c 1.3203,1.3203 3.5742,1 4.4531,-0.6875 1.7969,-3.457 4.0117,-6.6289 6.9492,-8.8672 1.2227,-0.93359 1.457,-2.6836 0.52344,-3.9062 -0.93359,-1.2227 -2.6836,-1.4609 -3.9062,-0.52344 z"
     id="path1264"
     style="fill:#00cc00" />
  <path
     d="m 9.3284,34.0751 c -1.543,0 -2.793,1.25 -2.793,2.7969 v 11.641 c 0,1.543 1.25,2.793 2.793,2.793 h 12.227 c 1.543,0 2.793,-1.25 2.793,-2.793 V 36.872 c 0,-1.543 -1.25,-2.7969 -2.793,-2.7969 z"
     id="path1260"
     style="fill:#cc0000" />
  <path
     d="m 18.7581,39.6649 h -6.6367 v 6.0547 h 6.6367 z"
     id="path1262"
     style="fill:#ffffff" />
  <path
     style="fill:#cc0000"
     d="m 36.3827,34.0751 c -1.543,0 -2.793,1.25 -2.793,2.7969 v 11.641 c 0,1.543 1.25,2.793 2.793,2.793 h 12.223 c 1.543,0 2.793,-1.25 2.793,-2.793 V 36.872 c 0,-1.543 -1.25,-2.7969 -2.793,-2.7969 z"
     id="path1256" />
  <path
     d="m 45.8124,39.6649 h -6.6367 v 6.0547 h 6.6367 z"
     id="path1258"
     style="fill:#ffffff" />
  <path
     d="m 9.328,56.6372 c -1.543,0 -2.793,1.25 -2.793,2.793 v 11.641 c 0,1.543 1.25,2.793 2.793,2.793 h 12.227 c 1.543,0 2.793,-1.25 2.793,-2.793 v -11.641 c 0,-1.543 -1.25,-2.793 -2.793,-2.793 z"
     id="path1252"
     style="fill:#cc0000" />
  <path
     d="M 18.7577,62.2231 H 12.121 v 6.0547 h 6.6367 z"
     id="path1254"
     style="fill:#ffffff" />
  <path
     d="m 36.3823,56.6372 c -1.543,0 -2.793,1.25 -2.793,2.793 v 11.641 c 0,1.543 1.25,2.793 2.793,2.793 h 12.223 c 1.543,0 2.793,-1.25 2.793,-2.793 v -11.641 c 0,-1.543 -1.25,-2.793 -2.793,-2.793 z"
     id="path1248"
     style="fill:#cc0000" />
  <path
     d="m 45.812,62.2231 h -6.6367 v 6.0547 h 6.6367 z"
     id="path1250"
     style="fill:#ffffff" />
  <path
     d="m 75.6633,73.8672 c 1.543,0 2.793,-1.25 2.793,-2.793 v -11.641 c 0,-1.543 -1.25,-2.793 -2.793,-2.793 h -12.223 c -1.543,0 -2.793,1.25 -2.793,2.793 v 11.641 c 0,1.543 1.25,2.793 2.793,2.793 z"
     id="path1246"
     style="fill:#cc0000" />
  <path
     d="m 66.2336,68.2774 h 6.6367 v -6.0547 h -6.6367 z"
     id="path1244"
     style="fill:#ffffff" />
</svg>
