<?xml version="1.0" encoding="UTF-8" standalone="no"?>
<svg
   version="1.1"
   x="0px"
   y="0px"
   viewBox="0 0 89.476486 86.525002"
   enable-background="new 0 0 100 100"
   xml:space="preserve"
   id="svg2"
   sodipodi:docname="colorbar.svg"
   width="89.476486"
   height="86.525002"
   inkscape:version="1.4 (e7c3feb100, 2024-10-09)"
   xmlns:inkscape="http://www.inkscape.org/namespaces/inkscape"
   xmlns:sodipodi="http://sodipodi.sourceforge.net/DTD/sodipodi-0.dtd"
   xmlns="http://www.w3.org/2000/svg"
   xmlns:svg="http://www.w3.org/2000/svg"><defs
     id="defs2" /><sodipodi:namedview
     id="namedview2"
     pagecolor="#ffffff"
     bordercolor="#000000"
     borderopacity="0.25"
     inkscape:showpageshadow="2"
     inkscape:pageopacity="0.0"
     inkscape:pagecheckerboard="0"
     inkscape:deskcolor="#d1d1d1"
     inkscape:zoom="5.888"
     inkscape:cx="32.269022"
     inkscape:cy="67.764946"
     inkscape:window-width="1920"
     inkscape:window-height="1131"
     inkscape:window-x="0"
     inkscape:window-y="32"
     inkscape:window-maximized="1"
     inkscape:current-layer="svg2" /><path
     fill-rule="evenodd"
     clip-rule="evenodd"
     d="M 44.738,0 C 20.03,0 0,18.749 0,42.179 c 0,23.43 20.03,44.346 44.738,44.346 3.561,0 9.95,-0.537 10.746,-5.05 1.052,-5.962 -4.546,-7.55 -7.654,-10.662 -5.075,-5.082 -2.388,-13.012 6.455,-13.012 12.683,0 12.612,0 21.532,0 4.016,0 13.798,0.775 13.658,-15.133 C 89.476,19.238 69.446,0 44.738,0 Z M 19.014,56.048 c -3.887,0 -7.038,-3.155 -7.038,-7.047 0,-3.892 3.151,-7.047 7.038,-7.047 3.887,0 7.038,3.155 7.038,7.047 0,3.891 -3.151,7.047 -7.038,7.047 z M 27.033,32.43 c -3.887,0 -7.038,-3.155 -7.038,-7.047 0,-3.892 3.151,-7.047 7.038,-7.047 3.887,0 7.038,3.155 7.038,7.047 0.001,3.892 -3.15,7.047 -7.038,7.047 z m 25.474,-6.14 c -3.887,0 -7.038,-3.155 -7.038,-7.047 0,-3.892 3.151,-7.047 7.038,-7.047 3.887,0 7.038,3.155 7.038,7.047 10e-4,3.891 -3.151,7.047 -7.038,7.047 z m 17.926,18.421 c -3.887,0 -7.038,-3.155 -7.038,-7.047 0,-3.892 3.151,-7.047 7.038,-7.047 3.887,0 7.038,3.155 7.038,7.047 0,3.892 -3.15,7.047 -7.038,7.047 z"
     id="path1"
     style="fill:#986a44;stroke:#986a44" /><path
     id="path2"
     style="fill:#c01c28;stroke:#c01c28;stroke-width:2;stroke-dasharray:none"
     d="m 19.080078,42.068359 c -0.36742,-0.0015 -0.737066,0.02869 -1.105469,0.0918 -2.331235,0.399324 -4.208662,1.810831 -5.203125,3.910156 -0.502742,1.061288 -0.542968,1.274578 -0.542968,2.927735 0,1.594634 0.04894,1.890408 0.470703,2.791015 0.912802,1.949141 2.324243,3.201207 4.328125,3.841797 1.268519,0.405479 2.645499,0.408105 3.93164,0.0078 2.04894,-0.637702 3.460184,-1.875318 4.384766,-3.84961 0.421761,-0.900607 0.470703,-1.196381 0.470703,-2.791015 0,-1.653157 -0.03828,-1.866447 -0.541015,-2.927735 -1.157708,-2.443938 -3.621422,-3.991475 -6.19336,-4.001953 z" /><path
     id="path3"
     style="fill:#f5c211;stroke:#f5c211;stroke-width:2;stroke-dasharray:none"
     d="m 26.986328,18.462891 c -2.938696,0.04199 -5.745732,1.992146 -6.626953,5.023437 -0.431259,1.483482 -0.26423,3.460267 0.408203,4.826172 0.920721,1.87025 2.564881,3.261065 4.457031,3.769531 1.824461,0.490277 3.725011,0.210029 5.408203,-0.796875 4.70736,-2.815993 4.285626,-9.849952 -0.730468,-12.197265 -0.942024,-0.440827 -1.936451,-0.638996 -2.916016,-0.625 z" /><path
     id="path4"
     style="fill:#2ec27e;stroke:#2ec27e;stroke-width:2;stroke-dasharray:none"
     d="m 52.480469,12.332031 c -2.497272,0.0098 -4.989158,1.349845 -6.251953,4.015625 -0.502742,1.061287 -0.542969,1.276531 -0.542969,2.929688 0,1.663558 0.0372,1.856945 0.546875,2.898437 0.909219,1.857956 2.726396,3.33054 4.71875,3.824219 1.079521,0.267489 1.681727,0.283061 2.822266,0.06836 4.399046,-0.828104 6.922537,-5.769238 4.990234,-9.769531 -1.282854,-2.655787 -3.785931,-3.976599 -6.283203,-3.966798 z" /><path
     id="path5"
     style="fill:#1c71d8;stroke:#1c71d8;stroke-width:2;stroke-dasharray:none"
     d="m 70.484375,30.71875 c -1.280502,-0.01558 -2.584101,0.336116 -3.767578,1.109375 -0.544161,0.355543 -1.153066,0.829265 -1.353516,1.052734 -1.379175,1.537552 -2.11638,3.870351 -1.802734,5.705079 0.466026,2.726099 2.251506,4.842294 4.798828,5.6875 0.682679,0.226515 1.323663,0.297085 2.380859,0.259765 1.810883,-0.06392 3.317276,-0.707899 4.552735,-1.943359 1.838628,-1.838628 2.534763,-4.641486 1.736328,-6.994141 -1.027353,-3.027179 -3.727818,-4.842672 -6.544922,-4.876953 z" /></svg>
