<?xml version="1.0" encoding="UTF-8" standalone="no"?>
<svg
   version="1.1"
   viewBox="-5 -10 75.008301 37.452564"
   id="svg843"
   sodipodi:docname="freccia_destra.svg"
   inkscape:version="1.4 (e7c3feb100, 2024-10-09)"
   width="75.008301"
   height="37.452564"
   xmlns:inkscape="http://www.inkscape.org/namespaces/inkscape"
   xmlns:sodipodi="http://sodipodi.sourceforge.net/DTD/sodipodi-0.dtd"
   xmlns="http://www.w3.org/2000/svg"
   xmlns:svg="http://www.w3.org/2000/svg">
  <defs
     id="defs847">
    <rect
       x="-40.591248"
       y="35.552334"
       width="123.54529"
       height="45.019524"
       id="rect1" />
  </defs>
  <sodipodi:namedview
     id="namedview845"
     pagecolor="#ffffff"
     bordercolor="#666666"
     borderopacity="1.0"
     inkscape:pageshadow="2"
     inkscape:pageopacity="0.0"
     inkscape:pagecheckerboard="0"
     showgrid="false"
     inkscape:zoom="5.0518518"
     inkscape:cx="7.5219942"
     inkscape:cy="14.054252"
     inkscape:window-width="1920"
     inkscape:window-height="1011"
     inkscape:window-x="0"
     inkscape:window-y="0"
     inkscape:window-maximized="1"
     inkscape:current-layer="svg843"
     fit-margin-top="0"
     fit-margin-left="0"
     fit-margin-right="0"
     fit-margin-bottom="0"
     inkscape:showpageshadow="2"
     inkscape:deskcolor="#d1d1d1"
     showguides="true" />
  <path
     d="m 11.5391,-9.1177375 -15.625,15.625 c -1.2188,1.2188 -1.2188,3.1875 0,4.4062005 l 15.625,15.625 c 1.2188,1.2188 3.1875,1.2188 4.4062,0 1.2187,-1.2188 1.2188,-3.1875 0,-4.4062 l -10.281,-10.281 h 61.219 c 1.7188,0 3.125002,-1.4062 3.125002,-3.1250005 0,-1.7188 -1.406202,-3.125 -3.125002,-3.125 H 5.6643 l 10.281,-10.281 c 1.2188,-1.2188 1.2188,-3.1875 0,-4.4062 -1.2188,-1.2186995 -3.1875,-1.2187995 -4.4062,0 z"
     id="path837"
     style="fill:#000000" />
</svg>
