<?xml version="1.0" encoding="UTF-8" standalone="no"?>
<svg
   version="1.1"
   viewBox="-5 -10 87.542564 87.5"
   id="svg12"
   sodipodi:docname="freddo_prev.svg"
   inkscape:version="1.4 (e7c3feb100, 2024-10-09)"
   width="87.542564"
   height="87.5"
   xmlns:inkscape="http://www.inkscape.org/namespaces/inkscape"
   xmlns:sodipodi="http://sodipodi.sourceforge.net/DTD/sodipodi-0.dtd"
   xmlns="http://www.w3.org/2000/svg"
   xmlns:svg="http://www.w3.org/2000/svg">
  <defs
     id="defs16">
    <rect
       x="-40.591248"
       y="35.552334"
       width="123.54529"
       height="45.019524"
       id="rect1" />
  </defs>
  <sodipodi:namedview
     id="namedview14"
     pagecolor="#ffffff"
     bordercolor="#666666"
     borderopacity="1.0"
     inkscape:pageshadow="2"
     inkscape:pageopacity="0.0"
     inkscape:pagecheckerboard="0"
     showgrid="false"
     inkscape:zoom="7.1443975"
     inkscape:cx="54.588228"
     inkscape:cy="37.511911"
     inkscape:window-width="1680"
     inkscape:window-height="1013"
     inkscape:window-x="0"
     inkscape:window-y="0"
     inkscape:window-maximized="1"
     inkscape:current-layer="svg12"
     fit-margin-top="0"
     fit-margin-left="0"
     fit-margin-right="0"
     fit-margin-bottom="0"
     inkscape:showpageshadow="2"
     inkscape:deskcolor="#d1d1d1" />
  <path
     d="m 32.502667,5.625 c 0,-8.625 -7,-15.625 -15.625,-15.625 C 8.2526669,-10 1.2526669,-3 1.2526669,5.625 v 34.719 c -5.1875,5.2188 -7.3125,12.625 -5.75,20.031 2,9.4062 10.531,17.125 21.3440001,17.125 12.156,0 21.906,-9.8125 21.906,-21.875 0,-5.75 -2.25,-11.219 -6.25,-15.281 z M 1.6276669,59.063 c -1.21879996,-5.6562 0.59375,-11.281 4.8438,-15.031 0.65625,-0.59375 1.0625,-1.4375 1.0625,-2.3438 V 5.6262 c 0,-5.1562 4.2188001,-9.375 9.3750001,-9.375 5.1562,0 9.375,4.2188 9.375,9.375 v 36.062 c 0,0.90625 0.375,1.75 1.0625,2.3438 3.3125,2.9375 5.1875,7.1562 5.1875,11.594 0,18.688 -27.0620001,21.375 -30.8750001,3.4375 z"
     id="path2"
     style="fill:#babdb6" />
  <path
     d="M 20.002667,46.812 V 33.75 c 0,-1.7188 -1.4062,-3.125 -3.125,-3.125 -1.7188,0 -3.125,1.4062 -3.125,3.125 v 13.062 c -3.625,1.2812 -6.2500001,4.7188 -6.2500001,8.8125 0,5.1562 4.2188001,9.375 9.3750001,9.375 5.1562,0 9.375,-4.2188 9.375,-9.375 0,-4.0625 -2.625,-7.5 -6.25,-8.8125 z m -3.125,11.938 c -1.7188,0 -3.125,-1.4062 -3.125,-3.125 0,-1.7188 1.4062,-3.125 3.125,-3.125 1.7188,0 3.125,1.4062 3.125,3.125 0,1.7188 -1.4062,3.125 -3.125,3.125 z"
     id="path4"
     style="fill:#3465a4" />
  <path
     d="m 81.596667,50.281 c -1.2188,-1.2188 -3.1875,-1.2188 -4.4062,0 l -10.281,10.281 V -0.626 c 0,-1.7188 -1.4062,-3.125 -3.125,-3.125 -1.7188,0 -3.125,1.4062 -3.125,3.125 v 61.219 l -10.281,-10.281 c -1.2188,-1.2188 -3.1875,-1.2188 -4.4062,0 -1.2187,1.2188 -1.2188,3.1875 0,4.4062 l 15.625,15.625 c 1.2188,1.2188 3.1875,1.2188 4.4062,0 l 15.625,-15.625 c 1.2188,-1.2188 1.2188,-3.1875 0,-4.4062 z"
     id="path6"
     style="fill:#3465a4" />
  <text
     xml:space="preserve"
     transform="matrix(2.0631633,0,0,2.0631633,93.415496,-94.540571)"
     id="text1"
     style="font-size:20.6802px;line-height:23.0088px;font-family:Helvetica;-inkscape-font-specification:Helvetica;text-align:start;letter-spacing:0px;word-spacing:0px;writing-mode:lr-tb;direction:ltr;white-space:pre;shape-inside:url(#rect1);display:inline;fill:#ffffff;stroke:#2ec27e;stroke-width:0;stroke-dasharray:none"><tspan
       x="-40.591797"
       y="53.577325"
       id="tspan4"><tspan
         style="font-weight:900;font-family:Timmana;-inkscape-font-specification:'Timmana Heavy';stroke:#000000"
         id="tspan1">Prev</tspan></tspan></text>
</svg>
