<?xml version="1.0" encoding="UTF-8" standalone="no"?>
<svg
   version="1.1"
   viewBox="-5 -10 162.99507 246.08833"
   id="svg2"
   sodipodi:docname="fulmini.svg"
   inkscape:version="1.4 (e7c3feb100, 2024-10-09)"
   width="162.99507"
   height="246.08833"
   xmlns:inkscape="http://www.inkscape.org/namespaces/inkscape"
   xmlns:sodipodi="http://sodipodi.sourceforge.net/DTD/sodipodi-0.dtd"
   xmlns="http://www.w3.org/2000/svg"
   xmlns:svg="http://www.w3.org/2000/svg">
  <defs
     id="defs2" />
  <sodipodi:namedview
     id="namedview2"
     pagecolor="#ffffff"
     bordercolor="#000000"
     borderopacity="0.25"
     inkscape:showpageshadow="2"
     inkscape:pageopacity="0.0"
     inkscape:pagecheckerboard="0"
     inkscape:deskcolor="#d1d1d1"
     inkscape:zoom="0.83543358"
     inkscape:cx="59.849163"
     inkscape:cy="5.9849163"
     inkscape:window-width="1536"
     inkscape:window-height="891"
     inkscape:window-x="0"
     inkscape:window-y="0"
     inkscape:window-maximized="1"
     inkscape:current-layer="svg2" />
  <g
     id="g1"
     transform="translate(-18.502464,0.31690175)">
    <path
       id="path2"
       style="fill:#f5c211;stroke:#f5c211;stroke-width:9.07179;stroke-dasharray:none"
       d="m 111.46389,29.078967 c -0.91008,0 -9.59211,10.780346 -38.920119,48.321468 -23.052916,29.508725 -26.971286,34.579115 -27.598093,35.922165 -1.765423,2.3046 -2.743883,3.60879 -2.721537,3.63581 8.18e-4,9.9e-4 0.100533,-0.005 0.102765,-0.004 l -0.07087,0.078 4.847737,-0.0213 c 2.66495,-0.0118 11.07459,-0.35757 18.68931,-0.76898 l 13.845114,-0.74771 2.14392,1.1765 c 1.1792,0.64711 2.644133,2.03429 3.256632,3.07945 1.471849,2.51153 1.39846,5.25502 -1.045383,38.81734 -1.065446,14.63221 -2.09509,28.78272 -2.285667,31.44296 -0.186545,2.60395 -0.19344,3.84399 -0.01415,4.27013 0.0012,0.005 0.0024,0.0127 0.0036,0.0181 0.07475,0.16746 0.172219,0.23378 0.315386,0.14533 1.190836,-0.73598 63.657695,-88.86516 64.062445,-90.37418 0.76995,-1.11218 3.26622,-4.643936 3.25308,-4.656379 -0.006,-0.0054 -0.48702,0.0042 -0.53509,0 -0.19838,-0.216294 -7.68794,-0.228348 -16.89621,-0.02126 l -16.08117,0.361452 c -0.39417,-0.03014 -0.87129,-0.05465 -1.05601,-0.09567 l -1.68336,-1.162713 c -3.81125,-2.6342 -4.13917,-3.563044 -3.97245,-11.236973 0.0821,-3.780653 0.7537,-17.012778 1.49189,-29.405365 1.14409,-19.206769 1.46208,-25.90587 1.20484,-27.941827 -0.001,-0.04086 0.027,-0.501737 0.0248,-0.524464 -0.0129,-0.132847 -0.0795,-0.17817 -0.18428,-0.170096 -0.0519,-0.08509 -0.1104,-0.138199 -0.17719,-0.138199 z" />
    <path
       d="m 70.139725,235.77143 c -0.991839,0 -1.996244,-0.16329 -2.975548,-0.52731 -3.716142,-1.33083 -6.076577,-4.9844 -5.78795,-8.91398 l 6.817426,-92.6689 -45.43772,2.37291 c -3.452583,0.20087 -6.666683,-1.66982 -8.261198,-4.72087 -1.594481,-3.05089 -1.242956,-6.75475 0.878865,-9.46649 L 116.09061,-6.9421539 c 2.3729,-3.0383196 6.44073,-4.1683651 10.04406,-2.7997696 3.60332,1.3685956 5.88822,4.9088936 5.66227,8.75102759 l -5.0847,82.97517991 40.78049,-1.016973 c 3.3523,-0.03767 6.41566,1.720057 7.97257,4.657874 1.56938,2.937878 1.33083,6.503408 -0.59007,9.215462 L 77.311247,232.0666 c -1.682388,2.37291 -4.381781,3.70362 -7.169048,3.70362 z m 7.558276,-120.17837 c 2.360371,0 4.620267,0.94163 6.277457,2.63656 1.770262,1.80793 2.674226,4.28118 2.485912,6.79235 l -5.247981,71.21158 69.154551,-97.252211 -32.79345,0.816093 c -2.48591,0.07533 -4.83368,-0.916532 -6.54133,-2.686794 -1.70766,-1.770263 -2.59889,-4.180901 -2.44825,-6.641615 l 3.94242,-64.307692 -71.414068,91.325409 36.120045,-1.8958 h 0.464532 z"
       id="path1"
       style="fill:#241f31;stroke-width:3.2141" />
  </g>
</svg>
