<?xml version="1.0" encoding="UTF-8" standalone="no"?>
<svg
   viewBox="0 0 55.19199 55.19199"
   version="1.1"
   x="0px"
   y="0px"
   id="svg3"
   sodipodi:docname="impostazioni.svg"
   inkscape:version="1.4 (e7c3feb100, 2024-10-09)"
   width="55.19199"
   height="55.19199"
   xmlns:inkscape="http://www.inkscape.org/namespaces/inkscape"
   xmlns:sodipodi="http://sodipodi.sourceforge.net/DTD/sodipodi-0.dtd"
   xmlns="http://www.w3.org/2000/svg"
   xmlns:svg="http://www.w3.org/2000/svg"
   xmlns:rdf="http://www.w3.org/1999/02/22-rdf-syntax-ns#"
   xmlns:cc="http://creativecommons.org/ns#"
   xmlns:dc="http://purl.org/dc/elements/1.1/">
  <defs
     id="defs3" />
  <sodipodi:namedview
     id="namedview3"
     pagecolor="#ffffff"
     bordercolor="#000000"
     borderopacity="0.25"
     inkscape:showpageshadow="2"
     inkscape:pageopacity="0.0"
     inkscape:pagecheckerboard="0"
     inkscape:deskcolor="#d1d1d1"
     inkscape:zoom="7.218146"
     inkscape:cx="24.798612"
     inkscape:cy="24.937151"
     inkscape:window-width="1536"
     inkscape:window-height="891"
     inkscape:window-x="0"
     inkscape:window-y="0"
     inkscape:window-maximized="1"
     inkscape:current-layer="svg3" />
  <title
     id="title1">Gear 4.4</title>
  <desc
     id="desc1">Created with Sketch.</desc>
  <g
     stroke="#000000"
     stroke-width="2"
     id="g1"
     transform="translate(-22.404018,-22.404007)"
     style="fill:#deddda;fill-rule:evenodd;stroke:#deddda">
    <path
       d="m 36.670375,70.03656 c -1.196393,1.149335 -3.114752,1.132073 -4.288202,-0.04198 L 30.006005,67.617183 C 28.834089,66.44466 28.808738,64.531609 29.964865,63.32815 l 0.09987,-0.103959 c 1.149193,-1.196245 1.569123,-3.401285 0.929761,-4.944842 L 30.7067,57.584548 c -0.6357,-1.534716 -2.485495,-2.80562 -4.153972,-2.839091 l -0.144129,-0.0029 c -1.658475,-0.03327 -3.003282,-1.401958 -3.003711,-3.061896 l -8.7e-4,-3.361279 c -4.29e-4,-1.657769 1.333846,-3.028429 3.002529,-3.061904 l 0.144146,-0.0029 c 1.65868,-0.03328 3.515081,-1.295785 4.15457,-2.839647 l 0.287853,-0.694938 c 0.635825,-1.535019 0.226475,-3.74205 -0.929791,-4.945658 l -0.09988,-0.103971 c -1.149335,-1.196393 -1.132072,-3.114752 0.04199,-4.288202 l 2.377398,-2.376168 c 1.172523,-1.171916 3.085574,-1.197267 4.289033,-0.04114 l 0.103959,0.09987 c 1.196245,1.149193 3.401285,1.569123 4.944842,0.929761 l 0.694801,-0.287796 c 1.534716,-0.6357 2.80562,-2.485495 2.839091,-4.153972 l 0.0029,-0.144129 c 0.03327,-1.658475 1.401958,-3.003282 3.061896,-3.003711 l 3.361279,-8.7e-4 c 1.657768,-4.29e-4 3.028429,1.333846 3.061904,3.002529 l 0.0029,0.144146 c 0.03328,1.65868 1.295785,3.515081 2.839647,4.15457 l 0.694938,0.287853 c 1.535019,0.635825 3.74205,0.226475 4.945658,-0.929791 l 0.103971,-0.09988 c 1.196393,-1.149335 3.114752,-1.132072 4.288202,0.04199 l 2.376168,2.377398 c 1.171916,1.172523 1.197267,3.085574 0.04114,4.289033 l -0.09987,0.103959 c -1.149193,1.196245 -1.569123,3.401285 -0.929761,4.944842 l 0.287796,0.694801 c 0.6357,1.534716 2.485495,2.80562 4.153972,2.839091 l 0.144129,0.0029 c 1.658475,0.03327 3.003282,1.401958 3.003711,3.061896 l 8.7e-4,3.361279 c 4.29e-4,1.657768 -1.333846,3.028429 -3.002529,3.061904 l -0.144146,0.0029 c -1.65868,0.03328 -3.515081,1.295785 -4.15457,2.839647 l -0.287853,0.694938 c -0.635825,1.535019 -0.226475,3.74205 0.929791,4.945658 l 0.09988,0.103971 c 1.149335,1.196393 1.132073,3.114752 -0.04198,4.288202 l -2.377397,2.376168 c -1.172523,1.171916 -3.085574,1.197267 -4.289033,0.04114 l -0.103959,-0.09987 C 62.027968,68.786088 59.822928,68.366158 58.279371,69.00552 l -0.694801,0.287796 c -1.534716,0.6357 -2.80562,2.485495 -2.839091,4.153972 l -0.0029,0.144129 c -0.03327,1.658475 -1.401958,3.003282 -3.061896,3.003711 l -3.361279,8.7e-4 c -1.657769,4.29e-4 -3.028429,-1.333846 -3.061904,-3.002529 l -0.0029,-0.144146 c -0.03328,-1.65868 -1.295785,-3.515081 -2.839647,-4.15457 L 41.720015,69.0069 c -1.535019,-0.635825 -3.74205,-0.226475 -4.945658,0.929791 z m 8.35474,-8.026126 c 6.63318,2.747553 14.237766,-0.40237 16.985319,-7.035549 2.747553,-6.63318 -0.40237,-14.237766 -7.035549,-16.985319 -6.63318,-2.747553 -14.237766,0.40237 -16.985319,7.035549 -2.747553,6.63318 0.40237,14.237766 7.035549,16.985319 z"
       id="path1"
       style="stroke:#deddda;fill:#deddda" />
  </g>
  <metadata
     id="metadata1">
    <rdf:RDF>
      <cc:Work
         rdf:about="">
        <dc:title>Gear 4.4</dc:title>
      </cc:Work>
    </rdf:RDF>
  </metadata>
</svg>
