<?xml version="1.0" encoding="UTF-8" standalone="no"?>
<svg
   version="1.1"
   viewBox="-5 -10 109.51328 106.33307"
   id="svg2"
   sodipodi:docname="irene.svg"
   xml:space="preserve"
   inkscape:version="1.4 (e7c3feb100, 2024-10-09)"
   width="109.51328"
   height="106.33307"
   xmlns:inkscape="http://www.inkscape.org/namespaces/inkscape"
   xmlns:sodipodi="http://sodipodi.sourceforge.net/DTD/sodipodi-0.dtd"
   xmlns="http://www.w3.org/2000/svg"
   xmlns:svg="http://www.w3.org/2000/svg"><defs
     id="defs2" /><sodipodi:namedview
     id="namedview2"
     pagecolor="#ffffff"
     bordercolor="#000000"
     borderopacity="0.25"
     inkscape:showpageshadow="2"
     inkscape:pageopacity="0.0"
     inkscape:pagecheckerboard="0"
     inkscape:deskcolor="#d1d1d1"
     inkscape:zoom="1.6708671"
     inkscape:cx="32.318548"
     inkscape:cy="58.053689"
     inkscape:window-width="1536"
     inkscape:window-height="891"
     inkscape:window-x="0"
     inkscape:window-y="0"
     inkscape:window-maximized="1"
     inkscape:current-layer="svg2" /><g
     id="g9"
     transform="matrix(0.98853981,0,0,0.98853981,0.32965128,-13.674501)"><path
       id="path4"
       style="fill:#873f30;fill-opacity:1;stroke:#873f30;stroke-width:2;stroke-dasharray:none;stroke-opacity:1"
       d="m 94.783203,93.847656 c -0.202196,0.0032 -0.432855,0.01449 -0.695312,0.02734 l -1.81836,0.08789 -0.949219,2.255859 c -1.970223,4.685155 -4.328441,8.341535 -8.115234,12.578135 -0.767175,0.85828 -1.431507,1.66925 -1.814453,2.20117 -0.257706,0.29566 -0.445313,0.52149 -0.445313,0.55664 0,0.0395 0.07557,0.10051 0.203126,0.17578 0.555446,0.47668 3.287099,1.5298 5.632812,2.14648 5.505208,1.4473 12.187365,0.0492 17.31445,-3.625 l 1.75391,-1.25781 -1.69727,-0.91211 c -3.39602,-1.82226 -6.579172,-6.56286 -7.367184,-10.976566 -0.229026,-1.282792 -0.370928,-2.069148 -0.578125,-2.548828 -0.01335,-0.300097 -0.0859,-0.44977 -0.398437,-0.521485 -0.238515,-0.15652 -0.556478,-0.194981 -1.025391,-0.1875 z"
       transform="translate(-5,-10)" /><path
       style="fill:#ffcec0;fill-opacity:1;stroke:#ffcec0;stroke-width:2;stroke-dasharray:none;stroke-opacity:1"
       d="m 93.628872,89.848556 c 0.101397,-0.370316 0.404739,-1.885248 0.674093,-3.366515 0.269354,-1.481267 0.707076,-2.945334 0.972716,-3.253484 0.265639,-0.308149 1.175467,-0.952468 2.02184,-1.431821 1.691412,-0.95795 2.126835,-1.810349 1.451365,-2.841247 -0.60395,-0.921744 -1.460681,-1.111924 -2.5264,-0.560819 l -0.912693,0.471972 v -2.700897 -2.700897 l 1.122171,0.0017 c 2.067135,0.0031 3.449089,0.58748 4.882356,2.064667 1.61545,1.664964 2.20715,3.401216 2.02094,5.930191 -0.34493,4.684649 -4.604485,9.060484 -8.819709,9.060484 -0.965832,0 -1.052927,-0.06614 -0.886679,-0.673303 z"
       id="path7"
       transform="translate(-5,-10)" /><path
       style="fill:#fc9aa1;fill-opacity:1;stroke:#fc9aa1;stroke-width:2;stroke-dasharray:none;stroke-opacity:1"
       d="m 53.864247,107.91781 c -2.947157,-1.34347 -4.249362,-3.42146 -4.544776,-7.2523 l -0.183902,-2.3848 2.513962,0.185083 c 3.165511,0.233051 3.262076,0.266422 3.262076,1.127293 0,0.811314 0.844608,1.701624 1.614276,1.701624 1.01426,0 1.677428,-0.59344 1.677428,-1.501058 0,-1.006215 0.125985,-1.054333 3.516139,-1.342944 l 2.169532,-0.184697 v 2.003309 c 0,2.92988 -0.487466,4.22488 -2.262625,6.01088 -2.203307,2.21677 -5.134864,2.83526 -7.76211,1.63761 z"
       id="path8"
       transform="translate(-5,-10)" /><path
       id="path5"
       style="fill:#ffcec0;fill-opacity:1;stroke:#ffcec0;stroke-width:2;stroke-dasharray:none;stroke-opacity:1"
       d="m 38.210938,48.197266 -2.113282,2.732422 c -3.151234,4.077414 -7.84533,8.032038 -12.90625,10.873046 -1.234389,0.692939 -2.697448,1.600491 -3.251953,2.015625 l -1.007812,0.753907 0.09766,4.697265 c -8.39e-4,0.112515 -0.0054,0.191054 -0.0059,0.304688 -0.009,2.089996 0.06419,4.116189 0.195312,6.095703 0.232026,5.233319 0.725944,8.399113 2.017578,13.251953 3.022336,11.355315 9.485228,20.279875 18.115234,25.013675 2.451447,1.34469 6.99593,3.0353 9.72461,3.61914 1.152096,0.24651 3.465536,0.45925 5.140625,0.47265 10.003285,0.0801 18.502251,-3.39099 25.548828,-10.43359 5.628114,-5.62494 9.374006,-12.706748 11.246094,-21.261719 0.20965,-0.958048 0.357918,-2.588619 0.451172,-4.523437 0.273748,-3.258892 0.266913,-7.023413 -0.0078,-10.658203 -0.106373,-2.410096 -0.275336,-4.564554 -0.52539,-5.892579 l -0.560547,-2.96875 -2.990235,-1.701171 c -3.98461,-2.265342 -6.924184,-5.17275 -9.009765,-8.914063 l -1.529297,-2.74414 -1.236328,1.765624 c -1.641019,2.339435 -4.966416,5.382572 -7.158204,6.550782 -4.240454,2.260139 -10.839843,2.526183 -10.839843,0.4375 0,-0.267014 0.293943,-1.400659 0.654297,-2.519532 0.360358,-1.118871 0.566937,-2.122515 0.458984,-2.230468 -0.107953,-0.107953 -1.312426,0.279732 -2.675781,0.861328 -3.330681,1.420844 -6.362869,2.341146 -11.904297,3.615234 -5.876631,1.351159 -7.634329,1.58526 -8.226563,1.09375 -0.665315,-0.552163 -0.57151,-1.130614 0.714844,-4.382812 0.64158,-1.622062 1.260427,-3.619477 1.375,-4.4375 z m 38.4375,12.101562 c 3.223838,0 6.7363,1.508144 8.816406,3.785156 1.049212,1.148534 1.204374,1.711006 0.677734,2.462891 -0.656453,0.937217 -1.266315,0.791266 -3.623047,-0.869141 -2.39247,-1.685585 -4.094169,-2.386718 -5.789062,-2.386718 -1.222616,0 -4.021073,0.935124 -5.507813,1.841796 -1.625665,0.991397 -2.845703,0.572624 -2.845703,-0.978515 0,-1.762199 4.492208,-3.855469 8.271485,-3.855469 z m -42.257813,0.0039 c 2.49565,-0.143219 5.057856,0.482199 7.353516,1.855469 1.284867,0.768611 1.666907,1.168478 1.742187,1.824219 0.110678,0.964044 -0.381109,1.701172 -1.136719,1.701172 -0.285839,0 -1.544955,-0.472358 -2.796875,-1.050782 -1.25192,-0.578422 -2.866605,-1.133561 -3.58789,-1.232421 -1.935003,-0.265221 -4.267307,0.533394 -6.66211,2.279297 -1.132459,0.825606 -2.270665,1.501953 -2.529296,1.501953 -0.72318,0 -1.1875,-0.62842 -1.1875,-1.603516 0,-1.195739 1.914861,-2.992016 4.457031,-4.181641 1.377061,-0.644404 2.850266,-1.007818 4.347656,-1.09375 z m 1.328125,11.06836 c 1.262597,0 1.689754,0.150734 2.554688,0.910156 2.776538,2.437833 2.545321,8.074817 -0.414063,10.085938 -2.896754,1.968559 -6.291209,-0.690923 -6.287109,-4.925782 0.0023,-2.415512 0.492791,-3.932243 1.644531,-5.083984 0.856253,-0.856253 1.186455,-0.986328 2.501953,-0.986328 z m 41.896484,0 c 1.114275,-9.54e-4 1.473502,0.166861 2.439454,1.132812 2.594003,2.594004 2.271025,7.912471 -0.59961,9.863282 -2.004295,1.362067 -4.643619,0.5289 -5.701172,-1.800782 -0.812205,-1.789212 -0.802141,-5.211731 0.02148,-6.826172 0.776441,-1.521951 2.148099,-2.36774 3.839843,-2.36914 z M 56.375,81.859375 c 0.890414,-0.02679 1.784508,0.06257 2.558594,0.279297 2.654041,0.743084 4.934308,3.530965 4.949218,6.052734 0.007,1.176748 -0.557379,1.732422 -1.761718,1.732422 -0.608813,0 -1.523438,-1.318345 -1.523438,-2.195312 0,-0.31247 -0.625796,-1.000071 -1.349609,-1.619141 -0.226144,-0.20517 -0.464956,-0.390208 -0.710938,-0.550781 -0.409793,-0.290775 -0.800012,-0.528345 -1.076171,-0.597656 -1.266898,-0.317971 -2.489442,0.05464 -3.550782,1.0625 -0.03131,0.0287 -0.05937,0.06015 -0.08984,0.08984 -0.07631,0.07576 -0.153999,0.146035 -0.228515,0.228516 -0.590996,0.65416 -1.074219,1.42863 -1.074219,1.720703 0,0.292075 -0.208636,0.829523 -0.464844,1.195312 -0.684717,0.977568 -2.154896,0.91547 -2.410156,-0.101562 -0.516953,-2.059712 0.738201,-4.785117 2.888672,-6.275391 0.886126,-0.614088 2.359727,-0.976831 3.84375,-1.021484 z M 42.457031,93.097656 c 0.589113,0.0201 1.413728,0.199518 2.542969,0.523438 4.202721,1.20554 6.619554,1.618439 10.320312,1.640625 1.526293,0.05376 3.055773,0.01782 4.576172,-0.109375 2.759243,-0.128041 4.009599,-0.349122 6.970704,-1.13086 4.235838,-1.118275 4.871723,-1.101812 5.261718,0.126954 0.274205,0.863944 -0.49019,1.551237 -2.703125,2.427734 l -1.796875,0.710937 -0.230468,1.779297 c -0.838732,6.477694 -1.153084,7.367924 -3.396485,9.611324 -0.738099,0.7381 -2.088039,1.68407 -3,2.10157 -2.064275,0.94506 -5.91971,1.2259 -7.658203,0.55664 -1.546577,-0.59539 -3.537367,-2.01076 -4.712891,-3.34961 -1.697594,-1.93345 -2.196123,-3.45578 -2.380859,-7.26367 l -0.166016,-3.414066 -2.054687,-0.691406 c -2.500503,-0.842195 -2.882813,-1.138345 -2.882813,-2.230469 0,-0.913362 0.328692,-1.322555 1.310547,-1.289063 z"
       transform="translate(-5,-10)" /><path
       id="path2"
       style="fill:#873f30;fill-opacity:1;stroke:#873f30;stroke-width:2;stroke-dasharray:none;stroke-opacity:1"
       d="m 55.876953,16.751953 c -3.61278,0.02868 -7.248179,0.215652 -9.044922,0.544922 C 40.623243,18.434694 36.328072,19.784473 31.275391,22.1875 18.256543,28.379194 9.8512058,38.944005 7.7792969,51.71875 6.9863238,56.607974 7.2256438,62.808169 8.4257812,68.466797 c 0.4105149,1.935569 0.576713,2.294986 0.9726563,2.113281 0.2625258,-0.120479 1.7898255,-0.272494 3.3945315,-0.339844 l 2.917969,-0.123046 v -0.279297 -3.419922 c 0,-2.105206 0.144052,-4.016356 0.335937,-4.4375 0.231401,-0.507871 0.886523,-0.944027 2.085937,-1.392578 6.662182,-2.491491 14.237411,-9.051809 17.791016,-15.40625 0.731822,-1.308621 1.42012,-2.033569 2.080078,-2.1875 0.355908,-0.03201 0.695235,0.05024 1.013672,0.224609 0.434188,0.307854 0.856361,0.887618 1.273438,1.738281 0.377126,0.769182 0.624151,1.847636 0.746093,3.021485 0.03509,0.432144 0.06887,0.867516 0.08008,1.322265 0.0023,0.125852 0.0084,0.250775 0.0078,0.376953 0.0013,0.139167 -0.01074,0.264332 -0.01172,0.402344 -0.03038,1.008773 -0.147679,2.006447 -0.375,2.876953 -0.25546,0.978265 -0.429848,1.814292 -0.386719,1.857422 0.04313,0.04313 1.551772,-0.253261 3.353516,-0.658203 9.200454,-2.067807 12.636809,-3.59571 15.31836,-6.816406 0.362488,-0.43537 0.793445,-0.692151 1.240234,-0.765625 0.0097,-0.0014 0.01962,-0.0026 0.0293,-0.0039 0.446988,-0.06529 0.90919,0.05123 1.335937,0.363282 0.463262,0.338745 0.717566,1.82856 0.714844,3.552734 -0.0066,0.236884 -0.0094,0.460303 -0.02148,0.72461 -6.83e-4,0.01497 -0.0013,0.02596 -0.002,0.04102 -1.45e-4,0.0033 1.48e-4,0.0065 0,0.0098 -0.01578,0.338033 -0.04682,0.607877 -0.06836,0.93164 -0.05363,0.545525 -0.123661,1.08698 -0.230469,1.595703 -0.423143,2.015411 -0.42392,2.019532 0.240235,2.019532 1.461283,0 4.638243,-1.25815 6.34375,-2.513672 2.094963,-1.542223 3.841173,-3.687888 5.90625,-7.25586 1.765506,-3.050381 2.222982,-3.434196 3.335937,-2.798828 0.562418,0.321076 0.971413,1.003205 1.4375,2.394532 1.190095,3.552583 2.834458,6.272762 5.279297,8.730468 1.927837,1.937988 2.779424,2.536389 5.445313,3.822266 l 2.787109,1.34375 c 0.196622,0.190833 0.349632,0.417873 0.484375,0.675781 l 0.339844,1.517578 c 0.248218,1.107844 0.607114,3.15962 0.796875,4.558594 0.575324,4.241484 0.414407,3.935702 2.013672,3.832031 l 1.40039,-0.0918 0.367188,-1.794922 C 99.613592,61.321713 99.848192,52.511295 98.757812,47.28125 95.350953,30.940098 83.542266,20.466707 64.787109,17.154297 63.080225,16.852838 59.489734,16.723275 55.876953,16.751953 Z"
       transform="translate(-5,-10)" /><path
       id="path3"
       style="fill:#873f30;fill-opacity:1;stroke:#873f30;stroke-width:2;stroke-dasharray:none;stroke-opacity:1"
       d="m 17.478516,93.628906 c -0.369082,0.0091 -0.806961,0.04668 -1.337891,0.09961 l -2.34375,0.234375 -0.503906,2.542968 c -0.825184,4.171751 -2.46794,7.567101 -4.6601565,9.630861 -0.4690439,0.44156 -1.6266784,1.26826 -2.5722656,1.83594 l -1.71875,1.03125 1.5703125,1.19921 c 2.7437894,2.09569 6.7549196,3.864 9.6484376,4.25196 2.121404,0.28443 5.1909,0.10162 8.027344,-0.47656 2.130281,-0.43423 6.215091,-2.00391 6.474609,-2.47071 2.12e-4,-3.8e-4 -2.07e-4,-0.002 0,-0.002 l 0.06836,-0.0312 -0.08594,-0.0918 c -8.41e-4,-0.002 -0.003,-0.004 -0.0039,-0.006 -0.141114,-0.26588 -0.727144,-0.99097 -1.423828,-1.7539 -3.129002,-3.42657 -6.336585,-8.54299 -8.263672,-13.181644 -0.50321,-1.211264 -0.828988,-1.928918 -1.248047,-2.33789 -0.203369,-0.287787 -0.386918,-0.372009 -0.625,-0.373047 -0.272123,-0.08334 -0.59396,-0.111623 -1.001953,-0.101563 z"
       transform="translate(-5,-10)" /><path
       style="fill:#ffcec0;fill-opacity:1;stroke:#ffcec0;stroke-width:2;stroke-dasharray:none;stroke-opacity:1"
       d="M 12.86757,90.124342 C 9.1154321,88.6532 6.5875728,85.352079 6.2485958,81.48065 5.9553891,78.131961 7.4279517,75.431817 10.252682,74.138612 c 1.351988,-0.61896 1.92767,-0.720325 3.291529,-0.579562 0.909126,0.09383 1.751555,0.279345 1.872064,0.412256 0.120509,0.132911 0.293745,1.29601 0.384969,2.584664 0.149974,2.118561 0.117734,2.321048 -0.336545,2.113763 -0.276325,-0.126086 -1.036618,-0.237815 -1.689541,-0.248288 -1.037817,-0.01665 -1.224564,0.08645 -1.484738,0.819676 -0.393147,1.107974 -0.04208,1.623955 1.870467,2.749118 0.842196,0.495469 1.728229,1.102843 1.968964,1.349721 0.240734,0.246878 0.757271,1.88488 1.147861,3.640005 l 0.710162,3.191137 -0.876894,0.175379 c -1.342063,0.268412 -3.24654,0.168714 -4.24341,-0.222139 z"
       id="path6"
       transform="translate(-5,-10)" /><path
       d="m 60.149694,84.569926 c 0.07002,-0.02334 0.144719,-0.03735 0.224088,-0.05136 1.680597,-0.401493 3.267974,-0.910358 4.738467,-1.517223 0.802987,-0.331458 1.718005,0.05602 2.049416,0.85433 0.331459,0.802975 -0.05602,1.718005 -0.85433,2.049416 -1.297796,0.536878 -2.670407,1.003721 -4.108273,1.391255 v 4.024255 c 0,2.899156 -1.1858,5.532156 -3.090497,7.436961 -1.909465,1.90946 -4.542465,3.09049 -7.43696,3.09049 h -0.06069 c -2.899156,0 -5.532156,-1.1858 -7.43696,-3.09049 -1.909466,-1.909466 -3.090497,-4.542466 -3.090497,-7.436961 v -4.024255 c -1.437866,-0.387486 -2.810477,-0.854329 -4.108273,-1.391255 -0.802987,-0.331459 -1.181127,-1.246525 -0.85433,-2.049416 0.331459,-0.802987 1.246525,-1.181127 2.049416,-0.85433 1.470612,0.606901 3.05787,1.115765 4.738467,1.517223 0.0747,0.01401 0.149392,0.02801 0.224088,0.05136 0.476189,0.112044 0.961712,0.21008 1.451849,0.303456 2.222232,0.415501 4.593856,0.639588 7.063481,0.639588 2.469624,0 4.841248,-0.224087 7.06348,-0.639588 0.490197,-0.09338 0.97572,-0.191412 1.451849,-0.303456 z m -6.946716,4.061543 v 0.910358 c 0,0.868336 -0.704938,1.573274 -1.573274,1.573274 -0.868337,0 -1.573275,-0.704938 -1.573275,-1.573274 v -0.910358 c -2.007466,-0.0747 -3.963542,-0.289449 -5.840261,-0.630242 v 3.314585 c 0,2.030772 0.830989,3.874863 2.170841,5.214728 1.339853,1.339865 3.183957,2.170841 5.214729,2.170841 h 0.06069 c 2.030772,0 3.874864,-0.830988 5.214729,-2.170841 1.339864,-1.339853 2.170841,-3.183956 2.170841,-5.214728 v -3.314585 c -1.876721,0.340805 -3.832797,0.555546 -5.840263,0.630242 z M 91.675536,68.35124 c 0.784307,-0.368806 1.718006,-0.03267 2.091485,0.751632 0.368806,0.784307 0.03267,1.718005 -0.751632,2.091485 -1.087763,0.518198 -1.904804,1.027062 -2.488269,1.503239 -0.457509,0.37348 -0.742286,0.681597 -0.882343,0.924365 -0.312791,2.455641 -0.779634,4.79918 -1.391256,7.035395 1.339865,0.191413 2.754426,-0.0047 4.098951,-0.546212 1.78804,-0.718945 3.436011,-2.054196 4.626484,-3.907491 1.377152,-2.142875 1.872057,-4.561109 1.55463,-6.731951 -0.308118,-2.096145 -1.377153,-3.958881 -3.132566,-5.088641 -0.915018,-0.588233 -1.92811,-0.929025 -2.969191,-1.031735 -0.788979,-0.07937 -1.60124,-0.02801 -2.404251,0.144718 0.0887,1.970059 0.0887,3.879525 0,5.7376 0.490196,-0.294111 1.041069,-0.588233 1.652631,-0.882344 z M 85.312404,52.006588 c -3.534011,-1.321221 -6.507863,-3.314585 -8.926217,-5.989653 -1.853414,-2.049416 -3.365975,-4.491075 -4.537804,-7.320196 -1.895363,3.267975 -4.070865,5.770227 -6.526507,7.516317 -3.309924,2.35298 -7.077464,3.314585 -11.307043,2.885173 -0.154065,-0.01401 -0.312791,-0.04668 -0.462183,-0.10737 -0.802986,-0.322125 -1.195134,-1.237203 -0.873009,-2.040094 0.662929,-1.657292 1.087763,-3.258653 1.274491,-4.813163 -1.479935,1.111104 -3.342671,2.035432 -5.648921,2.857087 -3.916812,1.400578 -9.17827,2.53966 -16.119967,3.90283 -0.387486,0.07469 -0.802987,0.0047 -1.162459,-0.228761 -0.728291,-0.476189 -0.929025,-1.451849 -0.457509,-2.175502 1.316559,-2.007467 2.180163,-4.243682 2.376285,-6.297759 0.06069,-0.639588 0.05602,-1.255847 -0.01868,-1.839431 -1.731988,2.749765 -4.220257,5.64426 -7.208092,8.253835 -3.351993,2.931783 -7.357484,5.532155 -11.661879,7.19877 -1.708683,25.896163 6.834732,41.890641 18.6417,49.331539 6.153028,3.87953 13.212207,5.44347 20.148764,4.87854 6.956039,-0.56489 13.790651,-3.26797 19.491441,-7.92242 C 83.436534,91.034824 90.234336,74.555121 85.304409,52.001748 Z M 12.137935,51.18026 c -0.616235,0.172733 -1.087763,0.718945 -1.139106,1.395917 -0.210081,2.754425 -0.303457,5.406069 -0.294111,7.955051 C 9.4395493,60.20443 8.1417533,60.097059 6.8672624,60.227771 5.8308541,60.335142 4.8130661,60.596578 3.8514612,61.021412 -1.4379622,40.834404 5.802876,25.848619 18.132118,16.759625 26.904162,10.293711 38.229491,6.7690214 49.485263,6.4329497 60.71761,6.0968183 71.856976,8.9353213 80.269524,15.195672 c 11.363095,8.454617 17.753716,23.258503 12.646908,45.050576 -0.05602,-0.0047 -0.112044,-0.01401 -0.16806,-0.01868 -0.975719,-0.09804 -1.965397,-0.06069 -2.945766,0.112044 -0.29411,-3.160532 -0.826327,-6.451811 -1.610682,-9.869178 -0.130724,-0.574226 -0.564892,-1.003721 -1.092424,-1.157786 -3.365976,-1.139106 -6.157689,-2.936444 -8.379921,-5.396747 -2.245537,-2.488269 -3.930915,-5.667564 -5.056015,-9.542428 -0.10737,-0.452848 -0.4155,-0.849668 -0.873009,-1.059749 -0.78898,-0.359472 -1.718005,-0.01401 -2.077501,0.774973 -2.026111,4.407057 -4.425701,7.595674 -7.198771,9.570394 -2.142875,1.521884 -4.537804,2.320233 -7.184787,2.394929 0.844996,-2.791714 1.083091,-5.476104 0.723618,-8.062493 h -0.0047 c -0.06069,-0.452849 -0.322124,-0.87301 -0.737625,-1.125112 -0.737624,-0.448175 -1.704022,-0.21008 -2.152197,0.527545 -1.204456,1.984161 -3.412705,3.393941 -6.899986,4.640466 -3.118583,1.115765 -7.203432,2.068179 -12.413857,3.127904 0.658256,-1.545308 1.08309,-3.137226 1.232422,-4.673212 0.238094,-2.488269 -0.256763,-4.841249 -1.690039,-6.666577 -0.158726,-0.224088 -0.378152,-0.406155 -0.644249,-0.527544 -0.793641,-0.350139 -1.722666,0.0093 -2.07284,0.807647 -1.391256,3.160532 -4.253004,6.86736 -8.001781,10.144656 -3.305263,2.889834 -7.282908,5.424833 -11.521809,6.928072 z m 10.863529,5.560122 c -0.606901,0.620908 -1.596579,0.634915 -2.217571,0.03268 -0.620908,-0.60224 -0.634915,-1.596579 -0.03268,-2.217571 2.586389,-2.661085 5.350137,-4.131578 8.28192,-4.407057 2.9178,-0.275442 5.919618,0.653595 9.000793,2.777731 0.714284,0.490196 0.891678,1.470612 0.401493,2.180163 -0.490196,0.714284 -1.470612,0.891678 -2.180163,0.401494 -2.455642,-1.6947 -4.766553,-2.436998 -6.932733,-2.236216 -2.156859,0.200747 -4.262326,1.358509 -6.311742,3.468638 z m 58.076341,-2.184824 c 0.606901,0.620908 0.588233,1.615343 -0.03267,2.217571 -0.620908,0.606901 -1.615343,0.588233 -2.217571,-0.03267 -2.054196,-2.110129 -4.159664,-3.267974 -6.311741,-3.468637 -2.166181,-0.20542 -4.477092,0.541539 -6.932734,2.236215 -0.714284,0.490196 -1.690039,0.31279 -2.180163,-0.401494 -0.490196,-0.714283 -0.312791,-1.690039 0.401493,-2.180163 3.076514,-2.124112 6.078332,-3.053209 9.000793,-2.77773 2.931783,0.275442 5.69087,1.745971 8.28192,4.407056 z M 47.394149,78.621971 c -0.07937,0.863676 -0.840323,1.498579 -1.704022,1.419222 -0.863676,-0.07937 -1.498579,-0.840323 -1.419222,-1.704022 0.172733,-1.895363 1.059749,-3.580741 2.380946,-4.785197 1.31656,-1.199795 3.062531,-1.92811 4.976658,-1.92811 1.914126,0 3.664758,0.732952 4.976657,1.92811 1.325882,1.209117 2.208249,2.894495 2.380946,4.785197 0.07937,0.863675 -0.560219,1.624665 -1.419222,1.704022 -0.863675,0.07937 -1.624665,-0.560219 -1.704022,-1.419222 -0.09804,-1.08309 -0.611574,-2.049416 -1.372492,-2.745103 -0.756292,-0.68627 -1.760073,-1.106431 -2.861748,-1.106431 -1.106431,0 -2.110129,0.420161 -2.861748,1.106431 -0.765627,0.695604 -1.274491,1.661953 -1.372492,2.745103 z M 8.6741974,83.733918 c 1.6853786,0.261435 3.3939416,0.130723 4.9953016,-0.424835 0.154065,-0.05602 0.298784,-0.130723 0.420162,-0.224087 2.614355,7.787015 6.577898,13.879091 11.353772,18.379964 -4.747908,2.7451 -9.817786,3.74878 -14.612903,3.07185 C 6.6054922,103.94392 2.5813565,102.03922 -0.83134804,98.878572 1.9463824,97.837503 4.1265452,95.984077 5.6998196,93.626556 7.5532334,90.848825 8.5429239,87.380068 8.6690105,83.734073 Z M 7.5724273,80.223212 C 7.4697175,80.185864 7.3670076,80.148516 7.2643098,80.106495 5.4762698,79.38755 3.8282995,78.052298 2.6378266,76.199004 1.2606743,74.056129 0.76576927,71.637895 1.0831969,69.467053 1.3913144,67.370908 2.4603492,65.508172 4.215762,64.378412 c 0.9150185,-0.588233 1.9281097,-0.929026 2.9691909,-1.031735 1.1064311,-0.112044 2.2548593,0.03267 3.3659761,0.4155 0.07002,0.02334 0.144718,0.04202 0.214753,0.05602 0.0747,1.867397 0.20542,3.674081 0.392148,5.429494 -0.490197,-0.275443 -1.036409,-0.555547 -1.6293269,-0.835662 -0.7843067,-0.368806 -1.7180051,-0.03267 -2.0914845,0.751632 -0.3688064,0.784306 -0.032675,1.718005 0.7516317,2.091484 1.199795,0.569553 2.1194507,1.097097 2.7684087,1.577936 0.410827,0.303456 0.672263,0.546212 0.784307,0.723617 0.392147,2.35298 0.887016,4.589076 1.479934,6.708646 -0.196074,-0.0093 -0.392147,0.01868 -0.588233,0.08403 -1.577935,0.550885 -3.3333484,0.490196 -4.9999628,-0.09804 -0.023341,-0.0093 -0.042021,-0.01401 -0.065362,-0.02334 z m 86.8898267,2.366962 c 1.998145,-1.008394 3.80949,-2.600372 5.154016,-4.691857 1.80202,-2.805816 2.44632,-5.994314 2.02145,-8.884148 -0.42951,-2.931783 -1.946754,-5.560122 -4.449126,-7.212872 -0.06069,-0.04668 -0.121378,-0.08403 -0.18674,-0.121378 C 96.525665,61.381135 96.030808,61.129034 95.52192,60.918953 100.95141,37.866014 94.06063,22.109367 81.866319,13.034715 72.954205,6.4007648 61.217989,3.3942857 49.41126,3.74446 37.627956,4.0945984 25.751192,7.7966813 16.540295,14.584684 3.1978186,24.421234 -4.5801129,40.662508 1.4612895,62.520313 c -1.93277074,1.64797 -3.1185827,3.958882 -3.4920621,6.49388 -0.4248342,2.889834 0.2147537,6.078332 2.02144967,8.884148 1.43320473,2.231554 3.39872143,3.888847 5.55079923,4.887859 0.028014,3.389281 -0.7889796,6.610525 -2.4509808,9.098914 -1.5919179,2.385607 -3.98218585,4.103612 -7.1661423,4.621822 -0.2801155,0.04668 -0.5508851,0.16806 -0.7796337,0.368807 -0.6535949,0.569553 -0.7189448,1.559291 -0.1447188,2.21291 4.27164791,4.873877 9.6683944,7.754387 15.4016913,8.562057 5.737599,0.80764 11.797287,-0.47619 17.385614,-3.93092 0.05136,-0.0327 0.10271,-0.0654 0.149392,-0.10271 1.003721,0.78898 2.035433,1.52189 3.095158,2.18483 6.755256,4.25766 14.481439,5.97566 22.068149,5.35945 6.993446,-0.56955 13.874311,-3.11858 19.771102,-7.49289 5.490207,3.28196 11.358434,4.55179 16.918317,3.81882 5.64892,-0.74229 10.956986,-3.54812 15.214056,-8.398566 0.56955,-0.653595 0.5042,-1.643309 -0.14472,-2.21291 -0.22876,-0.200746 -0.49953,-0.322124 -0.77963,-0.368806 -3.18396,-0.522871 -5.574227,-2.236215 -7.166146,-4.626483 -1.690039,-2.534999 -2.507032,-5.83094 -2.44632,-9.290255 z M 75.484722,101.54858 c 5.102624,-4.500392 9.27161,-10.499486 11.829914,-17.870834 1.31656,0.256763 2.679729,0.242756 4.019594,-0.0093 0.116717,3.66942 1.106431,7.166143 2.973852,9.962518 1.573274,2.357641 3.753438,4.210935 6.531168,5.252016 -3.370636,3.11858 -7.310873,4.94857 -11.451774,5.49486 -4.533143,0.59757 -9.327662,-0.34546 -13.898213,-2.82446 z M 30.844077,61.119592 c 2.49293,0 4.514379,2.703035 4.514379,6.036383 0,3.333348 -2.021449,6.036383 -4.514379,6.036383 -2.49293,0 -4.51438,-2.703035 -4.51438,-6.036383 0,-3.333348 2.02145,-6.036383 4.51438,-6.036383 z m 41.572736,0 c 2.49293,0 4.514379,2.703035 4.514379,6.036383 0,3.333348 -2.021449,6.036383 -4.514379,6.036383 -2.49293,0 -4.51438,-2.703035 -4.51438,-6.036383 0,-3.333348 2.02145,-6.036383 4.51438,-6.036383 z"
       fill-rule="evenodd"
       id="path1"
       style="stroke-width:1.19513" /></g></svg>
