<?xml version="1.0" encoding="UTF-8" standalone="no"?>
<svg
   version="1.1"
   x="0px"
   y="0px"
   viewBox="0 0 68 68"
   xml:space="preserve"
   id="svg2"
   sodipodi:docname="layer.svg"
   inkscape:version="1.4 (e7c3feb100, 2024-10-09)"
   width="68"
   height="68"
   xmlns:inkscape="http://www.inkscape.org/namespaces/inkscape"
   xmlns:sodipodi="http://sodipodi.sourceforge.net/DTD/sodipodi-0.dtd"
   xmlns="http://www.w3.org/2000/svg"
   xmlns:svg="http://www.w3.org/2000/svg"><defs
     id="defs2" /><sodipodi:namedview
     id="namedview2"
     pagecolor="#ffffff"
     bordercolor="#000000"
     borderopacity="0.25"
     inkscape:showpageshadow="2"
     inkscape:pageopacity="0.0"
     inkscape:pagecheckerboard="0"
     inkscape:deskcolor="#d1d1d1"
     inkscape:zoom="8.3268894"
     inkscape:cx="32.905445"
     inkscape:cy="38.910088"
     inkscape:window-width="1920"
     inkscape:window-height="1131"
     inkscape:window-x="0"
     inkscape:window-y="32"
     inkscape:window-maximized="1"
     inkscape:current-layer="svg2" /><path
     id="path2"
     style="fill:#1c71d8;stroke:#1c71d8;stroke-width:2;stroke-dasharray:none"
     d="M 34.005859 3.1289062 C 33.645857 3.128771 33.323648 3.1408391 32.974609 3.1464844 C 30.992122 3.1566699 30.138651 3.1983678 29.0625 3.4003906 C 25.391374 4.0895605 22.07759 5.2568787 19.216797 6.8691406 C 17.62728 7.7649469 15.774601 8.9655063 14.935547 9.6425781 L 14.257812 10.189453 L 15.160156 11.21875 C 16.954778 13.269875 17.121631 13.644428 16.767578 14.800781 C 16.309881 16.295634 14.601749 19.410657 13.636719 20.509766 C 12.905357 21.342741 12.62739 21.089962 12.009766 19.035156 C 11.527132 17.429453 11.342089 17.113281 10.888672 17.113281 C 10.229002 17.113281 8.7798831 18.318954 8.28125 19.283203 C 7.9714427 19.882305 8.1092513 20.6579 9.0644531 23.708984 C 9.52824 25.190401 9.9082031 26.571351 9.9082031 26.777344 C 9.9082031 27.464689 8.6091345 28.433717 5.1660156 30.316406 C 4.1799162 30.855602 3.3031828 31.357496 3.2050781 31.4375 C 3.204773 31.437749 3.1995087 31.441166 3.1992188 31.441406 L 3.1914062 31.445312 L 3.1875 31.466797 C 3.1091354 31.553269 3.0842868 32.004348 3.0820312 32.748047 C 3.0685144 33.420326 3.0830844 34.321879 3.1269531 35.34375 C 3.2189376 38.288765 3.4110247 39.855675 3.7421875 40.179688 C 3.7479275 40.185304 3.7920678 40.205989 3.8007812 40.212891 C 3.8960649 40.308326 4.0596985 40.392846 4.2402344 40.470703 C 4.5795936 40.652389 5.0123563 40.868945 5.5234375 41.099609 C 7.5228095 42.001979 8.7416399 42.716615 9.1171875 43.208984 C 9.3881922 43.564289 9.5431828 43.988416 10.289062 46.416016 C 10.565219 47.314815 10.905715 47.917262 11.273438 48.158203 C 11.414778 48.250813 12.178286 48.549527 12.970703 48.822266 C 14.627126 49.392386 15.504362 49.83471 15.763672 50.230469 C 16.146269 50.814384 15.816941 52.854411 14.765625 56.396484 C 14.538152 57.162882 14.351562 57.823744 14.351562 57.865234 C 14.351562 57.867604 14.37731 57.887176 14.378906 57.890625 L 14.378906 57.892578 L 14.388672 57.900391 C 14.497211 58.09195 16.510587 59.567799 17.654297 60.289062 C 19.216624 61.274321 22.095012 62.64695 23.898438 63.265625 C 25.865703 63.940506 27.177837 64.26981 29.302734 64.625 C 30.443799 64.815738 30.96741 64.873703 32.386719 64.873047 C 32.886434 64.877789 33.466254 64.87124 34.136719 64.855469 C 34.218953 64.854233 34.259342 64.854857 34.345703 64.853516 C 34.423052 64.852314 34.466039 64.84891 34.541016 64.847656 C 34.6685 64.844044 34.774044 64.84401 34.902344 64.839844 C 38.010818 64.779437 39.089949 64.650794 41.371094 64.070312 C 45.021128 63.141492 48.029607 61.813201 51.039062 59.802734 C 55.626413 56.738151 59.154607 52.785502 61.619141 47.945312 C 63.670381 43.916803 64.657351 40.156576 64.964844 35.199219 L 65.037109 34.011719 L 64.21875 34.087891 C 63.768144 34.129771 62.96902 34.271649 62.443359 34.404297 C 61.1028 34.742579 60.771663 35.112446 60.167969 36.935547 C 59.675437 38.422945 59.369307 38.970703 59.035156 38.970703 C 58.628417 38.970703 58.46196 38.679274 56.794922 35.089844 C 56.248743 33.913827 55.653925 32.760488 55.474609 32.525391 C 55.22291 32.1954 55.145655 32.124641 54.832031 32.146484 C 54.685249 32.128079 54.519488 32.147766 54.332031 32.199219 C 53.987099 32.240888 53.537149 32.291619 53.201172 32.322266 L 52.494141 32.386719 C 52.486589 32.383931 52.478098 32.381835 52.470703 32.378906 L 51.519531 31.539062 C 51.229826 31.283292 50.972443 31.079501 50.787109 30.949219 C 50.616585 30.806105 50.5 30.720798 50.5 30.759766 C 50.5 30.763081 50.520603 30.807334 50.521484 30.8125 C 50.521164 30.813091 50.51781 30.811827 50.517578 30.8125 C 50.494832 30.878576 50.699536 31.441696 50.972656 32.064453 C 51.633034 33.570222 51.939453 34.482033 51.939453 34.941406 C 51.939453 35.470822 51.40424 36.258547 50.443359 37.138672 C 49.176536 38.299026 48.295977 38.445888 47.722656 37.589844 C 47.328711 37.001634 46.540122 35.228179 45.748047 33.146484 L 45.154297 31.583984 L 45.150391 31.710938 L 45.103516 31.583984 L 45.099609 32.724609 C 45.098958 32.937781 45.110273 33.236674 45.119141 33.515625 C 45.115631 35.208823 45.295946 37.595233 45.521484 38.583984 C 45.85757 40.057384 46.137692 40.310622 47.748047 40.59375 C 48.274217 40.68626 48.756093 40.794294 48.820312 40.833984 C 48.88453 40.873672 48.9375 41.096508 48.9375 41.330078 C 48.9375 41.709923 48.788788 41.910446 47.517578 43.21875 L 46.095703 44.679688 L 46.015625 45.878906 C 45.972005 46.53777 45.93589 47.349758 45.935547 47.683594 C 45.935074 48.146692 45.852302 48.421787 45.585938 48.841797 C 45.080735 49.638419 43.755805 51.125493 41.566406 53.351562 L 39.646484 55.302734 L 38.857422 55.300781 C 37.078404 55.298134 35.391723 53.821407 34.355469 51.359375 C 33.944681 50.383389 33.965109 49.85958 34.466797 48.560547 C 34.659559 48.061422 34.796373 47.541602 34.845703 47.208984 C 34.854397 47.15414 34.886719 47.058617 34.886719 47.019531 C 34.886719 47.015581 34.882884 47.007943 34.882812 47.003906 C 34.882879 47.000173 34.886719 46.989906 34.886719 46.986328 C 34.886719 45.7202 31.805087 41.011719 30.976562 41.011719 C 30.848094 41.011719 29.987007 41.227983 29.0625 41.492188 C 28.137993 41.756392 27.237492 41.972656 27.060547 41.972656 C 26.296677 41.972656 23.928403 40.399307 22.707031 39.080078 L 22.037109 38.355469 L 22.037109 35.066406 L 22.037109 31.84375 C 22.045106 31.818958 22.051585 31.774086 22.060547 31.759766 L 22.589844 31.394531 C 23.803204 30.559718 28.366227 28.517808 31.265625 27.511719 C 32.902844 26.9436 33.258498 26.950447 34.025391 27.556641 C 34.355812 27.817824 34.664257 28.092439 34.710938 28.167969 C 34.757617 28.243499 35.043431 28.462602 35.345703 28.654297 L 35.894531 29.001953 L 39.345703 29.001953 C 41.499585 29.001953 42.567581 28.992641 43.105469 28.849609 C 43.173961 28.832744 43.228744 28.807957 43.271484 28.785156 C 43.569377 28.655384 43.637469 28.442181 43.646484 28.103516 C 43.648094 28.082765 43.64776 28.063884 43.648438 28.042969 C 43.648777 28.017014 43.65224 27.998091 43.652344 27.970703 C 43.652634 27.893086 43.634465 27.840902 43.626953 27.775391 C 43.621893 27.745067 43.622415 27.714989 43.615234 27.685547 C 43.581329 27.509836 43.514354 27.365728 43.380859 27.265625 C 43.32162 27.217112 43.239097 27.178698 43.134766 27.148438 C 42.951847 27.077051 42.731115 27.016433 42.408203 26.970703 C 41.375231 26.824416 41.011719 26.599806 41.011719 26.101562 C 41.011719 25.780962 41.224356 25.517444 42.5 24.271484 C 42.730314 24.04653 42.881667 23.888995 43.056641 23.710938 C 43.544625 23.255078 43.860844 22.902289 43.984375 22.640625 C 44.129771 22.39085 44.125542 22.231298 44.009766 22.091797 C 43.987536 22.065012 43.953466 22.050371 43.925781 22.029297 C 43.912299 22.014586 43.894419 22.003402 43.878906 21.992188 C 43.859088 21.980695 43.840375 21.968124 43.818359 21.958984 C 43.802131 21.952653 43.776966 21.947577 43.757812 21.943359 C 43.549036 21.880038 43.256293 21.909731 42.892578 22.023438 C 42.770907 22.059566 42.628879 22.12077 42.482422 22.189453 C 42.062405 22.365261 41.595919 22.597551 41.044922 22.949219 C 40.136112 23.529258 39.255777 23.958984 38.970703 23.958984 C 38.657023 23.958984 37.75444 23.504112 36.513672 22.71875 C 35.930131 22.34939 35.573792 22.138239 35.191406 22.113281 C 35.025208 22.086824 34.867564 22.125732 34.703125 22.183594 C 34.220459 22.330479 33.594102 22.712595 32.476562 23.416016 C 28.659324 25.81873 28.544909 25.880859 27.919922 25.880859 C 26.892125 25.880859 26.067261 25.08427 26.082031 24.105469 C 26.0978 23.060151 27.439281 20.260724 28.332031 19.410156 L 28.703125 19.058594 L 31.34375 18.929688 C 34.135253 18.794103 35.87363 18.557498 36.568359 18.21875 C 37.161396 17.929587 37.47226 17.306048 37.576172 16.289062 C 37.591962 16.16584 37.615425 16.051605 37.623047 15.919922 C 37.642915 15.57672 37.641967 15.31286 37.617188 15.089844 C 37.589466 14.650857 37.504425 14.391154 37.335938 14.255859 C 37.333116 14.253593 37.330993 14.250246 37.328125 14.248047 C 37.232362 14.115434 37.12574 14.10548 36.839844 14.140625 C 36.788804 14.146899 36.640951 14.194991 36.548828 14.21875 C 36.169041 14.30224 35.658479 14.441166 35.056641 14.648438 C 33.732614 15.104433 33.320303 15.197529 32.753906 15.167969 C 32.139616 15.135914 32.060071 15.10187 32.025391 14.857422 C 31.963749 14.422867 32.536262 13.586613 33.667969 12.455078 C 34.949155 11.174087 36.080927 10.309292 36.667969 10.162109 C 36.910741 10.101242 38.43253 10.022066 40.050781 9.9863281 C 42.177297 9.9393653 43.158138 9.8714561 43.585938 9.7402344 C 43.649376 9.7207755 43.863853 9.6032482 43.994141 9.5410156 C 43.997149 9.5395785 44.000867 9.5385666 44.003906 9.5371094 C 44.021293 9.5293695 44.042955 9.5158766 44.060547 9.5078125 C 45.205062 8.9479965 48.106025 7.246177 48.337891 6.9667969 C 48.367485 6.9311378 48.374374 6.8996695 48.388672 6.8671875 C 48.454667 6.7978084 48.476191 6.7488953 48.451172 6.71875 C 48.439806 6.7050553 48.393919 6.6786809 48.369141 6.6601562 C 48.287047 6.5503476 48.097476 6.4290564 47.757812 6.2578125 C 45.648731 5.1945013 42.040405 4.0102552 39.220703 3.4570312 C 37.728998 3.1643593 37.354212 3.1391821 34.289062 3.1347656 C 34.190739 3.1342961 34.104373 3.1289433 34.005859 3.1289062 z " /><path
     d="M 34,0 C 15.3,0 0,15.3 0,34 0,52.7 15.3,68 34,68 52.7,68 68,52.7 68,34 68,15.3 52.7,0 34,0 Z m 0,65 C 26.5,65 19.7,62.4 14.3,57.9 14.9,56.1 16,52.4 16,51 16,49 12,49 11,48 10,47 10,44 9,43 8.2,42.2 5,40.8 3.6,40.3 3.2,38.3 3,36.2 3,34 3,33.1 3,32.3 3.1,31.4 5.3,30.3 10,27.7 10,27 10,26 8,21 8,20 c 0,-1 2,-3 3,-3 1,0 1,4 2,4 1,0 4,-6 4,-7 0,-0.9 -2.2,-3.2 -2.8,-3.8 C 19.6,5.7 26.5,3 34,3 39.4,3 44.4,4.4 48.8,6.8 47,7.9 43.7,10 43,10 c -1,0 -5,0 -6,0 -1,0 -5.7,4.3 -5,5 1,1 4,-1 5,-1 1,0 1,3 0,4 -1,1 -7,1 -8,1 -1,0 -3,4 -3,5 0,1 1,2 2,2 1,0 6,-4 7,-4 1,0 3,2 4,2 1,0 4,-3 5,-2 1,1 -3,3 -3,4 0,1 1,1 2,1 1,0 1,2 0,2 -1,0 -6,0 -7,0 -1,0 -2,-2 -3,-2 -1,0 -11,4 -11,5 0,1 0,5 0,6 0,1 4,4 5,4 1,0 3,-1 4,-1 1,0 4,5 4,6 0,1 -1,2 -1,3 0,1 1,3 2,4 1,1 3,2 4,1 1,-1 6,-6 6,-7 0,-1 0,-2 0,-3 0,-1 3.5,-2.8 3,-4 -0.3,-0.7 -2,0 -3,-1 -1,-1 -1,-9 -1,-9 0,0 2,6 3,7 1,1 4,-2 4,-3 0,-1 -2,-5 -2,-5 0,0 1,1 2,2 1,1 2,0 3,0 1,0 3,7 4,7 1,0 1,-3 2,-4 0.7,-0.7 2.7,-0.9 4,-1 0,17.1 -13.9,31 -31,31 z"
     id="path1"
     style="fill:#2ec27e;stroke:#2ec27e;stroke-width:0;stroke-dasharray:none" /><path
     id="path3"
     style="fill:#3d3846;stroke:#33d17a;stroke-width:0;stroke-dasharray:none"
     d="M 33.998919,0.00108201 A 33.999548,33.999548 0 0 0 5.0000004e-7,33.999999 33.999548,33.999548 0 0 0 33.998919,67.998918 33.999548,33.999548 0 0 0 68,33.999999 33.999548,33.999548 0 0 0 33.998919,0.00108201 Z m 0,3.32567529 A 30.673464,30.673464 0 0 1 64.672161,33.999999 30.673464,30.673464 0 0 1 33.998919,64.673241 30.673464,30.673464 0 0 1 3.3256757,33.999999 30.673464,30.673464 0 0 1 33.998919,3.3267573 Z" /></svg>
