<?xml version="1.0" encoding="UTF-8" standalone="no"?>
<svg
   version="1.1"
   x="0px"
   y="0px"
   viewBox="0 0 90 90"
   enable-background="new 0 0 100 100"
   xml:space="preserve"
   id="svg2"
   sodipodi:docname="mirino_2.svg"
   width="90"
   height="90"
   inkscape:version="1.4 (e7c3feb100, 2024-10-09)"
   xmlns:inkscape="http://www.inkscape.org/namespaces/inkscape"
   xmlns:sodipodi="http://sodipodi.sourceforge.net/DTD/sodipodi-0.dtd"
   xmlns="http://www.w3.org/2000/svg"
   xmlns:svg="http://www.w3.org/2000/svg"><defs
     id="defs2" /><sodipodi:namedview
     id="namedview2"
     pagecolor="#ffffff"
     bordercolor="#000000"
     borderopacity="0.25"
     inkscape:showpageshadow="2"
     inkscape:pageopacity="0.0"
     inkscape:pagecheckerboard="0"
     inkscape:deskcolor="#d1d1d1"
     inkscape:zoom="4.2992092"
     inkscape:cx="55.359018"
     inkscape:cy="51.870004"
     inkscape:window-width="1680"
     inkscape:window-height="1013"
     inkscape:window-x="0"
     inkscape:window-y="0"
     inkscape:window-maximized="1"
     inkscape:current-layer="svg2" /><path
     d="M 45,0 C 57.434,0 68.033,4.4 76.8,13.201 85.601,22 90,32.602 90,45 90,57.434 85.601,68.035 76.8,76.801 68.033,85.602 57.434,90 45,90 32.601,90 22,85.602 13.2,76.801 4.399,68.035 0,57.434 0,45 0,32.602 4.399,22 13.2,13.201 22,4.4 32.601,0 45,0 Z"
     id="path5"
     style="fill:#3366cc" /><path
     d="M 68.399,21.65 C 61.934,15.184 54.134,11.951 45,11.951 c -9.134,0 -16.917,3.232 -23.351,9.699 -6.465,6.434 -9.699,14.217 -9.699,23.35 0,9.135 3.233,16.934 9.699,23.4 6.434,6.434 14.217,9.65 23.351,9.65 9.134,0 16.934,-3.217 23.399,-9.65 6.434,-6.467 9.65,-14.266 9.65,-23.4 10e-4,-9.133 -3.216,-16.916 -9.65,-23.35 z"
     id="path4"
     style="fill:#cc0000" /><path
     d="m 45,17.951 c 7.467,0 13.851,2.633 19.149,7.9 5.268,5.299 7.9,11.684 7.9,19.148 0,7.467 -2.633,13.852 -7.9,19.15 -5.299,5.268 -11.683,7.9 -19.149,7.9 -7.466,0 -13.851,-2.633 -19.149,-7.9 -5.268,-5.299 -7.9,-11.684 -7.9,-19.15 0,-7.465 2.633,-13.85 7.9,-19.148 5.298,-5.267 11.682,-7.9 19.149,-7.9 z"
     id="path3"
     style="fill:#cc0000" /><path
     d="m 55.7,34.301 c -2.967,-2.934 -6.533,-4.4 -10.7,-4.4 -4.2,0 -7.783,1.467 -10.75,4.4 -2.967,2.967 -4.45,6.533 -4.45,10.699 0,4.168 1.483,7.734 4.45,10.701 2.967,2.934 6.55,4.4 10.75,4.4 4.167,0 7.733,-1.467 10.7,-4.4 2.934,-2.967 4.4,-6.533 4.4,-10.701 10e-4,-4.166 -1.466,-7.732 -4.4,-10.699 z"
     id="path2"
     style="fill:#ffcc00" /><path
     d="m 51.5,38.5 c 1.733,1.801 2.601,3.967 2.601,6.5 0,2.535 -0.867,4.701 -2.601,6.5 -1.8,1.734 -3.967,2.602 -6.5,2.602 -2.566,0 -4.733,-0.867 -6.5,-2.602 -1.8,-1.799 -2.7,-3.965 -2.7,-6.5 0,-2.533 0.9,-4.699 2.7,-6.5 1.767,-1.799 3.934,-2.699 6.5,-2.699 2.533,0 4.7,0.9 6.5,2.699 z"
     id="path1"
     style="fill:#ffcc00" /></svg>
