<?xml version="1.0" encoding="UTF-8" standalone="no"?>
<svg
   version="1.1"
   viewBox="0 0 32 32"
   x="0px"
   y="0px"
   id="svg2"
   sodipodi:docname="mirino.svg"
   width="32"
   height="32"
   xml:space="preserve"
   inkscape:version="1.4 (e7c3feb100, 2024-10-09)"
   xmlns:inkscape="http://www.inkscape.org/namespaces/inkscape"
   xmlns:sodipodi="http://sodipodi.sourceforge.net/DTD/sodipodi-0.dtd"
   xmlns="http://www.w3.org/2000/svg"
   xmlns:svg="http://www.w3.org/2000/svg"
   xmlns:rdf="http://www.w3.org/1999/02/22-rdf-syntax-ns#"
   xmlns:cc="http://creativecommons.org/ns#"
   xmlns:dc="http://purl.org/dc/elements/1.1/"><defs
     id="defs2" /><sodipodi:namedview
     id="namedview2"
     pagecolor="#ffffff"
     bordercolor="#000000"
     borderopacity="0.25"
     inkscape:showpageshadow="2"
     inkscape:pageopacity="0.0"
     inkscape:pagecheckerboard="0"
     inkscape:deskcolor="#d1d1d1"
     inkscape:zoom="7.0710678"
     inkscape:cx="1.979899"
     inkscape:cy="22.91026"
     inkscape:window-width="1920"
     inkscape:window-height="1011"
     inkscape:window-x="0"
     inkscape:window-y="0"
     inkscape:window-maximized="1"
     inkscape:current-layer="svg2" /><title
     id="title1">target</title><path
     d="M 16,0 C 7.177,0 0,7.177 0,16 0,24.823 7.177,32 16,32 24.823,32 32,24.823 32,16 32,7.177 24.823,0 16,0 Z m 0,2.286 C 23.588,2.286 29.714,8.412 29.714,16 29.714,23.588 23.588,29.714 16,29.714 8.412,29.714 2.286,23.588 2.286,16 2.286,8.412 8.412,2.286 16,2.286 Z m 0,2.285 C 9.702,4.571 4.571,9.701 4.571,16 4.571,22.299 9.701,27.429 16,27.429 22.298,27.429 27.429,22.299 27.429,16 27.429,9.701 22.299,4.571 16,4.571 Z m 0,2.286 c 5.063,0 9.143,4.08 9.143,9.143 0,5.063 -4.08,9.143 -9.143,9.143 -5.063,0 -9.143,-4.08 -9.143,-9.143 0,-5.063 4.08,-9.143 9.143,-9.143 z m 0,2.286 c -3.774,0 -6.857,3.083 -6.857,6.857 0,3.774 3.083,6.857 6.857,6.857 3.774,0 6.857,-3.083 6.857,-6.857 0,-3.774 -3.083,-6.857 -6.857,-6.857 z m 0,2.286 c 2.538,0 4.571,2.033 4.571,4.571 0,2.538 -2.033,4.571 -4.571,4.571 -2.538,0 -4.571,-2.033 -4.571,-4.571 0,-2.538 2.033,-4.571 4.571,-4.571 z"
     id="path1" /><metadata
     id="metadata20"><rdf:RDF><cc:Work
         rdf:about=""><dc:title>target</dc:title></cc:Work></rdf:RDF></metadata></svg>
