<?xml version="1.0" encoding="UTF-8" standalone="no"?>
<svg
   version="1.1"
   x="0px"
   y="0px"
   viewBox="0 0 82.5 39"
   xml:space="preserve"
   id="svg2"
   sodipodi:docname="off.svg"
   inkscape:version="1.4 (e7c3feb100, 2024-10-09)"
   width="82.5"
   height="39"
   xmlns:inkscape="http://www.inkscape.org/namespaces/inkscape"
   xmlns:sodipodi="http://sodipodi.sourceforge.net/DTD/sodipodi-0.dtd"
   xmlns="http://www.w3.org/2000/svg"
   xmlns:svg="http://www.w3.org/2000/svg"><defs
     id="defs2" /><sodipodi:namedview
     id="namedview2"
     pagecolor="#ffffff"
     bordercolor="#000000"
     borderopacity="0.25"
     inkscape:showpageshadow="2"
     inkscape:pageopacity="0.0"
     inkscape:pagecheckerboard="0"
     inkscape:deskcolor="#d1d1d1"
     inkscape:zoom="4.1634447"
     inkscape:cx="35.067116"
     inkscape:cy="57.88476"
     inkscape:window-width="1920"
     inkscape:window-height="1131"
     inkscape:window-x="0"
     inkscape:window-y="32"
     inkscape:window-maximized="1"
     inkscape:current-layer="svg2" /><path
     id="path3"
     style="fill:#ffffff;stroke:#ffffff;stroke-width:2;stroke-dasharray:none"
     d="m 21.01875,5.189453 c -0.775891,0.01532 -1.567929,0.126525 -2.578125,0.337891 -4.870748,1.019117 -8.999464,4.63027 -10.732422,9.384765 -0.703815,1.930964 -0.876819,5.909087 -0.347656,7.97461 1.299111,5.070927 5.539976,9.307068 10.53125,10.515625 1.606782,0.389055 4.590386,0.42693 6.242187,0.08008 2.725543,-0.572322 6.032351,-2.513812 7.876954,-4.623047 C 33.105356,27.60795 34.4225,25.25256 34.913281,23.666018 37.445398,15.480487 32.142593,7.005513 23.501172,5.427734 22.555095,5.254997 21.794641,5.174133 21.01875,5.189453 Z" /><path
     d="M 63.1,0 H 19.5 C 8.8,0 0,8.8 0,19.5 0,30.2 8.8,39 19.5,39 H 63 C 73.7,39 82.5,30.2 82.5,19.5 82.5,8.8 73.8,0 63.1,0 Z M 21.2,33.9 c -8,0 -14.4,-6.5 -14.4,-14.4 0,-7.9 6.5,-14.4 14.4,-14.4 7.9,0 14.5,6.4 14.5,14.4 0,8 -6.5,14.4 -14.5,14.4 z"
     id="path1"
     style="fill:#c0bfbc" /></svg>
