<?xml version="1.0" encoding="UTF-8" standalone="no"?>
<svg
   version="1.1"
   x="0px"
   y="0px"
   viewBox="0 0 82.5 39"
   xml:space="preserve"
   id="svg2"
   sodipodi:docname="on.svg"
   inkscape:version="1.4 (e7c3feb100, 2024-10-09)"
   width="82.5"
   height="39"
   xmlns:inkscape="http://www.inkscape.org/namespaces/inkscape"
   xmlns:sodipodi="http://sodipodi.sourceforge.net/DTD/sodipodi-0.dtd"
   xmlns="http://www.w3.org/2000/svg"
   xmlns:svg="http://www.w3.org/2000/svg"><defs
     id="defs2" /><sodipodi:namedview
     id="namedview2"
     pagecolor="#ffffff"
     bordercolor="#000000"
     borderopacity="0.25"
     inkscape:showpageshadow="2"
     inkscape:pageopacity="0.0"
     inkscape:pagecheckerboard="0"
     inkscape:deskcolor="#d1d1d1"
     inkscape:zoom="2.944"
     inkscape:cx="41.100544"
     inkscape:cy="49.252717"
     inkscape:window-width="1920"
     inkscape:window-height="1131"
     inkscape:window-x="0"
     inkscape:window-y="32"
     inkscape:window-maximized="1"
     inkscape:current-layer="svg2" /><path
     id="path2"
     style="fill:#ffffff;stroke:#ffffff;stroke-width:2;stroke-dasharray:none"
     d="M 61.428906,5.335938 C 56.16244,5.319648 51.01793,8.236866 48.512891,13.318359 c -2.689273,5.455212 -1.599997,11.825786 2.769531,16.195313 1.853283,1.853284 5.145135,3.570352 7.685547,4.007812 4.626012,0.796602 10.208479,-1.278097 13.171875,-4.894531 0.644604,-0.786656 1.598359,-2.335487 2.117187,-3.443359 0.852064,-1.819444 0.94336,-2.377007 0.94336,-5.751953 0,-3.348245 -0.09543,-3.938429 -0.916016,-5.689453 C 73.23046,11.493281 70.486789,8.440246 68.448438,7.248047 66.240985,5.956943 63.822755,5.343343 61.428906,5.335938 Z" /><path
     d="M 19.4,39 H 63 C 73.7,39 82.5,30.2 82.5,19.5 82.5,8.8 73.7,0 63,0 H 19.5 C 8.8,0 0,8.8 0,19.5 0,30.2 8.7,39 19.4,39 Z M 61.3,5.1 c 8,0 14.4,6.5 14.4,14.4 0,7.9 -6.5,14.4 -14.4,14.4 -7.9,0 -14.5,-6.4 -14.5,-14.4 0,-8 6.5,-14.4 14.5,-14.4 z"
     id="path1"
     style="fill:#33d17a" /></svg>
