<?xml version="1.0" encoding="UTF-8" standalone="no"?>
<svg
   viewBox="0 0 15.734 19.035999"
   version="1.1"
   xml:space="preserve"
   x="0px"
   y="0px"
   fill-rule="evenodd"
   clip-rule="evenodd"
   stroke-linejoin="round"
   stroke-miterlimit="2"
   id="svg2"
   sodipodi:docname="pausa.svg"
   width="15.734"
   height="19.035999"
   inkscape:version="1.4 (e7c3feb100, 2024-10-09)"
   xmlns:inkscape="http://www.inkscape.org/namespaces/inkscape"
   xmlns:sodipodi="http://sodipodi.sourceforge.net/DTD/sodipodi-0.dtd"
   xmlns="http://www.w3.org/2000/svg"
   xmlns:svg="http://www.w3.org/2000/svg"><defs
     id="defs2" /><sodipodi:namedview
     id="namedview2"
     pagecolor="#ffffff"
     bordercolor="#000000"
     borderopacity="0.25"
     inkscape:showpageshadow="2"
     inkscape:pageopacity="0.0"
     inkscape:pagecheckerboard="0"
     inkscape:deskcolor="#d1d1d1"
     inkscape:zoom="6.1333333"
     inkscape:cx="23.641304"
     inkscape:cy="47.771739"
     inkscape:window-width="1920"
     inkscape:window-height="1131"
     inkscape:window-x="0"
     inkscape:window-y="32"
     inkscape:window-maximized="1"
     inkscape:current-layer="svg2" /><path
     d="M 5.885,19.036 H 0.635 C 0.58,19.028 0.524,19.028 0.471,19.014 0.254,18.956 0.078,18.777 0.022,18.565 0.007,18.512 0.007,18.456 0,18.401 V 0.635 C 0.015,0.525 0.03,0.413 0.085,0.318 0.169,0.173 0.312,0.065 0.471,0.022 0.524,0.008 0.58,0.008 0.635,0 h 5.25 C 5.94,0.008 5.994,0.015 6.049,0.022 6.152,0.065 6.256,0.109 6.334,0.186 6.413,0.265 6.469,0.363 6.498,0.471 6.512,0.524 6.512,0.58 6.52,0.635 V 18.401 C 6.498,18.567 6.449,18.734 6.334,18.85 6.255,18.928 6.157,18.985 6.049,19.014 5.996,19.028 5.94,19.028 5.885,19.036 Z m 9.214,0 H 9.849 C 9.739,19.021 9.627,19.006 9.532,18.951 9.386,18.867 9.279,18.724 9.236,18.565 9.222,18.512 9.222,18.456 9.214,18.401 V 0.635 C 9.236,0.469 9.285,0.302 9.4,0.186 9.479,0.108 9.577,0.051 9.685,0.022 9.738,0.008 9.794,0.008 9.849,0 h 5.25 c 0.055,0.008 0.11,0.015 0.164,0.022 0.051,0.021 0.106,0.036 0.153,0.063 0.146,0.084 0.254,0.227 0.296,0.386 0.015,0.053 0.015,0.109 0.022,0.164 v 17.766 c -0.022,0.166 -0.071,0.333 -0.186,0.449 -0.079,0.078 -0.177,0.135 -0.285,0.164 -0.053,0.014 -0.109,0.014 -0.164,0.022 z"
     id="path1"
     style="fill:#e01b24" /></svg>
