<?xml version="1.0" encoding="UTF-8" standalone="no"?>
<svg
   version="1.1"
   viewBox="-5 -10 62.133202 80.155785"
   id="svg2"
   sodipodi:docname="pin.svg"
   inkscape:version="1.4 (e7c3feb100, 2024-10-09)"
   width="62.133202"
   height="80.155785"
   xmlns:inkscape="http://www.inkscape.org/namespaces/inkscape"
   xmlns:sodipodi="http://sodipodi.sourceforge.net/DTD/sodipodi-0.dtd"
   xmlns="http://www.w3.org/2000/svg"
   xmlns:svg="http://www.w3.org/2000/svg">
  <defs
     id="defs2" />
  <sodipodi:namedview
     id="namedview2"
     pagecolor="#ffffff"
     bordercolor="#000000"
     borderopacity="0.25"
     inkscape:showpageshadow="2"
     inkscape:pageopacity="0.0"
     inkscape:pagecheckerboard="0"
     inkscape:deskcolor="#d1d1d1"
     inkscape:zoom="5.9259259"
     inkscape:cx="31.05"
     inkscape:cy="47.5875"
     inkscape:window-width="1920"
     inkscape:window-height="1011"
     inkscape:window-x="0"
     inkscape:window-y="0"
     inkscape:window-maximized="1"
     inkscape:current-layer="svg2" />
  <path
     id="path2"
     style="fill:#ffffff;stroke:#ffffff;stroke-width:2;stroke-dasharray:none"
     d="M 31.052734 16.982422 C 29.79594 16.982151 28.536817 17.107874 27.589844 17.357422 C 22.626196 18.665451 18.708404 22.588398 17.361328 27.599609 C 16.855138 29.48267 16.855443 32.616271 17.361328 34.498047 C 18.812541 39.896226 23.167638 43.998261 28.462891 44.955078 C 39.878478 47.0178 48.81809 35.282195 43.728516 24.914062 C 41.861494 21.110692 38.606928 18.441567 34.509766 17.357422 C 33.565167 17.107457 32.309529 16.982692 31.052734 16.982422 z "
     transform="translate(-5,-10)" />
  <path
     d="M -4.9988,21.066 C -4.9988,3.91 8.9112,-10 26.0672,-10 c 17.156,0 31.066,13.91 31.066,31.066 0,16.758 -17.695,37.32 -29.676,48.539 -0.78516,0.73438 -1.9961,0.73438 -2.7812,0 C 12.696,58.386 -5,37.824 -5,21.066 Z M 26.0672,6.832 c -7.8594,0 -14.234,6.3711 -14.234,14.234 0,7.8594 6.3711,14.234 14.234,14.234 7.8594,0 14.234,-6.3711 14.234,-14.234 0,-7.8594 -6.375,-14.234 -14.234,-14.234 z"
     fill-rule="evenodd"
     id="path1"
     style="fill:#e80000" />
</svg>
