<?xml version="1.0" encoding="UTF-8" standalone="no"?>
<svg
   version="1.1"
   viewBox="-5 -10 110 110.02962"
   id="svg18"
   sodipodi:docname="pioggia.svg"
   inkscape:version="1.4 (e7c3feb100, 2024-10-09)"
   width="110"
   height="110.02962"
   xmlns:inkscape="http://www.inkscape.org/namespaces/inkscape"
   xmlns:sodipodi="http://sodipodi.sourceforge.net/DTD/sodipodi-0.dtd"
   xmlns="http://www.w3.org/2000/svg"
   xmlns:svg="http://www.w3.org/2000/svg">
  <defs
     id="defs22" />
  <sodipodi:namedview
     id="namedview20"
     pagecolor="#ffffff"
     bordercolor="#666666"
     borderopacity="1.0"
     inkscape:pageshadow="2"
     inkscape:pageopacity="0.0"
     inkscape:pagecheckerboard="0"
     showgrid="false"
     inkscape:snap-bbox="true"
     inkscape:bbox-paths="true"
     inkscape:bbox-nodes="true"
     inkscape:snap-bbox-edge-midpoints="true"
     inkscape:snap-bbox-midpoints="true"
     inkscape:snap-page="true"
     inkscape:zoom="1.7860994"
     inkscape:cx="5.5987926"
     inkscape:cy="44.790341"
     inkscape:window-width="1536"
     inkscape:window-height="891"
     inkscape:window-x="0"
     inkscape:window-y="0"
     inkscape:window-maximized="1"
     inkscape:current-layer="svg18"
     inkscape:showpageshadow="2"
     inkscape:deskcolor="#d1d1d1" />
  <g
     id="g1"
     transform="translate(0,-12.48519)">
    <path
       id="path1194"
       style="fill:#d3d7cf;fill-rule:evenodd;stroke:#d3d7cf;stroke-width:0.395894;stroke-linecap:round"
       d="m 55.476562,20.46875 c -2.014311,-0.05302 -4.064868,0.218358 -6.08789,0.851562 -2.20535,0.690273 -4.664032,2.000102 -6.544922,3.488282 -3.877157,3.067648 -6.796635,8.387626 -7.134766,13 l -0.109375,1.484375 1.203125,0.753906 c 0.661528,0.414865 1.975485,1.483414 2.919922,2.375 4.787372,4.519458 7.374405,10.374403 7.458985,16.876953 0.02753,2.116327 0.0083,2.229222 -0.564453,3.154297 -0.767225,1.239191 -1.927544,1.878906 -3.402344,1.878906 -1.379704,0 -2.169386,-0.343371 -3.070313,-1.341797 -0.801283,-0.887999 -0.878679,-1.187247 -1.035156,-4.001953 -0.308124,-5.542483 -3.518742,-10.563435 -8.386719,-13.115234 -2.020354,-1.059073 -3.228309,-1.441316 -5.503906,-1.744141 -4.332168,-0.576504 -9.249924,1.15077 -12.542969,4.40625 -5.4339594,5.371974 -6.2366294,13.462741 -1.96875,19.84375 2.21698,3.314661 6.292004,5.97526 10.144531,6.625 0.562346,0.09484 16.16381,0.160432 34.671876,0.144532 37.895097,-0.03253 34.32069,0.11769 37.808593,-1.601563 5.371864,-2.64789 8.622949,-7.87258 8.626949,-13.865234 0.004,-6.046373 -3.224888,-11.289913 -8.582027,-13.9375 -4.076384,-2.014616 -7.591319,-2.251004 -12.082031,-0.8125 -2.993914,0.959035 -4.794925,0.704627 -5.935547,-0.837891 C 74.63982,43.120657 74.584301,42.859675 74.519531,40.183594 74.486591,38.822707 74.310329,36.995967 74.128906,36.125 72.227617,26.997325 64.205245,20.698489 55.476562,20.46875 Z"
       transform="translate(-5,-10)" />
    <path
       d="m 81.429832,26.055991 c -1.414286,0 -2.828572,0.157143 -4.164286,0.392857 C 75.536974,12.934562 63.987602,2.4851904 50.00063,2.4851904 c -13.986971,0 -25.496115,10.4500006 -27.264915,23.9636576 -1.375063,-0.235714 -2.75,-0.392857 -4.164286,-0.392857 C 5.5675432,26.055991 -5,36.623786 -5,49.627421 -5,62.631055 5.5677946,73.19885 18.571429,73.19885 H 81.428574 C 94.432461,73.19885 105,62.631055 105,49.627421 105,36.623786 94.432209,26.055991 81.428574,26.055991 Z m 0,39.285716 H 18.572687 c -8.6820808,0 -15.7142867,-7.032206 -15.7142867,-15.714286 0,-8.682081 7.0322059,-15.714287 15.7142867,-15.714287 8.68208,0 15.714286,7.267795 15.714286,15.832458 -0.353572,2.160777 1.1,4.164286 3.260777,4.51792 2.160777,0.353634 4.164286,-1.1 4.51792,-3.260777 0.07857,-0.432143 0.07857,-0.942857 0.07857,-1.375063 0,-8.407143 -4.517921,-16.106515 -11.707144,-20.350629 0.392857,-10.489349 8.996366,-18.935087 19.563658,-18.935087 11.314286,0 20.350629,9.624938 19.603887,21.018173 -0.196429,2.867794 2.632205,4.871428 5.224937,3.928571 2.31792,-0.825 3.928571,-1.375063 6.6,-1.375063 8.68208,0 15.714286,7.032206 15.714286,15.714286 0,8.682081 -7.032206,15.714287 -15.714286,15.714287 z"
       id="path2"
       style="fill:#888a85;stroke-width:1.25714" />
    <path
       d="m 24.268801,81.48845 c -1.964286,-0.982143 -4.28208,-0.196428 -5.264286,1.767795 l -3.928571,7.857143 c -0.982143,1.924937 -0.196429,4.28208 1.767794,5.264286 1.964223,0.982205 4.28208,0.196428 5.264286,-1.767795 l 3.928571,-7.857143 c 0.982143,-1.924937 0.196429,-4.28208 -1.767794,-5.264286 z"
       id="path4"
       style="fill:#729fcf;stroke-width:1.25714" />
    <path
       d="M 36.054516,97.202736 C 34.09023,96.220594 31.733087,97.006308 30.79023,98.970531 l -3.928572,7.857139 c -0.982143,1.92494 -0.196428,4.28208 1.767795,5.26429 1.964222,0.98221 4.28208,0.19643 5.264285,-1.76779 l 3.928572,-7.85715 c 0.982143,-1.92493 0.196429,-4.282078 -1.767794,-5.264284 z"
       id="path6"
       style="fill:#99c1f1;stroke-width:1.25714" />
    <path
       d="m 67.483088,97.202736 c -1.964286,-0.982142 -4.28208,-0.196428 -5.264286,1.767795 l -3.928571,7.857139 c -0.982143,1.92494 -0.196429,4.28208 1.767794,5.26429 1.964223,0.98221 4.28208,0.19643 5.264286,-1.76779 l 3.928572,-7.85715 c 0.982142,-1.92493 0.196428,-4.282078 -1.767795,-5.264284 z"
       id="path8"
       style="fill:#729fcf;stroke-width:1.25714" />
    <path
       d="m 55.697373,81.48845 c -1.924937,-0.982143 -4.28208,-0.196428 -5.264285,1.767795 l -3.928572,7.857143 c -0.982143,1.924937 -0.196429,4.28208 1.767794,5.264286 1.964223,0.982205 4.282081,0.196428 5.264286,-1.767795 l 3.928572,-7.857143 c 0.982143,-1.924937 0.196428,-4.28208 -1.767795,-5.264286 z"
       id="path10"
       style="fill:#99c1f1;stroke-width:1.25714" />
    <path
       d="m 87.125946,81.48845 c -1.924937,-0.982143 -4.28208,-0.196428 -5.264286,1.767795 l -3.928571,7.857143 c -0.982143,1.924937 -0.196429,4.28208 1.767794,5.264286 1.964223,0.982205 4.28208,0.196428 5.264286,-1.767795 l 3.928571,-7.857143 c 0.982143,-1.924937 0.196429,-4.28208 -1.767794,-5.264286 z"
       id="path12"
       style="fill:#99c1f1;stroke-width:1.25714" />
  </g>
</svg>
