<?xml version="1.0" encoding="UTF-8" standalone="no"?>
<svg
   viewBox="0 0 17.934252 21.045673"
   version="1.1"
   xml:space="preserve"
   x="0px"
   y="0px"
   fill-rule="evenodd"
   clip-rule="evenodd"
   stroke-linejoin="round"
   stroke-miterlimit="2"
   id="svg2"
   sodipodi:docname="play.svg"
   width="17.934252"
   height="21.045673"
   inkscape:version="1.4 (e7c3feb100, 2024-10-09)"
   xmlns:inkscape="http://www.inkscape.org/namespaces/inkscape"
   xmlns:sodipodi="http://sodipodi.sourceforge.net/DTD/sodipodi-0.dtd"
   xmlns="http://www.w3.org/2000/svg"
   xmlns:svg="http://www.w3.org/2000/svg"><defs
     id="defs2" /><sodipodi:namedview
     id="namedview2"
     pagecolor="#ffffff"
     bordercolor="#000000"
     borderopacity="0.25"
     inkscape:showpageshadow="2"
     inkscape:pageopacity="0.0"
     inkscape:pagecheckerboard="0"
     inkscape:deskcolor="#d1d1d1"
     inkscape:zoom="8.6738432"
     inkscape:cx="19.599155"
     inkscape:cy="24.4413"
     inkscape:window-width="1920"
     inkscape:window-height="1131"
     inkscape:window-x="0"
     inkscape:window-y="32"
     inkscape:window-maximized="1"
     inkscape:current-layer="svg2" /><path
     d="m 0.805,0.01865094 0.154,0.065 16.667,9.89099996 c 0.113,0.089 0.154,0.1030001 0.228,0.2320001 0.106,0.188 0.108,0.437 0,0.628 -0.074,0.128 -0.115,0.143 -0.228,0.232 l -16.668,9.89 c -0.134,0.058 -0.168,0.088 -0.318,0.089 -0.226,0.002 -0.444,-0.125 -0.554,-0.316 -0.076,-0.13 -0.067,-0.174 -0.086,-0.319 V 0.62965094 c 0.014,-0.111 0.03,-0.223 0.086,-0.319 0.085,-0.146 0.229,-0.254 0.389,-0.295 0.107,-0.028 0.22,-0.013 0.33,0.003 z"
     id="path1"
     style="fill:#33d17a" /></svg>
