<?xml version="1.0" encoding="UTF-8" standalone="no"?>
<svg
   data-name="Layer 1"
   viewBox="0 0 60 60"
   x="0px"
   y="0px"
   version="1.1"
   id="svg912"
   sodipodi:docname="prec_media.svg"
   inkscape:version="1.1.1 (3bf5ae0d25, 2021-09-20)"
   width="60"
   height="60"
   xmlns:inkscape="http://www.inkscape.org/namespaces/inkscape"
   xmlns:sodipodi="http://sodipodi.sourceforge.net/DTD/sodipodi-0.dtd"
   xmlns="http://www.w3.org/2000/svg"
   xmlns:svg="http://www.w3.org/2000/svg"
   xmlns:rdf="http://www.w3.org/1999/02/22-rdf-syntax-ns#"
   xmlns:cc="http://creativecommons.org/ns#"
   xmlns:dc="http://purl.org/dc/elements/1.1/">
  <defs
     id="defs916" />
  <sodipodi:namedview
     id="namedview914"
     pagecolor="#ffffff"
     bordercolor="#666666"
     borderopacity="1.0"
     inkscape:pageshadow="2"
     inkscape:pageopacity="0.0"
     inkscape:pagecheckerboard="0"
     showgrid="false"
     inkscape:zoom="8.525"
     inkscape:cx="30.791789"
     inkscape:cy="20.058651"
     inkscape:window-width="1920"
     inkscape:window-height="1027"
     inkscape:window-x="0"
     inkscape:window-y="0"
     inkscape:window-maximized="1"
     inkscape:current-layer="svg912"
     inkscape:snap-bbox="true"
     inkscape:bbox-paths="true"
     inkscape:snap-page="true"
     inkscape:bbox-nodes="true" />
  <title
     id="title898">x</title>
  <path
     style="fill:#1c71d8;fill-opacity:1;fill-rule:evenodd;stroke:#1c71d8;stroke-width:1;stroke-linecap:round;stroke-miterlimit:4;stroke-dasharray:none"
     d="m 23.695015,48.03519 v -9.090906 h 2.521994 2.521994 v 9.090906 9.09091 h -2.521994 -2.521994 z"
     id="path1347" />
  <path
     style="fill:#2ec27e;fill-opacity:1;fill-rule:evenodd;stroke:#2ec27e;stroke-width:1;stroke-linecap:round;stroke-miterlimit:4;stroke-dasharray:none"
     d="M 38.240469,44.164225 V 31.202348 h 2.463343 2.463344 V 44.164225 57.1261 h -2.463344 -2.463343 z"
     id="path1386" />
  <path
     style="fill:#f5c211;fill-opacity:1;fill-rule:evenodd;stroke:#f5c211;stroke-width:1;stroke-linecap:round;stroke-miterlimit:4;stroke-dasharray:none"
     d="M 52.668622,39.824049 V 22.521996 h 2.521994 2.521994 V 39.824049 57.1261 h -2.521994 -2.521994 z"
     id="path1425" />
  <path
     d="m -86.963028,123.81255 h -9.86 a 1.5,1.5 0 0 0 -1.5,1.5 v 22.12 a 1.5,1.5 0 0 0 1.5,1.5 h 9.86 a 1.5,1.5 0 0 0 1.5,-1.5 v -22.12 a 1.5,1.5 0 0 0 -1.5,-1.5 z m -1.5,22.14 h -6.86 v -19.14 h 6.86 z"
     id="path900" />
  <path
     d="m -67.653028,115.68255 h -9.86 a 1.5,1.5 0 0 0 -1.5,1.5 v 30.25 a 1.5,1.5 0 0 0 1.5,1.5 h 9.86 a 1.5,1.5 0 0 0 1.5,-1.5 v -30.25 a 1.5,1.5 0 0 0 -1.5,-1.5 z m -1.5,30.27 h -6.86 v -27.27 h 6.86 z"
     id="path902" />
  <path
     d="m -48.343028,106.54255 h -9.86 a 1.5,1.5 0 0 0 -1.5,1.5 v 39.39 a 1.5,1.5 0 0 0 1.5,1.5 h 9.86 a 1.5,1.5 0 0 0 1.5,-1.5 v -39.39 a 1.5,1.5 0 0 0 -1.5,-1.5 z m -1.5,39.41 h -6.86 v -36.41 h 6.86 z"
     id="path904" />
  <path
     d="m -96.293028,118.15255 h 0.23 c 1.09,-0.17 25.9,-4.14 45.09,-26.599999 l 0.33,3.18 a 1.5,1.5 0 0 0 1.49,1.35 h 0.16 a 1.49,1.49 0 0 0 1.33,-1.65 l -0.74,-7.16 a 1.46,1.46 0 0 0 -0.56,-1 1.44,1.44 0 0 0 -1.11,-0.35 l -7.11,0.87 a 1.5107614,1.5107614 0 0 0 0.36,3 l 3.82,-0.47 c -18.52,21.819999 -43.25,25.809999 -43.51,25.849999 a 1.5040279,1.5040279 0 0 0 0.22,3 z"
     id="path906" />
  <metadata
     id="metadata975">
    <rdf:RDF>
      <cc:Work
         rdf:about="">
        <dc:title>x</dc:title>
      </cc:Work>
    </rdf:RDF>
  </metadata>
  <path
     d="m 22.943495,30.694458 h 0.172356 C 23.932667,30.532601 42.524617,26.752776 56.905089,5.3686777 l 0.247293,3.0276682 a 1.1240598,1.4281455 0 0 0 1.116566,1.285332 h 0.1199 A 1.116566,1.4186244 0 0 0 59.385514,8.1107167 L 58.830978,1.2937032 A 1.0940849,1.3900615 0 0 0 58.411329,0.34160614 1.0790974,1.3710195 0 0 0 57.579525,0.00837268 L 52.251481,0.83669606 A 1.1321242,1.4383915 0 0 0 52.521256,3.6929872 L 55.383861,3.245502 C 41.505469,24.020257 22.97347,27.819123 22.778632,27.857207 a 1.1270787,1.431981 0 0 0 0.164863,2.856292 z"
     id="path906-5"
     style="stroke-width:0.844675;fill:#cc0000;fill-opacity:1" />
  <g
     id="g1"
     transform="matrix(0.32629695,0,0,0.32629695,1.6314847,-0.81091003)">
    <path
       id="path1194"
       style="fill:#d3d7cf;fill-rule:evenodd;stroke:#d3d7cf;stroke-width:0.395894;stroke-linecap:round"
       d="m 55.476562,20.46875 c -2.014311,-0.05302 -4.064868,0.218358 -6.08789,0.851562 -2.20535,0.690273 -4.664032,2.000102 -6.544922,3.488282 -3.877157,3.067648 -6.796635,8.387626 -7.134766,13 l -0.109375,1.484375 1.203125,0.753906 c 0.661528,0.414865 1.975485,1.483414 2.919922,2.375 4.787372,4.519458 7.374405,10.374403 7.458985,16.876953 0.02753,2.116327 0.0083,2.229222 -0.564453,3.154297 -0.767225,1.239191 -1.927544,1.878906 -3.402344,1.878906 -1.379704,0 -2.169386,-0.343371 -3.070313,-1.341797 -0.801283,-0.887999 -0.878679,-1.187247 -1.035156,-4.001953 -0.308124,-5.542483 -3.518742,-10.563435 -8.386719,-13.115234 -2.020354,-1.059073 -3.228309,-1.441316 -5.503906,-1.744141 -4.332168,-0.576504 -9.249924,1.15077 -12.542969,4.40625 -5.4339594,5.371974 -6.2366294,13.462741 -1.96875,19.84375 2.21698,3.314661 6.292004,5.97526 10.144531,6.625 0.562346,0.09484 16.16381,0.160432 34.671876,0.144532 37.895097,-0.03253 34.32069,0.11769 37.808593,-1.601563 5.371864,-2.64789 8.622949,-7.87258 8.626949,-13.865234 0.004,-6.046373 -3.224888,-11.289913 -8.582027,-13.9375 -4.076384,-2.014616 -7.591319,-2.251004 -12.082031,-0.8125 -2.993914,0.959035 -4.794925,0.704627 -5.935547,-0.837891 C 74.63982,43.120657 74.584301,42.859675 74.519531,40.183594 74.486591,38.822707 74.310329,36.995967 74.128906,36.125 72.227617,26.997325 64.205245,20.698489 55.476562,20.46875 Z"
       transform="translate(-5,-10)" />
    <path
       d="m 81.429832,26.055991 c -1.414286,0 -2.828572,0.157143 -4.164286,0.392857 C 75.536974,12.934562 63.987602,2.4851904 50.00063,2.4851904 c -13.986971,0 -25.496115,10.4500006 -27.264915,23.9636576 -1.375063,-0.235714 -2.75,-0.392857 -4.164286,-0.392857 C 5.5675432,26.055991 -5,36.623786 -5,49.627421 -5,62.631055 5.5677946,73.19885 18.571429,73.19885 H 81.428574 C 94.432461,73.19885 105,62.631055 105,49.627421 105,36.623786 94.432209,26.055991 81.428574,26.055991 Z m 0,39.285716 H 18.572687 c -8.6820808,0 -15.7142867,-7.032206 -15.7142867,-15.714286 0,-8.682081 7.0322059,-15.714287 15.7142867,-15.714287 8.68208,0 15.714286,7.267795 15.714286,15.832458 -0.353572,2.160777 1.1,4.164286 3.260777,4.51792 2.160777,0.353634 4.164286,-1.1 4.51792,-3.260777 0.07857,-0.432143 0.07857,-0.942857 0.07857,-1.375063 0,-8.407143 -4.517921,-16.106515 -11.707144,-20.350629 0.392857,-10.489349 8.996366,-18.935087 19.563658,-18.935087 11.314286,0 20.350629,9.624938 19.603887,21.018173 -0.196429,2.867794 2.632205,4.871428 5.224937,3.928571 2.31792,-0.825 3.928571,-1.375063 6.6,-1.375063 8.68208,0 15.714286,7.032206 15.714286,15.714286 0,8.682081 -7.032206,15.714287 -15.714286,15.714287 z"
       id="path2"
       style="fill:#888a85;stroke-width:1.25714" />
    <path
       d="m 24.268801,81.48845 c -1.964286,-0.982143 -4.28208,-0.196428 -5.264286,1.767795 l -3.928571,7.857143 c -0.982143,1.924937 -0.196429,4.28208 1.767794,5.264286 1.964223,0.982205 4.28208,0.196428 5.264286,-1.767795 l 3.928571,-7.857143 c 0.982143,-1.924937 0.196429,-4.28208 -1.767794,-5.264286 z"
       id="path4"
       style="fill:#729fcf;stroke-width:1.25714" />
    <path
       d="M 36.054516,97.202736 C 34.09023,96.220594 31.733087,97.006308 30.79023,98.970531 l -3.928572,7.857139 c -0.982143,1.92494 -0.196428,4.28208 1.767795,5.26429 1.964222,0.98221 4.28208,0.19643 5.264285,-1.76779 l 3.928572,-7.85715 c 0.982143,-1.92493 0.196429,-4.282078 -1.767794,-5.264284 z"
       id="path6"
       style="fill:#99c1f1;stroke-width:1.25714" />
    <path
       d="m 67.483088,97.202736 c -1.964286,-0.982142 -4.28208,-0.196428 -5.264286,1.767795 l -3.928571,7.857139 c -0.982143,1.92494 -0.196429,4.28208 1.767794,5.26429 1.964223,0.98221 4.28208,0.19643 5.264286,-1.76779 l 3.928572,-7.85715 c 0.982142,-1.92493 0.196428,-4.282078 -1.767795,-5.264284 z"
       id="path8"
       style="fill:#729fcf;stroke-width:1.25714" />
    <path
       d="m 55.697373,81.48845 c -1.924937,-0.982143 -4.28208,-0.196428 -5.264285,1.767795 l -3.928572,7.857143 c -0.982143,1.924937 -0.196429,4.28208 1.767794,5.264286 1.964223,0.982205 4.282081,0.196428 5.264286,-1.767795 l 3.928572,-7.857143 c 0.982143,-1.924937 0.196428,-4.28208 -1.767795,-5.264286 z"
       id="path10"
       style="fill:#99c1f1;stroke-width:1.25714" />
    <path
       d="m 87.125946,81.48845 c -1.924937,-0.982143 -4.28208,-0.196428 -5.264286,1.767795 l -3.928571,7.857143 c -0.982143,1.924937 -0.196429,4.28208 1.767794,5.264286 1.964223,0.982205 4.28208,0.196428 5.264286,-1.767795 l 3.928571,-7.857143 c 0.982143,-1.924937 0.196429,-4.28208 -1.767794,-5.264286 z"
       id="path12"
       style="fill:#99c1f1;stroke-width:1.25714" />
  </g>
  <path
     d="m 29.935147,36.083328 h -7.38882 a 1.1240598,1.4281455 0 0 0 -1.12406,1.428145 V 58.57186 A 1.1240598,1.4281455 0 0 0 22.546327,60 h 7.38882 a 1.1240598,1.4281455 0 0 0 1.12406,-1.42814 V 37.511473 a 1.1240598,1.4281455 0 0 0 -1.12406,-1.428145 z m -1.12406,21.079422 h -5.1407 V 38.939619 h 5.1407 z"
     id="path900-35"
     style="fill:#77767b;fill-opacity:1;stroke-width:0.844675" />
  <path
     d="m 44.405544,28.34278 h -7.38882 a 1.1240598,1.4281455 0 0 0 -1.12406,1.428145 V 58.57186 A 1.1240598,1.4281455 0 0 0 37.016724,60 h 7.38882 a 1.1240598,1.4281455 0 0 0 1.12406,-1.42814 V 29.770925 a 1.1240598,1.4281455 0 0 0 -1.12406,-1.428145 z m -1.12406,28.81997 h -5.1407 V 31.19907 h 5.1407 z"
     id="path902-62"
     style="fill:#77767b;fill-opacity:1;stroke-width:0.844675" />
  <path
     d="m 58.875941,19.640613 h -7.38882 a 1.1240598,1.4281455 0 0 0 -1.12406,1.428146 V 58.57186 A 1.1240598,1.4281455 0 0 0 51.487121,60 h 7.38882 A 1.1240598,1.4281455 0 0 0 60,58.57186 V 21.068759 a 1.1240598,1.4281455 0 0 0 -1.124059,-1.428146 z m -1.12406,37.522147 h -5.1407 V 22.496905 h 5.1407 z"
     id="path904-9"
     style="fill:#77767b;fill-opacity:1;stroke-width:0.844675" />
</svg>
