<?xml version="1.0" encoding="UTF-8" standalone="no"?>
<svg
   version="1.1"
   viewBox="-5 -10 150 150"
   id="svg880"
   sodipodi:docname="radar_3.svg"
   inkscape:version="1.4 (e7c3feb100, 2024-10-09)"
   width="150"
   height="150"
   xmlns:inkscape="http://www.inkscape.org/namespaces/inkscape"
   xmlns:sodipodi="http://sodipodi.sourceforge.net/DTD/sodipodi-0.dtd"
   xmlns="http://www.w3.org/2000/svg"
   xmlns:svg="http://www.w3.org/2000/svg">
  <defs
     id="defs884" />
  <sodipodi:namedview
     id="namedview882"
     pagecolor="#ffffff"
     bordercolor="#666666"
     borderopacity="1.0"
     inkscape:pageshadow="2"
     inkscape:pageopacity="0.0"
     inkscape:pagecheckerboard="0"
     showgrid="false"
     inkscape:snap-bbox="true"
     inkscape:bbox-paths="true"
     inkscape:bbox-nodes="true"
     inkscape:snap-bbox-edge-midpoints="true"
     inkscape:snap-bbox-midpoints="true"
     inkscape:snap-page="true"
     inkscape:zoom="2.1841743"
     inkscape:cx="42.121181"
     inkscape:cy="72.33855"
     inkscape:window-width="1536"
     inkscape:window-height="891"
     inkscape:window-x="0"
     inkscape:window-y="0"
     inkscape:window-maximized="1"
     inkscape:current-layer="svg880"
     inkscape:snap-global="false"
     inkscape:showpageshadow="2"
     inkscape:deskcolor="#d1d1d1" />
  <g
     id="g1"
     transform="matrix(1.3636364,0,0,1.3636364,1.8181824,-13.40909)">
    <path
       style="fill:#9bd069;fill-opacity:1;fill-rule:evenodd;stroke:#9bd069;stroke-width:2;stroke-linecap:round;stroke-miterlimit:4;stroke-dasharray:none;stroke-opacity:1"
       d="M 46.312949,106.97659 C 34.49041,105.98317 23.337478,100.84895 15.093183,92.60466 8.167821,85.679294 3.6600525,77.34745 1.4153522,67.323506 0.7679525,64.432476 0.6654676,63.089922 0.6654676,57.5 c 0,-5.589923 0.1024849,-6.932477 0.7498846,-9.823507 C 4.8863326,32.176467 14.180932,20.069136 27.859712,13.229538 44.07541,5.121444 62.493836,6.353526 77.892978,16.576463 81.985654,19.293444 88.395836,25.699217 91.103029,29.777432 96.8036,38.364971 99.40647,47.055147 99.40647,57.5 c 0,10.42739 -2.58173,19.042106 -8.295331,27.679856 -2.649257,4.00511 -9.412135,10.813514 -13.233441,13.322504 -9.609932,6.30971 -20.983941,9.3633 -31.564749,8.47423 z m 9.719563,-12.23714 c 5.27141,-0.855 10.662096,-2.9602 14.883323,-5.812328 1.727113,-1.166947 2.46747,-1.489671 3.118665,-1.35943 2.103863,0.420772 5.089804,-1.412521 5.798603,-3.560193 0.206925,-0.626996 0.314427,-1.669377 0.238892,-2.316399 -0.114045,-0.976876 0.09347,-1.508339 1.223482,-3.133396 2.785072,-4.005187 4.841809,-9.061656 5.838173,-14.35309 C 87.858749,60.353806 87.621363,52.097387 86.684625,48.587151 82.799066,34.026863 71.977278,23.644183 57.482014,20.569478 54.181821,19.869448 46.452284,19.779184 43.23741,20.403132 29.391261,23.090415 18.736153,32.409485 14.278542,45.730865 c -0.619222,1.850516 -1.222234,4.184582 -1.340026,5.186813 -0.173305,1.474553 -0.362937,1.901852 -0.993883,2.239524 -2.862918,1.532188 -2.882049,7.14317 -0.02956,8.669774 0.609738,0.326322 0.819939,0.837615 1.12296,2.731494 1.147991,7.174923 5.57343,15.277202 11.179138,20.467227 8.643191,8.002273 20.343208,11.574483 31.815341,9.713753 z"
       id="path1300" />
    <path
       style="fill:#9bd069;fill-opacity:1;fill-rule:evenodd;stroke:#9bd069;stroke-width:2;stroke-linecap:round;stroke-miterlimit:4;stroke-dasharray:none;stroke-opacity:1"
       d="M 47.179376,71.883812 C 40.46176,70.561838 35.467626,64.428281 35.467626,57.5 c 0,-6.142838 3.765317,-11.5127 9.678659,-13.803102 3.51228,-1.360405 8.796169,-0.901014 11.980798,1.041632 l 1.101902,0.672168 -3.362305,3.373788 c -3.272194,3.283368 -3.401505,3.37393 -4.824925,3.379113 -2.024542,0.0074 -3.813066,1.089631 -4.756676,2.878327 -0.951659,1.803954 -0.951659,3.112193 0,4.916147 1.799311,3.410753 6.752017,3.870611 8.959525,0.831891 0.707489,-0.973887 1.241012,-2.843422 1.077463,-3.775576 -0.118941,-0.677907 0.429495,-1.37708 3.376915,-4.305055 l 3.518919,-3.495702 0.867771,1.772219 c 1.206969,2.464953 1.631399,4.762107 1.428041,7.72903 -0.582859,8.503735 -8.906752,14.827414 -17.334337,13.168932 z"
       id="path1378" />
    <path
       style="fill:#9bd069;fill-opacity:1;fill-rule:evenodd;stroke:#9bd069;stroke-width:2;stroke-linecap:round;stroke-miterlimit:4;stroke-dasharray:none;stroke-opacity:1"
       d="M 45.341726,89.378074 C 40.463303,88.626354 34.553412,86.108763 30.691639,83.137196 28.285478,81.285698 24.959989,77.751278 23.3784,75.364491 20.471854,70.978202 17.679895,63.159964 18.57764,61.921068 20.415505,59.3848 20.795073,58.060732 20.257054,56.062682 20.06674,55.35591 19.527627,54.321995 19.059026,53.765094 l -0.852002,-1.012547 0.514306,-2.369985 c 1.136184,-5.235669 4.090197,-10.702184 8.035656,-14.870289 7.741443,-8.178301 18.731528,-11.644779 29.783939,-9.39441 4.474674,0.911084 9.724228,3.29099 12.977631,5.883461 l 1.191218,0.949221 -4.185023,4.175735 -4.185026,4.175735 -0.891087,-0.581824 c -6.548076,-4.275495 -15.26563,-4.52418 -21.722963,-0.61969 -6.954204,4.204926 -10.825059,12.152455 -9.742314,20.002635 1.06753,7.739864 6.114711,13.882232 13.631335,16.589195 2.093344,0.75388 2.853694,0.854476 6.421275,0.849568 4.447667,-0.0061 6.448782,-0.503149 10.035971,-2.492683 2.745078,-1.522476 6.478786,-5.476027 7.882589,-8.346716 1.793522,-3.667639 2.258627,-5.957078 2.065558,-10.167565 -0.184082,-4.014583 -0.859753,-6.375773 -2.698032,-9.428538 l -1.126984,-1.871542 4.137002,-4.146205 c 2.275349,-2.280412 4.214629,-4.146204 4.309511,-4.146204 0.381046,0 3.612707,5.171481 4.666555,7.467679 2.07302,4.516843 2.616319,7.235052 2.616319,13.089875 0,4.402214 -0.111998,5.589731 -0.746012,7.910019 -0.860666,3.149757 -2.48614,6.815483 -4.20628,9.485877 -1.025391,1.591847 -1.341052,1.861439 -2.182348,1.863861 -1.438507,0.0041 -3.758154,1.295385 -4.598359,2.5597 -0.47374,0.712871 -0.73103,1.587833 -0.73103,2.485994 0,1.370208 -0.02668,1.402582 -2.347122,2.8483 -3.174089,1.977565 -5.646801,3.035858 -9.307554,3.983536 -3.466829,0.897475 -9.225888,1.239759 -12.464029,0.740787 z"
       id="path1339" />
    <g
       id="g892"
       style="fill:#000000;stroke-width:0;stroke-miterlimit:4;stroke-dasharray:none;image-rendering:optimizeQuality;shape-rendering:geometricPrecision;text-rendering:geometricPrecision"
       transform="matrix(95.15571,0,0,95.15571,-5.0000007,2.4999993)">
      <path
         class="fil0"
         d="m 0.578,0 c 0.16,0 0.304,0.065 0.409,0.169 0.104,0.105 0.169,0.249 0.169,0.409 0,0.16 -0.065,0.304 -0.169,0.409 C 0.882,1.091 0.738,1.156 0.578,1.156 0.418,1.156 0.274,1.091 0.169,0.987 0.065,0.882 0,0.738 0,0.578 0,0.418 0.065,0.274 0.169,0.169 0.274,0.065 0.418,0 0.578,0 Z m 0.26,0.783 c 0.003,0 0.007,0 0.01,0.001 0.044,-0.057 0.07,-0.129 0.07,-0.206 0,-0.084 -0.031,-0.161 -0.081,-0.22 L 0.745,0.45 C 0.773,0.485 0.789,0.53 0.789,0.578 0.789,0.636 0.765,0.689 0.727,0.727 0.689,0.765 0.636,0.789 0.578,0.789 0.52,0.789 0.467,0.765 0.429,0.727 0.391,0.689 0.367,0.636 0.367,0.578 0.367,0.52 0.391,0.467 0.429,0.429 0.467,0.391 0.52,0.367 0.578,0.367 c 0.048,0 0.093,0.016 0.129,0.044 L 0.798,0.319 C 0.739,0.269 0.662,0.239 0.578,0.239 0.484,0.239 0.399,0.277 0.338,0.338 0.287,0.389 0.252,0.457 0.242,0.532 c 0.014,0.01 0.024,0.027 0.024,0.046 0,0.019 -0.01,0.036 -0.024,0.046 0.01,0.075 0.045,0.143 0.096,0.194 0.061,0.062 0.146,0.1 0.24,0.1 0.077,0 0.149,-0.026 0.206,-0.07 C 0.783,0.845 0.783,0.841 0.783,0.838 0.783,0.807 0.807,0.783 0.838,0.783 Z M 0.89,0.82 c 0.002,0.005 0.003,0.011 0.003,0.018 0,0.03 -0.025,0.055 -0.055,0.055 C 0.831,0.893 0.825,0.892 0.82,0.89 0.753,0.942 0.669,0.973 0.578,0.973 0.469,0.973 0.37,0.928 0.299,0.857 0.239,0.797 0.198,0.717 0.187,0.627 0.168,0.618 0.156,0.6 0.156,0.578 0.156,0.556 0.168,0.538 0.187,0.529 0.198,0.44 0.239,0.36 0.299,0.299 0.37,0.228 0.469,0.184 0.578,0.184 c 0.109,0 0.208,0.044 0.279,0.115 0.071,0.071 0.116,0.17 0.116,0.279 0,0.091 -0.031,0.175 -0.083,0.242 z M 0.578,0.523 c 0.005,0 0.01,0.001 0.014,0.002 L 0.667,0.45 C 0.642,0.432 0.611,0.422 0.578,0.422 0.535,0.422 0.496,0.44 0.468,0.468 0.44,0.496 0.422,0.535 0.422,0.578 c 0,0.043 0.018,0.082 0.046,0.11 0.028,0.029 0.067,0.046 0.11,0.046 0.043,0 0.082,-0.017 0.11,-0.046 C 0.717,0.66 0.734,0.621 0.734,0.578 0.734,0.545 0.724,0.514 0.706,0.489 L 0.631,0.564 c 0.001,0.004 0.002,0.009 0.002,0.014 0,0.03 -0.025,0.055 -0.055,0.055 -0.03,0 -0.055,-0.025 -0.055,-0.055 0,-0.03 0.025,-0.055 0.055,-0.055 z M 0.948,0.208 C 0.853,0.114 0.722,0.055 0.578,0.055 c -0.144,0 -0.275,0.059 -0.37,0.153 -0.094,0.095 -0.153,0.226 -0.153,0.37 0,0.144 0.059,0.275 0.153,0.37 0.095,0.095 0.226,0.153 0.37,0.153 0.144,0 0.275,-0.058 0.37,-0.153 0.095,-0.095 0.153,-0.226 0.153,-0.37 0,-0.144 -0.058,-0.275 -0.153,-0.37 z"
         id="path890"
         style="fill:#000000;stroke-width:0;stroke-miterlimit:4;stroke-dasharray:none" />
    </g>
    <circle
       style="fill:#fcd462;fill-opacity:1;fill-rule:evenodd;stroke:#9bd069;stroke-width:0;stroke-linecap:round;stroke-miterlimit:4;stroke-dasharray:none;stroke-opacity:1"
       id="path11713"
       cx="74.762421"
       cy="82.273315"
       r="5.3312688" />
    <circle
       style="fill:#e56353;fill-opacity:1;fill-rule:evenodd;stroke:#9bd069;stroke-width:0;stroke-linecap:round;stroke-miterlimit:4;stroke-dasharray:none;stroke-opacity:1"
       id="path11713-3"
       cx="15.012153"
       cy="57.548157"
       r="5.3312688" />
  </g>
</svg>
