<?xml version="1.0" encoding="UTF-8" standalone="no"?>
<svg
   version="1.1"
   viewBox="-5.0 -10.0 110.0 135.0"
   id="svg880"
   sodipodi:docname="radar.svg"
   inkscape:version="1.1.1 (3bf5ae0d25, 2021-09-20)"
   xmlns:inkscape="http://www.inkscape.org/namespaces/inkscape"
   xmlns:sodipodi="http://sodipodi.sourceforge.net/DTD/sodipodi-0.dtd"
   xmlns="http://www.w3.org/2000/svg"
   xmlns:svg="http://www.w3.org/2000/svg">
  <defs
     id="defs884" />
  <sodipodi:namedview
     id="namedview882"
     pagecolor="#ffffff"
     bordercolor="#666666"
     borderopacity="1.0"
     inkscape:pageshadow="2"
     inkscape:pageopacity="0.0"
     inkscape:pagecheckerboard="0"
     showgrid="false"
     inkscape:snap-bbox="true"
     inkscape:bbox-paths="true"
     inkscape:bbox-nodes="true"
     inkscape:snap-bbox-edge-midpoints="true"
     inkscape:snap-bbox-midpoints="true"
     inkscape:snap-page="true"
     inkscape:zoom="3.0888889"
     inkscape:cx="-7.6079136"
     inkscape:cy="67.014388"
     inkscape:window-width="1920"
     inkscape:window-height="1027"
     inkscape:window-x="0"
     inkscape:window-y="0"
     inkscape:window-maximized="1"
     inkscape:current-layer="svg880"
     inkscape:snap-global="false" />
  <path
     class="fil0"
     d="m 50,2.4999998 c 15.224914,0 28.927336,6.1851212 38.918686,16.0813152 C 98.814879,28.572664 105,42.275087 105,57.5 105,72.724914 98.814879,86.427336 88.918686,96.418686 78.927336,106.31488 65.224914,112.5 50,112.5 34.775087,112.5 21.072664,106.31488 11.081315,96.418686 1.185121,86.427336 -5.0000002,72.724914 -5.0000002,57.5 -5.0000002,42.275087 1.185121,28.572664 11.081315,18.581315 21.072664,8.685121 34.775087,2.4999998 50,2.4999998 Z M 74.740485,77.006921 c 0.285467,0 0.66609,0 0.951557,0.09515 4.186851,-5.423875 6.6609,-12.275086 6.6609,-19.602076 0,-7.993079 -2.949827,-15.320069 -7.707613,-20.934256 l -8.754325,8.754325 c 2.66436,3.33045 4.186851,7.612457 4.186851,12.179931 0,5.519031 -2.283737,10.562284 -5.899654,14.178201 C 60.562284,75.294113 55.519031,77.57785 50,77.57785 c -5.519031,0 -10.562284,-2.283737 -14.178201,-5.899654 C 32.205882,68.062284 29.922145,63.019031 29.922145,57.5 c 0,-5.519031 2.283737,-10.562284 5.899654,-14.178201 3.615917,-3.615917 8.65917,-5.899654 14.178201,-5.899654 4.567474,0 8.849481,1.522492 12.275087,4.186852 l 8.659169,-8.754326 C 65.320069,28.096886 57.99308,25.242214 50,25.242214 c -8.944637,0 -17.032872,3.615917 -22.83737,9.420416 -4.852941,4.852941 -8.183391,11.323529 -9.134948,18.460208 1.33218,0.951557 2.283737,2.569204 2.283737,4.377162 0,1.807959 -0.951557,3.425606 -2.283737,4.377163 0.951557,7.136678 4.282007,13.607266 9.134948,18.460208 5.804498,5.899654 13.892733,9.515571 22.83737,9.515571 7.32699,0 14.178201,-2.474049 19.602076,-6.6609 -0.09515,-0.285467 -0.09515,-0.66609 -0.09515,-0.951557 0,-2.949827 2.283737,-5.233564 5.233564,-5.233564 z m 4.948097,3.520761 c 0.190311,0.475779 0.285467,1.046713 0.285467,1.712803 0,2.854671 -2.378893,5.233564 -5.233564,5.233564 -0.66609,0 -1.237024,-0.09516 -1.712803,-0.285467 C 66.652249,92.136679 58.65917,95.086506 50,95.086506 39.628028,95.086506 30.207612,90.804499 23.451557,84.048443 17.742214,78.339101 13.84083,70.726644 12.794118,62.16263 10.986159,61.306229 9.8442906,59.593426 9.8442906,57.5 c 0,-2.093425 1.1418684,-3.806228 2.9498274,-4.66263 C 13.84083,44.368512 17.742214,36.756055 23.451557,30.951557 30.207612,24.195502 39.628028,20.00865 50,20.00865 c 10.371973,0 19.792388,4.186852 26.548443,10.942907 6.756056,6.756055 11.038063,16.176471 11.038063,26.548443 0,8.65917 -2.949827,16.652249 -7.897924,23.027682 z M 50,52.266436 c 0.475779,0 0.951557,0.09516 1.33218,0.190312 l 7.136678,-7.136679 C 56.089966,43.607267 53.140139,42.655709 50,42.655709 c -4.091695,0 -7.802768,1.712803 -10.467128,4.377163 -2.66436,2.66436 -4.377163,6.375433 -4.377163,10.467128 0,4.091696 1.712803,7.802768 4.377163,10.467128 2.66436,2.759516 6.375433,4.377163 10.467128,4.377163 4.091696,0 7.802768,-1.617647 10.467128,-4.377163 2.759516,-2.66436 4.377163,-6.375432 4.377163,-10.467128 0,-3.140138 -0.951557,-6.089965 -2.66436,-8.468858 l -7.136678,7.136678 c 0.09516,0.380623 0.190311,0.856402 0.190311,1.33218 0,2.854671 -2.378893,5.233564 -5.233564,5.233564 -2.854671,0 -5.233564,-2.378893 -5.233564,-5.233564 0,-2.854671 2.378893,-5.233564 5.233564,-5.233564 z M 85.207613,22.292387 C 76.16782,13.347751 63.702422,7.7335638 50,7.7335638 36.297578,7.7335638 23.83218,13.347751 14.792387,22.292387 5.8477507,31.33218 0.23356385,43.797578 0.23356385,57.5 c 0,13.702422 5.61418685,26.16782 14.55882315,35.207613 C 23.83218,101.74741 36.297578,107.26644 50,107.26644 c 13.702422,0 26.16782,-5.51903 35.207613,-14.558827 C 94.247405,83.66782 99.766437,71.202422 99.766437,57.5 c 0,-13.702422 -5.519032,-26.16782 -14.558824,-35.207613 z"
     id="path6"
     style="fill:#babdb6;stroke-width:95.1557;image-rendering:optimizeQuality;shape-rendering:geometricPrecision;text-rendering:geometricPrecision" />
  <circle
     style="fill:#3465a4;fill-opacity:1;fill-rule:evenodd;stroke:#0ba350;stroke-width:0;stroke-linecap:round;stroke-miterlimit:4;stroke-dasharray:none;stroke-opacity:1"
     id="path47423"
     cx="74.760582"
     cy="82.309975"
     r="5.4042931" />
  <circle
     style="fill:#000000;fill-opacity:1;fill-rule:evenodd;stroke:#0ba350;stroke-width:0;stroke-linecap:round;stroke-miterlimit:4;stroke-dasharray:none;stroke-opacity:1"
     id="path47423-7"
     cx="50"
     cy="57.5"
     r="5.4042931" />
  <circle
     style="fill:#cc0000;fill-opacity:1;fill-rule:evenodd;stroke:#0ba350;stroke-width:0;stroke-linecap:round;stroke-miterlimit:4;stroke-dasharray:none;stroke-opacity:1"
     id="path47423-3"
     cx="14.943992"
     cy="57.502571"
     r="5.4042931" />
  <circle
     style="fill:#edd400;fill-opacity:1;fill-rule:evenodd;stroke:#0ba350;stroke-width:0;stroke-linecap:round;stroke-miterlimit:4;stroke-dasharray:none;stroke-opacity:1"
     id="path47423-3-6"
     cx="65.673294"
     cy="8.0756941"
     r="5.4042931" />
</svg>
