<?xml version="1.0" encoding="UTF-8" standalone="no"?>
<svg
   data-name="Layer 1"
   viewBox="0 0 127.98961 127.36125"
   x="0px"
   y="0px"
   version="1.1"
   id="svg56"
   sodipodi:docname="riflettivita.svg"
   inkscape:version="1.1.1 (3bf5ae0d25, 2021-09-20)"
   width="127.98962"
   height="127.36125"
   xmlns:inkscape="http://www.inkscape.org/namespaces/inkscape"
   xmlns:sodipodi="http://sodipodi.sourceforge.net/DTD/sodipodi-0.dtd"
   xmlns="http://www.w3.org/2000/svg"
   xmlns:svg="http://www.w3.org/2000/svg"
   xmlns:rdf="http://www.w3.org/1999/02/22-rdf-syntax-ns#"
   xmlns:cc="http://creativecommons.org/ns#"
   xmlns:dc="http://purl.org/dc/elements/1.1/">
  <defs
     id="defs60" />
  <sodipodi:namedview
     id="namedview58"
     pagecolor="#ffffff"
     bordercolor="#666666"
     borderopacity="1.0"
     inkscape:pageshadow="2"
     inkscape:pageopacity="0.0"
     inkscape:pagecheckerboard="0"
     showgrid="false"
     inkscape:zoom="4.2625"
     inkscape:cx="122.34604"
     inkscape:cy="66.158358"
     inkscape:window-width="1920"
     inkscape:window-height="1059"
     inkscape:window-x="0"
     inkscape:window-y="0"
     inkscape:window-maximized="1"
     inkscape:current-layer="svg56"
     fit-margin-top="0"
     fit-margin-left="0"
     fit-margin-right="0"
     fit-margin-bottom="0"
     inkscape:snap-global="false" />
  <title
     id="title2">160 Web Icon Set 104 expanded</title>
  <path
     style="fill:#d3d7cf;fill-rule:evenodd;stroke:#d3d7cf;stroke-width:2;stroke-linecap:round;stroke-miterlimit:4;stroke-dasharray:none"
     d="m 61.521919,66.341993 c -1.217722,-0.742454 -1.696843,-1.74872 -1.697858,-3.565898 -0.0012,-2.146064 -0.512748,-2.75692 -2.54102,-3.034303 -3.893662,-0.532492 -6.378303,-3.434618 -6.083614,-7.10582 0.137205,-1.709283 0.74605,-2.990231 1.976312,-4.157959 1.581098,-1.500731 2.240469,-1.72673 5.03789,-1.72673 2.085816,0 2.57393,-0.07031 2.970103,-0.427823 0.678435,-0.612231 0.798684,-1.371855 0.397269,-2.509586 -0.459888,-1.303462 -0.441881,-2.274539 0.06073,-3.274923 0.584863,-1.164097 1.762385,-1.881856 3.084183,-1.879963 1.215095,0.0017 1.923771,0.393266 3.046023,1.682853 1.208563,1.388768 2.308194,1.409761 3.648303,0.06965 0.7167,-0.7167 1.821528,-0.763324 2.649779,-0.111823 0.8608,0.677106 2.273586,0.627007 3.00723,-0.106638 0.316716,-0.316715 0.575848,-0.730903 0.575848,-0.920416 0,-0.486939 1.104931,-1.740935 1.893128,-2.148527 0.958023,-0.495413 2.142848,-0.423456 3.035944,0.184379 1.170165,0.796408 1.65002,1.594942 1.851756,3.081534 0.297748,2.19411 0.956889,2.569335 3.776357,2.149735 1.888441,-0.281042 3.561672,1.128821 3.883038,3.271846 0.181475,1.210165 0.799439,1.8576 2.102975,2.203266 2.200793,0.583599 4.20696,2.54943 4.807399,4.71074 0.840009,3.023673 -0.710445,6.305265 -3.618926,7.659576 -1.31352,0.611629 -2.55539,0.697016 -4.295523,0.295345 -1.626893,-0.375533 -2.469506,0.08602 -2.983808,1.634438 -0.482116,1.451519 -1.821701,3.025729 -3.049217,3.583284 -1.233936,0.560472 -3.24896,0.561755 -4.470572,0.0028 -0.516129,-0.236136 -1.397086,-0.814463 -1.95768,-1.285171 -1.261567,-1.059282 -2.077499,-1.107286 -3.136795,-0.184551 -2.125166,1.851193 -3.491741,1.894534 -5.548721,0.175977 -0.702845,-0.587198 -1.245548,-0.847245 -1.768178,-0.847245 -0.862732,0 -1.200314,0.235643 -2.100944,1.466522 -1.16267,1.589006 -3.025767,2.045586 -4.55141,1.11539 z"
     id="path2435" />
  <path
     id="path4488"
     style="fill:#d3d7cf;fill-rule:evenodd;stroke:#d3d7cf;stroke-width:0.469208;stroke-linecap:round;stroke-miterlimit:4;stroke-dasharray:none"
     d="M 94.462028,4.0233631 C 93.926963,4.0178287 93.380672,4.1038976 92.784293,4.2772693 91.276108,4.7157105 89.937594,5.8148332 89.038199,7.3495349 87.968316,9.175153 86.970907,9.3131582 84.924918,7.9237537 82.950202,6.5827495 81.667678,6.624738 79.909293,8.0878162 79.391223,8.5188798 79.007512,8.6359328 78.280387,8.5819568 77.408483,8.517233 77.240258,8.3861163 76.258903,7.0116443 c -1.436328,-2.0117 -2.96769,-2.8991469 -5.011719,-2.9042968 -1.91851,-0.00483 -3.226249,0.5612607 -4.410156,1.90625 -1.057843,1.2017757 -1.450759,1.8647178 -1.539063,3.1953124 -0.01154,0.098222 -0.02074,0.2057428 -0.02344,0.3183598 -0.0031,0.128081 -0.0059,0.258285 0.002,0.414062 0.0017,0.4365393 0.01573,0.9179553 0.04883,1.5136723 0.140919,2.536531 0.119781,2.737413 -0.330078,3.144531 -0.479284,0.433745 -0.61255,1.370501 -0.339844,2.386719 0.110727,0.412619 0.375003,0.527645 1.511719,0.65625 3.830428,0.433364 7.745789,4.123836 8.34375,7.863281 0.114038,0.71315 0.325825,1.084693 0.769531,1.351563 2.558624,1.538898 3.953823,2.665751 5.214844,4.208984 0.790871,0.967866 1.594523,1.726563 1.828125,1.726563 0.769329,0 3.259685,1.415026 4.072265,2.314453 0.44265,0.489962 1.09468,1.424768 1.449219,2.076172 0.609521,1.119892 0.703619,1.190854 1.736328,1.294922 2.278107,0.229565 4.643583,1.913924 5.751953,4.099609 0.65567,1.292966 1.036516,1.677288 2.496094,2.509765 0.580645,0.331177 1.227229,0.603869 1.4375,0.605469 0.50259,0.0037 1.986009,-1.702991 2.695309,-3.101562 0.30967,-0.610583 0.83467,-1.288748 1.16602,-1.50586 0.56951,-0.373154 0.70042,-0.366277 2.40234,0.101563 2.56992,0.70644 3.26423,0.780552 4.84961,0.521484 5.4259,-0.886649 9.41489,-6.286345 8.56641,-11.597656 -0.56123,-3.513138 -2.68254,-6.297698 -6.00586,-7.884766 -1.04339,-0.498281 -2.01588,-1.050364 -2.16211,-1.226562 -0.14623,-0.176198 -0.33392,-0.947196 -0.41602,-1.712891 -0.19683,-1.835245 -0.87092,-3.221619 -2.14648,-4.410156 -1.50099,-1.398592 -2.18566,-1.63391 -4.625,-1.59375 -1.85634,0.03056 -2.15928,-0.02424 -2.63868,-0.474609 -0.4418,-0.415027 -0.54296,-0.752148 -0.54296,-1.832032 0,-2.7852827 -1.180203,-5.0593341 -3.185548,-6.1367187 C 96.213513,4.2970156 95.353802,4.032587 94.462028,4.0233631 Z M 54.565543,12.372973 c -0.534653,0.01654 -1.065837,0.107476 -1.570312,0.277343 -1.109435,0.373571 -2.706926,1.713482 -3.417969,2.867188 -0.328643,0.533239 -0.764543,1.102382 -0.96875,1.263672 -0.619993,0.489699 -2.046341,0.354928 -2.785156,-0.261719 -1.899998,-1.585818 -3.185994,-1.658574 -5.203125,-0.294922 -1.962154,1.326486 -2.512383,1.136011 -4.398438,-1.52539 -1.831301,-2.584138 -5.854946,-3.069857 -8.27539,-0.998047 -1.146278,0.981172 -2.117817,2.674896 -2.300782,4.009765 -0.07587,0.553526 -0.0063,1.632375 0.15625,2.398438 0.372682,1.756155 0.1944,2.483679 -0.728515,2.960937 -0.669462,0.34619 -0.856498,0.344304 -2.402344,-0.03711 -3.447103,-0.85052 -6.338998,-0.323566 -9,1.638672 -1.496362,1.103426 -2.29264,2.134598 -3.279297,4.25 -0.5878644,1.260389 -0.6560823,1.665414 -0.6562496,3.871094 -1.777e-4,2.343498 0.041104,2.548729 0.8417966,4.222656 1.480119,3.094334 3.655165,4.837849 7.224609,5.791015 2.344802,0.626146 2.718007,0.923162 2.660157,2.123047 -0.198718,4.122041 -0.174436,4.386385 0.519531,5.587891 0.368762,0.638458 0.840013,1.321875 1.046875,1.519531 0.628562,0.600592 2.141341,1.458324 2.921875,1.65625 0.986432,0.250139 2.870427,0.04081 3.765625,-0.419922 0.399176,-0.205443 1.305947,-0.937902 2.015625,-1.626953 1.084473,-1.052955 1.428931,-1.253359 2.158203,-1.255859 0.743144,-0.0025 1.07958,0.199558 2.345703,1.412109 1.682349,1.611161 2.870475,2.092072 4.833984,1.955078 1.333103,-0.09301 2.137966,-0.430472 3.660157,-1.537109 0.963664,-0.700587 1.35334,-0.740626 2.867187,-0.296875 0.442834,0.129806 0.517373,0.02637 0.660156,-0.925781 0.568012,-3.787775 4.610546,-7.761416 8.410157,-8.265625 1.264767,-0.167833 1.442164,-0.384018 1.65625,-2.025391 0.652427,-5.002157 6.872924,-7.811712 11.267578,-5.087891 1.049895,0.650728 1.212589,0.687015 1.980469,0.433594 0.460056,-0.151834 1.548739,-0.30373 2.419922,-0.33789 1.776776,-0.06967 1.775807,-0.06971 3.304687,-1.376954 l 1.105469,-0.945312 -0.519532,-0.554688 c -0.806497,-0.859268 -3.162854,-2.356683 -4.195312,-2.666015 -1.261792,-0.378043 -1.738808,-1.066292 -1.916016,-2.761719 -0.201269,-1.925644 -0.592597,-2.759732 -1.941406,-4.136719 -1.38301,-1.411902 -2.343159,-1.742187 -5.066406,-1.742187 -2.614067,0 -2.824904,-0.208072 -3.023438,-3.015625 -0.159632,-2.257392 -0.528372,-3.180715 -1.765625,-4.417969 -1.156115,-1.156114 -2.804243,-1.774222 -4.408203,-1.724608 z" />
  <path
     style="fill:#d3d7cf;fill-rule:evenodd;stroke:#d3d7cf;stroke-width:0.469208;stroke-linecap:round;stroke-miterlimit:4;stroke-dasharray:none"
     d="m 23.745721,53.067354 c -2.67341,-1.332216 -3.961408,-4.373194 -3.109852,-7.342398 0.16449,-0.573541 0.139026,-0.997199 -0.09336,-1.553389 -0.40104,-0.959822 -0.524629,-1.032563 -2.432622,-1.431768 -4.405924,-0.921839 -7.5736,-4.181241 -8.2707683,-8.51026 -0.5851959,-3.633734 1.1964073,-7.668915 4.3185713,-9.781201 2.485749,-1.681723 5.47197,-2.135201 8.450845,-1.283319 1.406818,0.402314 1.706164,0.420825 2.36353,0.14616 1.02966,-0.430219 1.463159,-1.492285 1.101628,-2.698971 -1.070923,-3.57442 0.786601,-7.064835 4.269769,-8.023191 2.003514,-0.551245 4.783807,0.562994 5.94398,2.382128 1.753706,2.749784 2.418424,2.888257 4.978065,1.037025 1.431702,-1.035462 3.189102,-0.744782 4.67002,0.772439 0.366125,0.375101 0.789224,0.527859 1.462027,0.527859 1.066393,0 1.501011,-0.362845 2.584894,-2.158021 0.765278,-1.267492 2.571831,-2.435522 4.127831,-2.668858 2.559953,-0.383889 5.53779,1.585728 6.285365,4.157302 0.201018,0.69148 0.339202,1.873036 0.307073,2.625682 -0.05283,1.237705 0.0033,1.421512 0.58702,1.92389 0.587082,0.505229 0.84159,0.551975 2.815249,0.517079 2.534759,-0.04482 3.510407,0.335859 4.952887,1.932512 1.077644,1.192824 1.323629,1.797776 1.556781,3.828604 0.207151,1.804345 0.57939,2.361076 1.846874,2.762237 1.194712,0.378128 2.743463,1.299432 3.821229,2.273128 l 0.917227,0.828661 -1.34568,1.197103 c -0.740124,0.658407 -1.455209,1.162295 -1.589074,1.119752 -0.617138,-0.196129 -2.968127,-0.03245 -3.674632,0.255838 -0.733075,0.299125 -0.848599,0.278534 -1.729556,-0.308291 -1.30507,-0.869335 -2.428286,-1.189844 -4.169778,-1.189844 -3.90133,0 -7.225504,2.933978 -7.616511,6.722478 l -0.125026,1.211394 -1.422348,0.264514 c -3.925525,0.73003 -7.281548,3.875946 -8.283327,7.764746 L 46.831705,51.969057 46.0375,51.637216 c -0.923196,-0.385736 -1.539031,-0.244363 -2.519296,0.578337 -1.141258,0.957816 -2.463318,1.4458 -3.932176,1.4514 -1.79665,0.0069 -3.117992,-0.63875 -4.584634,-2.240022 -1.029433,-1.123929 -1.274238,-1.273888 -2.079603,-1.273888 -0.803835,0 -1.059173,0.155477 -2.138586,1.3022 -0.674171,0.716209 -1.674036,1.50568 -2.221923,1.754379 -1.45792,0.661781 -3.311954,0.607008 -4.815556,-0.142268 z"
     id="path4449" />
  <path
     id="path1069"
     style="fill:#3465a4;fill-rule:evenodd;stroke:#3465a4;stroke-width:3;stroke-linecap:round;stroke-miterlimit:4;stroke-dasharray:none"
     d="m 7.1907241,85.578051 c -0.2050027,0 -0.8890606,1.061493 -1.6738281,2.595703 -1.5238519,2.97911 -1.6233991,2.473775 1.0332031,5.205078 0.97265,1 1.7985035,1.81836 1.8359375,1.81836 0.08167,-10e-7 5.3080904,-2.607579 5.4101564,-2.699219 0.137049,-0.123044 -0.863877,-5.813092 -1.052734,-5.984375 -0.17713,-0.160647 -4.7767818,-0.935547 -5.5527349,-0.935547 z" />
  <path
     id="path1148"
     style="fill:#3465a4;fill-rule:evenodd;stroke:#3465a4;stroke-width:3;stroke-linecap:round;stroke-miterlimit:4;stroke-dasharray:none"
     d="m 22.804005,63.798754 c -0.106194,0.04347 -1.252573,0.852322 -2.548828,1.796875 l -2.357422,1.716797 0.947266,3.033203 0.947266,3.033203 h 3.105468 3.105469 l 0.974609,-2.925781 c 0.536427,-1.609674 0.916057,-3.026337 0.841797,-3.146485 -0.240567,-0.389245 -4.816423,-3.589352 -5.015625,-3.507812 z" />
  <path
     id="path1227"
     style="fill:#3465a4;fill-rule:evenodd;stroke:#3465a4;stroke-width:3;stroke-linecap:round;stroke-miterlimit:4;stroke-dasharray:none"
     d="m 45.497365,78.322192 c -0.0472,9.32e-4 -0.07649,0.0055 -0.08398,0.01367 -0.04422,0.04822 -0.680917,1.290985 -1.416015,2.761719 l -1.337891,2.673828 2.185547,2.19336 c 1.201667,1.206685 2.212714,2.193359 2.246094,2.193359 0.03338,0 1.276426,-0.604411 2.761718,-1.34375 1.686701,-0.839595 2.698613,-1.478429 2.695313,-1.701172 -0.0164,-1.117628 -0.927321,-5.719381 -1.160156,-5.863281 C 51.087293,79.06408 46.205373,78.30821 45.49737,78.322191 Z" />
  <path
     id="path1306"
     style="fill:#3465a4;fill-rule:evenodd;stroke:#3465a4;stroke-width:3;stroke-linecap:round;stroke-miterlimit:4;stroke-dasharray:none"
     d="m 32.493459,104.16594 c -0.02737,0.0349 -0.696025,1.27785 -1.484376,2.76172 l -1.433593,2.69726 2.158203,2.16992 c 1.186897,1.19355 2.242279,2.16993 2.34375,2.16993 0.14323,0 5.30343,-2.5068 5.5,-2.67188 0.04463,-0.0375 -0.892158,-6.08551 -0.955078,-6.16602 -0.06253,-0.08 -6.079856,-1.02343 -6.128906,-0.96093 z" />
  <path
     style="fill:#3465a4;fill-rule:evenodd;stroke:#3465a4;stroke-width:3;stroke-linecap:round;stroke-miterlimit:4;stroke-dasharray:none"
     d="m 63.378875,112.94428 -2.184976,-2.1941 1.172973,-2.32203 c 1.782259,-3.52818 1.353815,-3.26371 4.511205,-2.78471 1.475821,0.22389 2.844207,0.48971 3.040858,0.59071 0.251013,0.12893 0.489057,1.0642 0.798918,3.13896 0.242754,1.62542 0.398573,2.99483 0.346265,3.04314 -0.114171,0.10544 -5.336798,2.72213 -5.433074,2.72213 -0.03696,0 -1.050432,-0.98735 -2.252169,-2.1941 z"
     id="path1385" />
  <path
     id="path1582"
     style="fill:#3465a4;fill-rule:evenodd;stroke:#3465a4;stroke-width:3;stroke-linecap:round;stroke-miterlimit:4;stroke-dasharray:none"
     d="m 73.346974,78.304613 c -0.249255,0 -0.858077,0.947704 -1.771484,2.757813 l -1.390625,2.755859 2.152344,2.175781 c 1.183365,1.196562 2.255732,2.145616 2.384765,2.109376 0.129032,-0.03624 1.429853,-0.676219 2.888672,-1.421876 2.085157,-1.065802 2.626213,-1.441763 2.533203,-1.757812 -0.06507,-0.221115 -0.297199,-1.591193 -0.515625,-3.044922 -0.351236,-2.337633 -0.45504,-2.65395 -0.892578,-2.74414 -1.056353,-0.217756 -5.028793,-0.830079 -5.388672,-0.830079 z" />
  <path
     id="path1661"
     style="fill:#3465a4;fill-rule:evenodd;stroke:#3465a4;stroke-width:3;stroke-linecap:round;stroke-miterlimit:4;stroke-dasharray:none"
     d="m 103.81377,80.519457 -1.49414,2.791016 -1.49414,2.789062 2.19336,2.203125 c 1.20637,1.21141 2.23636,2.203125 2.28906,2.203125 0.0527,0 1.3282,-0.645086 2.83398,-1.43164 l 2.73633,-1.429688 -0.48242,-3.085937 -0.48437,-3.085938 -3.04883,-0.476562 z" />
  <path
     id="path1740"
     style="fill:#3465a4;fill-rule:evenodd;stroke:#3465a4;stroke-width:3;stroke-linecap:round;stroke-miterlimit:4;stroke-dasharray:none"
     d="m 95.710255,106.48625 -1.384765,2.74219 -1.384766,2.74219 2.148438,2.16992 c 1.180817,1.19355 2.226318,2.16992 2.324218,2.16992 0.0979,0 1.370261,-0.59268 2.82812,-1.31836 l 2.65039,-1.32031 -0.48242,-3.07813 -0.48437,-3.08008 -2.222657,-0.3789 c -1.222855,-0.20866 -2.62076,-0.43967 -3.107422,-0.51367 z" />
  <path
     id="path1819"
     style="fill:#3465a4;fill-rule:evenodd;stroke:#3465a4;stroke-width:3;stroke-linecap:round;stroke-miterlimit:4;stroke-dasharray:none"
     d="m 117.01885,56.546801 c -0.045,-0.0031 -0.0712,-0.0023 -0.0742,0.002 -0.0221,0.03071 -0.66256,1.240363 -1.42383,2.6875 l -1.38476,2.630859 2.10742,2.119141 c 1.1586,1.165766 2.19094,2.119141 2.29492,2.119141 0.13623,0 4.75271,-2.360463 5.27148,-2.695313 0.068,-0.0439 -0.86547,-5.81665 -0.95507,-5.90625 -0.0845,-0.08448 -5.16134,-0.909989 -5.83594,-0.957031 z" />
  <path
     d="m 5.5859484,32.778987 a 14.26727,14.26727 0 0 0 10.6767596,13.84668 10.25569,10.25569 0 0 0 -0.05664,1.085 10.09787,10.09787 0 0 0 10,10.16992 9.85913,9.85913 0 0 0 6.68945,-2.60742 9.88069,9.88069 0 0 0 12.02344,1.043 13.01335,13.01335 0 0 0 3.99267,2.82505 c -0.0979,-0.46747 -0.18195,-0.94031 -0.23486,-1.42377 a 14.86806,14.86806 0 0 1 0.02631,-3.37207 9.10025,9.10025 0 0 1 -1.83783,-1.95605 2.00168,2.00168 0 0 0 -1.46582,-0.85937 c -0.06152,-0.0059 -0.123,-0.0088 -0.18359,-0.0088 a 1.99884,1.99884 0 0 0 -1.41406,0.58594 5.90045,5.90045 0 0 1 -9.2207,-1 1.9999,1.9999 0 0 0 -3.37207,10e-4 5.92034,5.92034 0 0 1 -5.00293,2.77246 6.1838,6.1838 0 0 1 -5.6543,-8.21973 2,2 0 0 0 -1.73437,-2.66112 10.26562,10.26562 0 0 1 0.76854,-20.4756 9.598,9.598 0 0 1 3.76074,0.751 1.99963,1.99963 0 0 0 2.64844,-2.55273 6.2886,6.2886 0 0 1 -0.40918,-2.24124 6.09337,6.09337 0 0 1 6,-6.16992 6.01045,6.01045 0 0 1 5.46973,3.626 1.99976,1.99976 0 0 0 3.334,0.5127 3.56381,3.56381 0 0 1 5.49609,0.11523 1.99961,1.99961 0 0 0 3.41018,-0.48928 5.98983,5.98983 0 0 1 5.53023,-3.76465 6.09337,6.09337 0 0 1 6,6.16992 6.61092,6.61092 0 0 1 -0.06934,0.957 2.00061,2.00061 0 0 0 2.49707,2.2207 5.93281,5.93281 0 0 1 1.53223,-0.19727 6.09422,6.09422 0 0 1 6,6.1709 c 0,0.12012 0.001,0.23926 -0.0059,0.35254 a 1.99985,1.99985 0 0 0 1.458,2.05273 9.99026,9.99026 0 0 1 5.85443,4.51367 c 0.23444,-0.0064 0.46844,-0.0066 0.70221,0.0029 a 11.50874,11.50874 0 0 1 2.837,-1.87433 14.07164,14.07164 0 0 0 -6.88971,-6.00946 10.08135,10.08135 0 0 0 -9.95605,-9.209 h -0.0098 a 10.07987,10.07987 0 0 0 -9.95014,-9.1503 9.91969,9.91969 0 0 0 -7.91113,3.93848 7.72137,7.72137 0 0 0 -7.49023,-0.08594 9.962,9.962 0 0 0 -7.83887,-3.85254 10.09787,10.09787 0 0 0 -10,10.16992 c 0,0.06152 0.001,0.124 0.002,0.18555 a 14.01038,14.01038 0 0 0 -16.0019996,14.1123 z"
     id="path4"
     style="fill:#888a85" />
  <path
     d="m 96.001271,44.215744 a 7.7965,7.7965 0 0 0 -2.60645,-4.14549 7.44575,7.44575 0 0 0 -5.11035,-1.7383 7.78826,7.78826 0 0 0 -2.55273,-3.94336 7.521,7.521 0 0 0 -11.02347,1.53516 5.86992,5.86992 0 0 0 -4.92676,0.49023 7.58212,7.58212 0 0 0 -5.91211,-1.94531 7.70673,7.70673 0 0 0 -6.76855,8.05176 c -0.27344,0.0088 -0.54883,0.02734 -0.8252,0.05762 a 10.57154,10.57154 0 0 0 -9.208,11.75391 10.69749,10.69749 0 0 0 8.541,9.36523 c 0.0078,0.11133 0.01758,0.22363 0.0293,0.335 a 7.82772,7.82772 0 0 0 2.7959,5.21289 7.48793,7.48793 0 0 0 4.79887,1.74317 7.65236,7.65236 0 0 0 0.83008,-0.04492 7.48824,7.48824 0 0 0 4.49316,-2.15625 7.49951,7.49951 0 0 0 8.38184,-0.21094 9.5901,9.5901 0 0 0 6.88477,1.93457 9.7327,9.7327 0 0 0 7.6787,-5.53227 10.27588,10.27588 0 0 0 9.588869,-3.89258 10.81957,10.81957 0 0 0 -5.088869,-16.87012 z m 1.93359,14.41211 a 6.27284,6.27284 0 0 1 -4.291,2.416 6.19492,6.19492 0 0 1 -2.74707,-0.31445 1.99914,1.99914 0 0 0 -2.60645,1.40625 5.77239,5.77239 0 0 1 -4.90332,4.39844 5.67511,5.67511 0 0 1 -4.92383,-1.99316 2.04884,2.04884 0 0 0 -1.55566,-0.70117 2.00347,2.00347 0 0 0 -1.53027,0.75391 3.525,3.525 0 0 1 -5.58105,-10e-4 2,2 0 0 0 -3.36035,0.36816 3.55815,3.55815 0 0 1 -2.80859,2.00589 3.48978,3.48978 0 0 1 -2.64453,-0.80469 3.9095,3.9095 0 0 1 -1.29687,-3.84473 1.99934,1.99934 0 0 0 -1.94824,-2.45117 c -0.02148,0 -0.04395,0 -0.06641,10e-4 a 6.64286,6.64286 0 0 1 -6.627,-5.9707 6.56764,6.56764 0 0 1 5.667,-7.3418 6.09983,6.09983 0 0 1 2.44238,0.21875 2.00016,2.00016 0 0 0 2.36328,-2.82129 3.92866,3.92866 0 0 1 -0.39941,-1.34766 3.71234,3.71234 0 0 1 3.18653,-4.15918 3.61823,3.61823 0 0 1 3.52051,1.84375 2.00086,2.00086 0 0 0 3.37793,0.14453 1.88934,1.88934 0 0 1 1.35938,-0.82617 1.90925,1.90925 0 0 1 1.56738,0.56641 2.00042,2.00042 0 0 0 3.3457,-0.85645 3.61809,3.61809 0 0 1 3.06445,-2.65039 3.49491,3.49491 0 0 1 2.64453,0.80469 3.84689,3.84689 0 0 1 1.36719,2.56443 4.0353,4.0353 0 0 1 0.02246,0.59375 1.99987,1.99987 0 0 0 2.72461,1.93652 3.56025,3.56025 0 0 1 0.9043,-0.21875 3.50373,3.50373 0 0 1 2.64355,0.80469 3.84627,3.84627 0 0 1 1.36816,2.56641 c 0.0078,0.07129 0.01758,0.14258 0.02051,0.21 a 2.00108,2.00108 0 0 0 1.668,1.88281 6.64974,6.64974 0 0 1 5.40723,5.8916 6.7659,6.7659 0 0 1 -1.37503,4.92477 z"
     id="path6"
     style="fill:#888a85" />
  <path
     d="m 30.486621,64.043874 -5.2041,-3.78027 a 3.98593,3.98593 0 0 0 -4.70312,0 l -5.20313,3.77929 a 3.99073,3.99073 0 0 0 -1.4541,4.47266 l 1.98828,6.11719 a 3.98944,3.98944 0 0 0 3.80371,2.76563 h 6.43359 a 3.9934,3.9934 0 0 0 3.80469,-2.76465 l 1.9873,-6.11914 a 3.98888,3.98888 0 0 0 -1.45312,-4.47071 z m -4.33887,9.35449 -6.43262,-0.001 -1.98828,-6.11719 5.2041,-3.78125 5.2041,3.78027 z"
     id="path8"
     style="fill:#babdb6" />
  <path
     d="m 39.631151,86.655204 4.54883,4.54883 a 3.99221,3.99221 0 0 0 4.64453,0.73633 l 5.7334,-2.92187 a 3.99289,3.99289 0 0 0 2.13379,-4.18945 l -1.00684,-6.35449 a 3.99182,3.99182 0 0 0 -3.32422,-3.32422 h -10e-4 l -6.35547,-1.00684 a 3.99569,3.99569 0 0 0 -4.18845,2.13476 l -2.91992,5.73145 a 3.99054,3.99054 0 0 0 0.73535,4.6455 z m 5.748,-8.56055 6.35449,1.00684 1.00684,6.35352 -5.73242,2.9209 -4.54879,-4.54884 z"
     id="path10"
     style="fill:#babdb6" />
  <path
     d="m 113.96416,80.753834 a 3.98849,3.98849 0 0 0 -3.32617,-3.32422 l -6.35254,-1.00684 a 3.99988,3.99988 0 0 0 -4.19043,2.13477 l -2.919919,5.73145 a 3.9883,3.9883 0 0 0 0.73535,4.64551 l 4.548829,4.54883 a 3.98931,3.98931 0 0 0 4.64453,0.73535 l 5.73146,-2.91993 a 3.99149,3.99149 0 0 0 2.13477,-4.19043 z m -8.67676,9.90137 -4.54883,-4.54883 2.91992,-5.73242 6.35352,1.00684 h 10e-4 v -10e-4 l 1.00586,6.35449 z"
     id="path12"
     style="fill:#babdb6" />
  <path
     d="m 106.97002,113.0966 -1.00586,-6.35547 a 3.99288,3.99288 0 0 0 -3.3252,-3.32422 l -6.355469,-1.00684 a 3.99919,3.99919 0 0 0 -4.18848,2.13477 l -2.91991,5.73141 a 3.9883,3.9883 0 0 0 0.73535,4.64551 l 4.54883,4.54883 a 3.99221,3.99221 0 0 0 4.64453,0.73633 l 5.731449,-2.9209 a 3.98948,3.98948 0 0 0 2.13476,-4.18942 z m -9.682619,3.5459 -4.54883,-4.54883 2.91993,-5.73242 6.353519,1.00684 0.31348,-1.97559 -0.3125,1.97461 1.00586,6.35449 z"
     id="path14"
     style="fill:#babdb6" />
  <path
     d="m 74.584271,92.377854 a 4.00706,4.00706 0 0 0 1.81738,-0.4375 l 5.7334,-2.92187 a 3.99087,3.99087 0 0 0 2.13379,-4.18945 l -1.00684,-6.35254 a 3.98849,3.98849 0 0 0 -3.32422,-3.32617 h -0.001 l -6.35547,-1.00684 a 3.9971,3.9971 0 0 0 -4.18844,2.13477 l -2.91895,5.73145 a 3.9903,3.9903 0 0 0 0.73438,4.64551 l 4.5498,4.5498 a 3.99265,3.99265 0 0 0 2.82617,1.17284 z m -1.627,-14.2832 6.35352,1.00684 1.00684,6.35352 -5.73236,2.92089 -4.54785,-4.54883 z"
     id="path16"
     style="fill:#babdb6" />
  <path
     d="m 126.96221,56.716724 a 3.99285,3.99285 0 0 0 -3.3252,-3.3252 h -0.001 l -6.17383,-0.97754 a 4.00351,4.00351 0 0 0 -4.1875,2.13477 l -2.83789,5.56836 a 3.99009,3.99009 0 0 0 0.73633,4.64453 l 4.418,4.418 a 3.98783,3.98783 0 0 0 4.64551,0.7373 l 5.56934,-2.83789 a 3.99427,3.99427 0 0 0 2.13379,-4.18945 z m -8.542,9.63574 -4.41894,-4.41894 2.83789,-5.56836 6.17188,0.97754 0.97754,6.17285 z"
     id="path18"
     style="fill:#babdb6" />
  <path
     d="m 75.268851,111.81535 -1.00684,-6.35352 a 3.98849,3.98849 0 0 0 -3.32422,-3.32617 h -0.001 l -6.35547,-1.00684 a 3.99848,3.99848 0 0 0 -4.18848,2.13477 l -2.91992,5.73242 a 3.98938,3.98938 0 0 0 0.73535,4.64453 l 4.5498,4.5498 a 3.99221,3.99221 0 0 0 4.64355,0.73535 l 5.7334,-2.92187 a 3.99023,3.99023 0 0 0 2.13383,-4.18847 z m -9.68358,3.5459 -4.54785,-4.54883 2.91992,-5.73242 6.35352,1.00684 1.00684,6.35352 z"
     id="path20"
     style="fill:#babdb6" />
  <path
     d="m 28.815721,102.16398 -2.91992,5.73145 a 3.99054,3.99054 0 0 0 0.73535,4.64551 l 4.54883,4.54883 a 3.99221,3.99221 0 0 0 4.64453,0.73633 l 5.7334,-2.92187 a 3.99226,3.99226 0 0 0 2.13379,-4.18848 l -1.00684,-6.3555 a 3.99182,3.99182 0 0 0 -3.32422,-3.32422 h -10e-4 l -6.35349,-1.00678 a 4.00544,4.00544 0 0 0 -4.19043,2.13473 z m 10.9248,9.17676 -5.73242,2.9209 -4.54883,-4.54883 2.91992,-5.73242 6.35449,1.00684 z"
     id="path22"
     style="fill:#babdb6" />
  <path
     d="m 5.591111,98.191334 a 3.99088,3.99088 0 0 0 4.64941,0.73633 l 5.56934,-2.84082 a 3.99094,3.99094 0 0 0 2.13086,-4.18848 l -0.97754,-6.18848 a 3.99182,3.99182 0 0 0 -3.32422,-3.32422 l -6.17187,-0.97949 a 3.99486,3.99486 0 0 0 -4.19141,2.13672 l -2.83886005,5.58106 a 3.99229,3.99229 0 0 0 0.73438005,4.64063 z m 1.249,-12.834 6.17188,0.97949 v -10e-4 l 0.97852,6.18848 -5.56932,2.84086 -4.41992,-4.42676 z"
     id="path24"
     style="fill:#babdb6" />
  <path
     d="m 6.001271,62.194254 v 2.334 a 2.0000002,2.0000002 0 0 0 4,0 v -2.334 a 2.0000002,2.0000002 0 0 0 -4,0 z"
     id="path26"
     style="fill:#729fcf" />
  <path
     d="m 27.652641,94.615164 a 2.765,2.765 0 0 1 0.40039,-1.53418 1.99979,1.99979 0 0 0 -3.41016,-2.08984 6.80043,6.80043 0 0 0 -0.98633,3.78418 1.99967,1.99967 0 0 0 1.99707,1.91993 c 0.02637,0 0.05371,-0.001 0.08105,-0.002 a 1.999,1.999 0 0 0 1.91798,-2.07809 z"
     id="path28"
     style="fill:#3465a4" />
  <path
     d="m 12.062791,116.6757 a 2.03106,2.03106 0 0 0 0.24316,0.0147 1.99941,1.99941 0 0 0 1.98242,-1.75977 14.711,14.711 0 0 0 -0.17871,-4.65723 1.99966,1.99966 0 1 0 -3.92187,0.7832 10.75926,10.75926 0 0 1 0.12988,3.39355 1.99956,1.99956 0 0 0 1.74512,2.2256 z"
     id="path30"
     style="fill:#729fcf" />
  <path
     d="m 54.468071,96.784104 -2.65332,2.01758 a 2.0000468,2.0000468 0 0 0 2.42188,3.183586 l 2.65332,-2.017576 a 2.0000437,2.0000437 0 0 0 -2.42187,-3.18359 z"
     id="path32"
     style="fill:#729fcf" />
  <path
     d="m 40.233691,68.981374 a 1.97215,1.97215 0 0 0 0.36816,0.03418 2.00021,2.00021 0 0 0 1.96387,-1.63379 l 0.373,-1.99219 a 1.99981,1.99981 0 1 0 -3.93162,-0.73437 l -0.373,1.99414 a 1.99913,1.99913 0 0 0 1.59959,2.33203 z"
     id="path34"
     style="fill:#729fcf" />
  <path
     d="m 94.305961,77.996024 a 2.00326,2.00326 0 0 0 2.29492,-1.6543 6.94187,6.94187 0 0 1 0.81641,-2.32129 1.9994723,1.9994723 0 0 0 -3.47853,-1.97266 10.91154,10.91154 0 0 0 -1.28709,3.65332 2.00082,2.00082 0 0 0 1.65429,2.29493 z"
     id="path36"
     style="fill:#3465a4" />
  <path
     d="m 86.651661,101.6923 a 2.00011,2.00011 0 0 0 1.9834,-1.763666 7.733,7.733 0 0 1 1.10547,-3.15332 2.0004443,2.0004443 0 1 0 -3.39844,-2.11133 11.79693,11.79693 0 0 0 -1.67969,4.792 2.00141,2.00141 0 0 0 1.75,2.222656 2.1972,2.1972 0 0 0 0.23926,0.0137 z"
     id="path38"
     style="fill:#729fcf" />
  <path
     d="m 116.72393,97.966724 a 5.771,5.771 0 0 0 0.44141,3.600586 2.0002,2.0002 0 1 0 3.61328,-1.716796 1.77336,1.77336 0 0 1 -0.13477,-1.08887 1.99986,1.99986 0 1 0 -3.91992,-0.79492 z"
     id="path40"
     style="fill:#3465a4" />
  <path
     d="m 123.48955,79.391524 a 2.00271,2.00271 0 0 0 -2.75879,0.624 7.12335,7.12335 0 0 0 -1.05273,4.56641 2.00086,2.00086 0 0 0 1.98535,1.77932 2.15816,2.15816 0 0 0 0.22363,-0.01172 2.00172,2.00172 0 0 0 1.76758,-2.209 3.13775,3.13775 0 0 1 0.459,-1.99023 1.99953,1.99953 0 0 0 -0.62404,-2.75878 z"
     id="path42"
     style="fill:#729fcf" />
  <path
     d="m 113.73955,118.84758 a 2.20834,2.20834 0 0 1 -1.19531,1.40039 2.00015,2.00015 0 1 0 1.623,3.65625 6.18642,6.18642 0 0 0 3.4375,-4.02734 2,2 0 1 0 -3.86523,-1.0293 z"
     id="path44"
     style="fill:#729fcf" />
  <path
     d="m 77.001271,127.36125 a 1.99352,1.99352 0 0 0 1.41406,-0.58594 l 2,-2 a 1.99979,1.99979 0 0 0 -2.82812,-2.82812 l -2,2 a 2,2 0 0 0 1.41406,3.41406 z"
     id="path46"
     style="fill:#3465a4" />
  <path
     d="m 47.001271,121.36125 v 4 a 2,2 0 0 0 4,0 v -4 a 2,2 0 0 0 -4,0 z"
     id="path48"
     style="fill:#729fcf" />
  <path
     d="m 114.26932,18.35938 a 10.08135,10.08135 0 0 0 -9.95605,-9.209 h -0.01 A 10.07987,10.07987 0 0 0 94.353305,0 9.91969,9.91969 0 0 0 86.442175,3.93848 7.72137,7.72137 0 0 0 78.951945,3.85254 9.962,9.962 0 0 0 71.113075,0 a 10.09787,10.09787 0 0 0 -10,10.16992 c 0,0.06152 10e-4,0.124 0.002,0.18555 a 14.02255,14.02255 0 0 0 -2.002,-0.14258 13.73478,13.73478 0 0 0 -1.99036,0.16113 c 0.16962,0.38129 0.32764,0.7688 0.464,1.167 a 13.93961,13.93961 0 0 1 6.39868,3.54852 1.991,1.991 0 0 0 1.53687,-2.67841 6.2886,6.2886 0 0 1 -0.40919,-2.24121 6.09337,6.09337 0 0 1 6,-6.16992 6.01045,6.01045 0 0 1 5.46973,3.626 1.99976,1.99976 0 0 0 3.334,0.5127 3.56381,3.56381 0 0 1 5.49609,0.11523 1.99961,1.99961 0 0 0 3.41018,-0.48928 A 5.98983,5.98983 0 0 1 94.353305,4 a 6.09337,6.09337 0 0 1 5.999995,6.16992 6.61091,6.61091 0 0 1 -0.0693,0.957 2.00061,2.00061 0 0 0 2.49707,2.2207 5.93281,5.93281 0 0 1 1.53223,-0.19727 6.09422,6.09422 0 0 1 6,6.1709 c 0,0.12012 0.001,0.23926 -0.006,0.35254 a 1.99985,1.99985 0 0 0 1.458,2.05273 10.28955,10.28955 0 0 1 -2.65223,20.14555 9.69881,9.69881 0 0 1 -4.209,-0.94824 1.9983,1.9983 0 0 0 -2.7373,1.11133 9.17957,9.17957 0 0 1 -2.839999,3.93323 14.84182,14.84182 0 0 1 2.027099,3.50623 13.202,13.202 0 0 0 3.71521,-4.2041 13.72772,13.72772 0 0 0 4.04399,0.60155 14.145,14.145 0 0 0 14,-14.25488 14.28758,14.28758 0 0 0 -8.84375,-13.25781 z"
     id="path50"
     style="fill:#888a85" />
  <metadata
     id="metadata877">
    <rdf:RDF>
      <cc:Work
         rdf:about="">
        <dc:title>160 Web Icon Set 104 expanded</dc:title>
      </cc:Work>
    </rdf:RDF>
  </metadata>
</svg>
