<?xml version="1.0" encoding="UTF-8" standalone="no"?>
<svg
   viewBox="0 0 100 100"
   version="1.1"
   x="0px"
   y="0px"
   id="svg2"
   sodipodi:docname="satellite_1.svg"
   inkscape:version="1.4 (e7c3feb100, 2024-10-09)"
   width="100"
   height="100"
   xmlns:inkscape="http://www.inkscape.org/namespaces/inkscape"
   xmlns:sodipodi="http://sodipodi.sourceforge.net/DTD/sodipodi-0.dtd"
   xmlns="http://www.w3.org/2000/svg"
   xmlns:svg="http://www.w3.org/2000/svg"
   xmlns:rdf="http://www.w3.org/1999/02/22-rdf-syntax-ns#"
   xmlns:cc="http://creativecommons.org/ns#"
   xmlns:dc="http://purl.org/dc/elements/1.1/">
  <defs
     id="defs2" />
  <sodipodi:namedview
     id="namedview2"
     pagecolor="#ffffff"
     bordercolor="#000000"
     borderopacity="0.25"
     inkscape:showpageshadow="2"
     inkscape:pageopacity="0.0"
     inkscape:pagecheckerboard="0"
     inkscape:deskcolor="#d1d1d1"
     inkscape:zoom="3.4026667"
     inkscape:cx="-24.392633"
     inkscape:cy="40.262539"
     inkscape:window-width="1536"
     inkscape:window-height="891"
     inkscape:window-x="0"
     inkscape:window-y="0"
     inkscape:window-maximized="1"
     inkscape:current-layer="svg2" />
  <title
     id="title1">Artboard Copy 2</title>
  <desc
     id="desc1">Created with Sketch.</desc>
  <g
     id="g15"
     transform="matrix(1.2996154,0,0,1.2996154,-0.03519644,-10.919475)">
    <path
       id="path12"
       style="fill:#f6f5f4;stroke:#f6f5f4;stroke-width:0.20781"
       d="M 50.447266,28.210938 47.875,30.78125 l -2.572266,2.570312 3.34961,3.351563 3.351562,3.351563 2.572266,-2.570313 2.572266,-2.570313 -3.351563,-3.351562 z" />
    <path
       id="path14"
       style="fill:#e5a50a;stroke:#e5a50a;stroke-width:0.20781"
       d="m 25.132812,53.880859 c -0.534382,-0.01079 -1.03644,0.03825 -1.414062,0.150391 l -0.53125,0.158203 0.02148,0.04297 c -0.009,0.0045 -0.02624,0.01061 -0.0293,0.01367 -0.004,0.004 0.03581,0.05363 0.09961,0.125 l 0.05273,0.101562 c 0.07872,0.156361 1.823172,1.96201 3.876953,4.011719 1.963018,1.959125 3.635429,3.555568 3.84375,3.671875 0.0102,0.0082 0.03509,0.03125 0.03711,0.03125 0.01135,0 0.02883,-0.02311 0.04883,-0.05859 0.384115,-0.324574 0.47008,-2.350451 0.126953,-3.580078 -0.162259,-0.58147 -0.199721,-0.927719 -0.150391,-1.373047 l 0.0293,-0.269531 0.002,-0.002 c 0.01115,-0.03259 0.01479,-0.06558 0.0098,-0.101563 l 0.02539,-0.222656 -1.179688,-1.197266 -1.177734,-1.197265 -0.197266,0.01953 c -0.06364,-0.02113 -0.110899,-0.0096 -0.162109,0.01758 l -0.259766,0.02539 c -0.455785,0.04648 -0.841266,0.0066 -1.466797,-0.154297 -0.505184,-0.129973 -1.071086,-0.202096 -1.605469,-0.212891 z" />
    <path
       id="path13"
       style="fill:#f6f5f4;stroke:#f6f5f4;stroke-width:0.20781"
       d="m 45.306641,35.021484 -0.419922,0.410157 -0.419922,0.410156 2.521484,2.521484 2.519531,2.523438 0.416016,-0.416016 0.416016,-0.416015 -2.515625,-2.517579 z" />
    <path
       id="path11"
       style="fill:#f6f5f4;stroke:#f6f5f4;stroke-width:0.20781"
       d="m 41.144531,34.1875 -6.388672,6.388672 -6.388671,6.386719 0.828124,0.830078 0.828126,0.828125 1.066406,-1.046875 c 1.281987,-1.256593 1.452003,-1.36262 1.802734,-1.132813 0.491108,0.321786 0.354299,0.60924 -0.894531,1.875 l -1.148438,1.164063 3.759766,3.703125 c 2.06825,2.037077 3.794458,3.705078 3.835937,3.705078 0.128331,0 12.675782,-12.481717 12.675782,-12.609375 0,-8.14e-4 -0.0073,-0.0084 -0.0078,-0.0098 l 0.0078,-0.0078 -0.05273,-0.05273 c -0.25699,-0.315118 -1.807594,-1.909676 -3.685552,-3.787092 l -3.738281,-3.736328 -4.558593,4.541015 c -4.6595,4.641707 -4.825979,4.783397 -5.191407,4.417969 -0.06858,-0.06858 -0.125,-0.263289 -0.125,-0.433593 0,-0.269409 0.587582,-0.898345 4.519531,-4.839844 l 4.517579,-4.529297 -0.830079,-0.828125 z" />
    <path
       id="path2"
       style="fill:#99c1f1;stroke:#99c1f1;stroke-width:0.20781"
       d="m 21.716797,31.900391 -2.078125,2.076171 -2.080078,2.076172 3.298828,3.300782 3.298828,3.298828 2.078125,-2.078125 2.080078,-2.078125 -3.298828,-3.296875 z" />
    <path
       style="fill:#99c1f1;stroke:#99c1f1;stroke-width:0.20781"
       d="m 13.299992,31.795046 -3.271586,-3.272823 2.076512,-2.078461 2.076513,-2.078462 3.299593,3.298385 3.299594,3.298385 -2.050975,2.0529 c -1.128036,1.129095 -2.07507,2.052899 -2.10452,2.052899 -0.02945,0 -1.525758,-1.47277 -3.325131,-3.272823 z"
       id="path3" />
    <path
       style="fill:#99c1f1;stroke:#99c1f1;stroke-width:0.20781"
       d="m 5.7920403,24.287104 -3.2987,-3.299909 2.0786684,-2.076719 2.0786684,-2.07672 3.2983297,3.29833 3.2983302,3.29833 -2.078299,2.078298 -2.0782978,2.078298 z"
       id="path4" />
    <path
       style="fill:#99c1f1;stroke:#99c1f1;stroke-width:0.20781"
       d="m 25.948942,34.261335 -3.29887,-3.300078 1.14354,-1.139995 c 1.20932,-1.20557 1.355875,-1.490645 0.953525,-1.854767 -0.420878,-0.380889 -0.708229,-0.238926 -1.906521,0.941899 l -1.130337,1.113859 -3.295076,-3.295075 -3.295076,-3.295076 1.115987,-1.119459 c 0.949619,-0.952572 1.115987,-1.168668 1.115987,-1.44956 0,-0.35657 -0.301075,-0.6536 -0.662502,-0.6536 -0.115862,0 -0.689118,0.48194 -1.356644,1.140536 l -1.155999,1.140537 -3.296051,-3.297259 -3.2960505,-3.297258 2.5204835,-2.518908 2.520483,-2.518909 3.29949,3.300698 3.299489,3.300698 -0.680606,0.673575 c -0.374333,0.370467 -0.70733,0.77912 -0.739994,0.908118 -0.0938,0.370443 0.217308,0.752553 0.612713,0.752553 0.271581,0 0.462228,-0.128548 1.037949,-0.699857 l 0.705261,-0.699857 3.293037,3.293038 3.293038,3.293037 -0.696713,0.721671 c -0.778445,0.806327 -0.902369,1.209474 -0.465785,1.51527 0.389614,0.272896 0.594643,0.188719 1.368874,-0.562012 l 0.746417,-0.723759 3.294894,3.296101 3.294894,3.296101 -2.520483,2.518908 -2.520484,2.518909 z"
       id="path5" />
    <path
       style="fill:#99c1f1;stroke:#99c1f1;stroke-width:0.20781"
       d="m 66.16278,74.473679 -3.296189,-3.298892 1.140859,-1.152081 c 1.201641,-1.213461 1.343843,-1.489396 0.950843,-1.845054 -0.420877,-0.380889 -0.708228,-0.238926 -1.906521,0.941899 L 61.921436,70.23341 58.62636,66.938334 55.331284,63.643259 56.447271,62.5238 c 0.949619,-0.952572 1.115987,-1.168669 1.115987,-1.44956 0,-0.35657 -0.301075,-0.6536 -0.662503,-0.6536 -0.115861,0 -0.689117,0.481939 -1.356643,1.140536 l -1.155999,1.140537 -3.296051,-3.297259 -3.296051,-3.297258 2.520484,-2.518909 2.520483,-2.518908 3.299489,3.300698 3.29949,3.300698 -0.680606,0.673575 c -0.374333,0.370466 -0.70733,0.779119 -0.739994,0.908118 -0.0938,0.370442 0.217308,0.752553 0.612713,0.752553 0.27158,0 0.462228,-0.128548 1.037949,-0.699857 l 0.705261,-0.699857 3.293037,3.293038 3.293038,3.293037 -0.696714,0.721671 c -0.778444,0.806327 -0.902368,1.209473 -0.465784,1.515269 0.389614,0.272897 0.594643,0.18872 1.368874,-0.562011 l 0.746417,-0.72376 3.294894,3.296102 3.294893,3.296101 -2.520483,2.518908 -2.520483,2.518909 z"
       id="path6" />
    <path
       style="fill:#99c1f1;stroke:#99c1f1;stroke-width:0.20781"
       d="m 46.003197,64.49826 -3.2987,-3.299908 2.078669,-2.076719 2.078668,-2.07672 3.29833,3.29833 3.29833,3.29833 -2.078299,2.078298 -2.078298,2.078297 z"
       id="path7" />
    <path
       style="fill:#99c1f1;stroke:#99c1f1;stroke-width:0.20781"
       d="m 53.511149,72.006203 -3.271586,-3.272823 2.076512,-2.078462 2.076513,-2.078461 3.299593,3.298385 3.299594,3.298385 -2.050975,2.0529 c -1.128036,1.129094 -2.07507,2.052899 -2.10452,2.052899 -0.02945,0 -1.525759,-1.47277 -3.325131,-3.272823 z"
       id="path8" />
    <path
       style="fill:#99c1f1;stroke:#99c1f1;stroke-width:0.20781"
       d="m 61.069393,79.564456 -3.2987,-3.299908 2.078668,-2.07672 2.078669,-2.076719 3.298329,3.29833 3.298331,3.298329 -2.078299,2.078298 -2.078298,2.078298 z"
       id="path9" />
    <g
       stroke="none"
       stroke-width="1"
       fill="none"
       fill-rule="evenodd"
       id="g1"
       transform="matrix(1.1846039,0,0,1.1846039,-5.3644805,3.6710994)"
       style="fill:#3d3846">
      <path
         d="m 20,37.287671 h 8 v -6.082192 h -8 v 1.527398 c 0,0.276142 -0.223858,0.5 -0.5,0.5 -0.276142,0 -0.5,-0.223858 -0.5,-0.5 v -1.527398 h -8 v 1.527398 c 0,0.276142 -0.223858,0.5 -0.5,0.5 -0.276142,0 -0.5,-0.223858 -0.5,-0.5 V 31.205479 H 2 v 6.082192 h 8 v -2.541096 c 0,-0.276142 0.223858,-0.5 0.5,-0.5 0.276142,0 0.5,0.223858 0.5,0.5 v 2.541096 h 8 v -2.541096 c 0,-0.276142 0.223858,-0.5 0.5,-0.5 0.276142,0 0.5,0.223858 0.5,0.5 z m -1,6.082192 V 38.30137 h -8 v 5.068493 z m 1,0 h 8 V 38.30137 h -8 z m -10,0 V 38.30137 H 2 v 5.068493 z m 23,-6.082192 v 1.013699 5.068493 h 2 v -2.541096 c 0,-0.276142 0.223858,-0.5 0.5,-0.5 0.276142,0 0.5,0.223858 0.5,0.5 v 2.541096 h 9 V 38.30137 37.287671 28.164384 h -2 -1 -6 v 10.650685 c 0,0.276142 -0.223858,0.5 -0.5,0.5 -0.276142,0 -0.5,-0.223858 -0.5,-0.5 V 28.164384 h -2 z m 26,1.013699 v 5.068493 h 8 V 38.30137 Z m 0,-1.013699 h 8 v -2.541096 c 0,-0.276142 0.223858,-0.5 0.5,-0.5 0.276142,0 0.5,0.223858 0.5,0.5 v 2.541096 h 8 v -6.082192 h -8 v 1.527398 c 0,0.276142 -0.223858,0.5 -0.5,0.5 -0.276142,0 -0.5,-0.223858 -0.5,-0.5 v -1.527398 h -8 v 1.527398 c 0,0.276142 -0.223858,0.5 -0.5,0.5 -0.276142,0 -0.5,-0.223858 -0.5,-0.5 v -1.527398 h -8 v 6.082192 h 8 v -2.541096 c 0,-0.276142 0.223858,-0.5 0.5,-0.5 0.276142,0 0.5,0.223858 0.5,0.5 z m -1,1.013699 h -8 v 5.068493 h 8 z m 18,0 h -8 v 5.068493 h 8 z m -28,0 h -1 v 8.109589 c 0,1.1197 -0.895431,2.027397 -2,2.027397 H 44.691276 C 45.520695,49.442964 46,50.671374 46,51.986301 46,52.546152 45.552285,53 45,53 H 33 c -0.552285,0 -1,-0.453848 -1,-1.013699 0,-1.314927 0.479305,-2.543337 1.308724,-3.547945 H 33 c -1.10457,0 -2,-0.907697 -2,-2.027397 V 38.30137 h -1 v 5.068493 c 0,1.119701 -0.895431,2.027397 -2,2.027397 H 2 c -1.1045695,0 -2,-0.907696 -2,-2.027397 V 31.205479 c 0,-1.1197 0.8954305,-2.027397 2,-2.027397 h 26 c 1.104569,0 2,0.907697 2,2.027397 v 5.068494 h 1 v -8.109589 c 0,-1.119701 0.89543,-2.027398 2,-2.027398 h 0.267564 C 33.097394,25.838783 33,25.492565 33,25.123288 v -6.082192 c 0,-1.119701 0.895431,-2.027397 2,-2.027397 h 0.669671 C 36.645912,16.357713 37.797181,16 39,16 c 1.202819,0 2.354088,0.357713 3.330329,1.013699 H 43 c 1.104569,0 2,0.907696 2,2.027397 v 6.082192 c 0,0.369277 -0.09739,0.715495 -0.267564,1.013698 H 45 c 1.104569,0 2,0.907697 2,2.027398 v 8.109589 h 1 v -5.068494 c 0,-1.1197 0.895431,-2.027397 2,-2.027397 h 26 c 1.104569,0 2,0.907697 2,2.027397 v 12.164384 c 0,1.119701 -0.895431,2.027397 -2,2.027397 H 50 c -1.104569,0 -2,-0.907696 -2,-2.027397 z M 42,26.136986 h -6 v 1.013699 h 6 z m 0,-1.013698 h 1 v -6.082192 h -8 v 6.082192 h 1 z m 3,19.260274 H 33 v 2.027397 h 12 z m -7.617337,3.041096 c 0.0042,0.37926 -0.191189,0.761228 -0.625887,0.93962 -1.308327,0.536913 -2.240286,1.497682 -2.596711,2.608325 h 9.67987 c -0.356425,-1.110643 -1.288384,-2.071412 -2.596711,-2.608325 -0.434698,-0.178392 -0.630117,-0.56036 -0.625887,-0.93962 z"
         fill="#000000"
         fill-rule="nonzero"
         transform="rotate(45,39,34.5)"
         id="path1"
         style="fill:#3d3846" />
    </g>
    <path
       id="path10"
       style="fill:#f6f5f4;stroke:#f6f5f4;stroke-width:0.20781"
       d="m 27.535156,47.796875 -0.857422,0.857422 -0.855468,0.857422 5.037109,5.037109 5.037109,5.039063 0.859375,-0.855469 0.859375,-0.855469 -5.039062,-5.039062 z" />
  </g>
  <metadata
     id="metadata15">
    <rdf:RDF>
      <cc:Work
         rdf:about="">
        <dc:title>Artboard Copy 2</dc:title>
      </cc:Work>
    </rdf:RDF>
  </metadata>
</svg>
