<?xml version="1.0" encoding="UTF-8" standalone="no"?>
<svg
   version="1.1"
   viewBox="-5 -10 92.770241 92.494614"
   id="svg8"
   sodipodi:docname="SST.svg"
   inkscape:version="1.1.1 (3bf5ae0d25, 2021-09-20)"
   width="92.770241"
   height="92.494614"
   xmlns:inkscape="http://www.inkscape.org/namespaces/inkscape"
   xmlns:sodipodi="http://sodipodi.sourceforge.net/DTD/sodipodi-0.dtd"
   xmlns="http://www.w3.org/2000/svg"
   xmlns:svg="http://www.w3.org/2000/svg">
  <defs
     id="defs12" />
  <sodipodi:namedview
     id="namedview10"
     pagecolor="#ffffff"
     bordercolor="#666666"
     borderopacity="1.0"
     inkscape:pageshadow="2"
     inkscape:pageopacity="0.0"
     inkscape:pagecheckerboard="0"
     showgrid="false"
     inkscape:zoom="5.0518519"
     inkscape:cx="53.148827"
     inkscape:cy="20.982405"
     inkscape:window-width="1920"
     inkscape:window-height="1027"
     inkscape:window-x="0"
     inkscape:window-y="0"
     inkscape:window-maximized="1"
     inkscape:current-layer="svg8"
     fit-margin-top="0"
     fit-margin-left="0"
     fit-margin-right="0"
     fit-margin-bottom="0"
     inkscape:snap-global="true"
     inkscape:snap-page="true"
     inkscape:snap-bbox="true"
     inkscape:bbox-paths="true"
     inkscape:bbox-nodes="true"
     inkscape:snap-bbox-edge-midpoints="true"
     inkscape:snap-bbox-midpoints="true" />
  <path
     d="m 31.439972,22.7715 h 10.512793 c 0.899516,0 1.632774,0.728991 1.632774,1.632774 v 22.312727 c 0,0.899517 -0.728991,1.632775 -1.632774,1.632775 H 31.439972 c -0.899514,0 -1.632774,-0.728991 -1.632774,-1.632775 l -0.0043,-22.312727 c 0,-0.903773 0.733258,-1.632774 1.63703,-1.632774 z"
     id="path1663"
     style="fill:#77767b;stroke-width:1.09135" />
  <path
     d="m 50.176662,18.273921 h 10.512793 c 0.899515,0 1.632774,0.728991 1.632774,1.632775 v 26.810196 c 0,0.899517 -0.728992,1.632775 -1.632774,1.632775 H 50.176662 c -0.899515,0 -1.632775,-0.728991 -1.632775,-1.632775 V 19.906696 c 0,-0.903774 0.73326,-1.632775 1.632775,-1.632775 z"
     id="path1659"
     style="fill:#77767b;stroke-width:1.09135" />
  <path
     d="M 68.917718,13.772087 H 79.43051 c 0.899515,0 1.632774,0.728992 1.632774,1.632774 v 31.312031 c 0,0.899517 -0.728992,1.632775 -1.632774,1.632775 H 68.917718 c -0.899517,0 -1.632775,-0.728991 -1.632775,-1.632775 V 15.408135 c 0,-0.903771 0.72899,-1.637031 1.632775,-1.637031 z"
     id="path1655"
     style="fill:#77767b;stroke-width:1.09135" />
  <path
     d="m 87.0356,66.352575 c 0.71094,0.41797 0.94531,1.3359 0.52734,2.0469 -0.41797,0.71094 -1.3359,0.94531 -2.0469,0.52734 -2.7578,-1.6367 -5.4961,-2.457 -8.2188,-2.457 -2.7227,0 -5.4609,0.82031 -8.2188,2.457 -3.2266,1.918 -6.4727,2.8789 -9.7344,2.8789 -3.2617,0 -6.5078,-0.96094 -9.7383,-2.8789 -2.7578,-1.6367 -5.4961,-2.457 -8.2188,-2.457 -2.7227,0 -5.4609,0.82031 -8.2188,2.457 -3.2266,1.918 -6.4727,2.8789 -9.7383,2.8789 -3.2617,0 -6.5078,-0.96094 -9.7383,-2.8789 -2.7578,-1.6367 -5.4961,-2.457 -8.2188,-2.457 -2.7227,0 -5.4609,0.82031 -8.2188,2.457 -0.71094,0.41797 -1.625,0.18359 -2.0469,-0.52734 -0.41797,-0.71094 -0.18359,-1.625 0.52734,-2.0469 3.2305,-1.918 6.4766,-2.8789 9.7383,-2.8789 3.2617,0 6.5078,0.96094 9.7383,2.8789 2.7539,1.6406 5.4961,2.457 8.2148,2.457 2.7227,0 5.4609,-0.82031 8.2148,-2.457 3.2305,-1.918 6.4766,-2.8789 9.7383,-2.8789 3.2617,0 6.5078,0.96094 9.7383,2.8789 2.7578,1.6406 5.4961,2.457 8.2188,2.457 2.7227,0 5.4609,-0.82031 8.2148,-2.457 3.2305,-1.918 6.4766,-2.8789 9.7383,-2.8789 3.2695,0 6.5156,0.95703 9.7461,2.8789 z"
     id="path1681"
     style="fill:#3584e4" />
  <path
     d="m 87.0356,55.661575 c 0.71094,0.41797 0.94531,1.3359 0.52734,2.0469 -0.41797,0.71094 -1.3359,0.94531 -2.0469,0.52734 -2.7578,-1.6367 -5.4961,-2.457 -8.2188,-2.457 -2.7227,0 -5.4609,0.82031 -8.2188,2.457 -3.2266,1.918 -6.4727,2.8789 -9.7344,2.8789 -3.2617,0 -6.5078,-0.96094 -9.7383,-2.8789 -2.7578,-1.6367 -5.4961,-2.457 -8.2188,-2.457 -2.7227,0 -5.4609,0.82031 -8.2188,2.457 -3.2266,1.918 -6.4727,2.8789 -9.7383,2.8789 -3.2617,0 -6.5078,-0.96094 -9.7383,-2.8789 -2.7578,-1.6367 -5.4961,-2.457 -8.2188,-2.457 -2.7227,0 -5.4609,0.82031 -8.2188,2.457 -0.71094,0.41797 -1.625,0.18359 -2.0469,-0.52734 -0.41797,-0.71094 -0.18359,-1.625 0.52734,-2.0469 3.2305,-1.918 6.4766,-2.878899 9.7383,-2.878899 3.2617,0 6.5078,0.960939 9.7383,2.878899 2.7539,1.6367 5.4961,2.457 8.2148,2.457 2.7227,0 5.4609,-0.82031 8.2148,-2.457 3.2305,-1.918 6.4766,-2.878899 9.7383,-2.878899 3.2617,0 6.5078,0.960939 9.7383,2.878899 2.7578,1.6367 5.4961,2.457 8.2188,2.457 2.7227,0 5.4609,-0.82031 8.2148,-2.457 3.2305,-1.918 6.4766,-2.878899 9.7383,-2.878899 3.2695,0 6.5156,0.960939 9.7461,2.878899 z"
     id="path1679"
     style="fill:#99c1f1" />
  <path
     d="m 7.4392912,27.38356 c -1.4621959,0.942144 -2.6943343,2.208246 -3.5938281,3.691832 -1.0401911,1.718009 -1.641287,3.734503 -1.641287,5.887308 0,3.146154 1.2747013,5.989677 3.3337585,8.05299 2.0590571,2.059058 4.9068354,3.333758 8.0529904,3.333758 3.146155,0 5.989677,-1.2747 8.05299,-3.333758 2.059057,-2.059058 3.333758,-4.906836 3.333758,-8.05299 0,-2.152914 -0.601095,-4.165043 -1.641286,-5.887308 C 22.436871,29.58755 21.204864,28.32147 19.742559,27.38356 V 13.04208 l 0.0084,-7.3453568 V -4.7563726 c 0,-1.4451707 -0.588305,-2.7581784 -1.539028,-3.7046004 C 17.261302,-9.4116404 15.95254,-10 14.507369,-10 h -1.820378 c -1.445171,0 -2.7581795,0.5883051 -3.7046016,1.539027 -0.9506668,0.9506674 -1.5390266,2.2594297 -1.5390266,3.7046004 z"
     id="path1677"
     style="fill:#77767b;stroke-width:1.09135" />
  <path
     d="m 16.485632,22.020539 h -1.978079 c -0.899516,0 -1.632774,-0.728993 -1.632774,-1.632775 0,-0.899515 0.728991,-1.632774 1.632774,-1.632774 h 1.978079 v -4.079808 h -3.610853 c -0.899517,0 -1.632775,-0.728992 -1.632775,-1.632774 0,-0.903784 0.728991,-1.632774 1.632775,-1.632774 h 3.610853 V 7.329825 h -1.978079 c -0.899516,0 -1.632774,-0.7289916 -1.632774,-1.6327743 0,-0.8995158 0.728991,-1.6327745 1.632774,-1.6327745 h 1.978079 v -4.07980792 h -3.610853 c -0.899517,0 -1.632775,-0.72899156 -1.632775,-1.63277438 0,-0.8995156 0.728991,-1.6327744 1.632775,-1.6327744 h 3.610853 v -1.4750738 c 0,-0.5414097 -0.221676,-1.0359347 -0.584049,-1.3982425 -0.358095,-0.3580949 -0.85262,-0.5797817 -1.398243,-0.5797817 h -1.820378 c -0.541409,0 -1.035935,0.2216758 -1.398243,0.5797817 -0.358095,0.358095 -0.584048,0.8526203 -0.584048,1.3982425 V 28.312958 c 0,0.584048 -0.315466,1.151049 -0.8696782,1.440913 -1.317264,0.69062 -2.4214956,1.735035 -3.1930828,3.005479 -0.7417821,1.223517 -1.1680759,2.660175 -1.1680759,4.199203 0,2.242405 0.9080391,4.271668 2.3788238,5.742376 1.4708172,1.470817 3.4999721,2.378824 5.7423751,2.378824 2.242405,0 4.271668,-0.90804 5.742378,-2.378824 1.470818,-1.470818 2.378823,-3.499971 2.378823,-5.742376 0,-1.539028 -0.426305,-2.975686 -1.168075,-4.199203 -0.750306,-1.240542 -1.820379,-2.263685 -3.099226,-2.954294 -0.571259,-0.255792 -0.967727,-0.82704 -0.967727,-1.492098 l 0.0043,-6.292311 z"
     id="path1675"
     style="fill:#ffffff;stroke-width:1.09135" />
  <path
     d="m 13.595247,29.937219 c 1.939664,0 3.696088,0.788678 4.970789,2.059057 1.270445,1.270444 2.059058,3.026761 2.059058,4.970789 0,1.939663 -0.788678,3.696088 -2.059058,4.97079 -1.270446,1.270444 -3.026761,2.059056 -4.970789,2.059056 -1.939663,0 -3.6960881,-0.788677 -4.9707893,-2.059056 -1.2704449,-1.270445 -2.0590572,-3.026762 -2.0590572,-4.97079 0,-1.939663 0.7886778,-3.696088 2.0590572,-4.970789 1.2704442,-1.2747 3.0267603,-2.059057 4.9707893,-2.059057 z"
     id="path1671"
     style="fill:#cc0000;fill-opacity:1;stroke-width:1.09135" />
  <path
     d="m 16.251165,34.302635 c -0.682096,-0.67783 -1.620005,-1.099868 -2.660174,-1.099868 -1.040203,0 -1.978079,0.422049 -2.660176,1.099868 -0.682095,0.682094 -1.0998659,1.620004 -1.0998659,2.660173 0,1.035935 0.4220479,1.97808 1.0998659,2.660175 0.682097,0.682097 1.620006,1.099868 2.660176,1.099868 1.04019,0 1.978078,-0.42205 2.660174,-1.099868 0.682096,-0.682095 1.099866,-1.620005 1.099866,-2.660175 0.0043,-1.04019 -0.41778,-1.978079 -1.099866,-2.660173 z"
     id="path1673"
     style="fill:#ffffff;stroke-width:1.09135" />
  <path
     d="m 40.315734,26.037048 h -7.247243 v 19.047398 h 7.247243 z"
     id="path1665"
     style="stroke-width:1.09135;fill:#3584e4" />
  <path
     d="M 59.05668,21.53947 H 51.809437 V 45.084337 H 59.05668 Z"
     id="path1661"
     style="stroke-width:1.09135;fill:#33d17a" />
  <path
     d="M 77.797736,17.041891 H 70.55049 v 28.042336 h 7.247246 z"
     id="path1657"
     style="stroke-width:1.09135;fill:#f6d32d" />
  <path
     d="m 87.03586,77.041475 c 0.71094,0.41797 0.94531,1.3359 0.52734,2.0469 -0.41797,0.71094 -1.3359,0.94531 -2.0469,0.52734 -2.7578,-1.6367 -5.4961,-2.457 -8.2188,-2.457 -2.7227,0 -5.4609,0.82031 -8.2188,2.457 -3.2266,1.918 -6.4727,2.8789 -9.7344,2.8789 -3.2617,0 -6.5078,-0.96094 -9.7383,-2.8789 -2.7578,-1.6367 -5.4961,-2.457 -8.2188,-2.457 -2.7227,0 -5.4609,0.82031 -8.2188,2.457 -3.2266,1.918 -6.4727,2.8789 -9.7383,2.8789 -3.2617,0 -6.5078,-0.96094 -9.7383,-2.8789 -2.7578,-1.6367 -5.4961,-2.457 -8.2188,-2.457 -2.7227,0 -5.4609,0.82031 -8.2188,2.457 -0.71094,0.41797 -1.625,0.18359 -2.0469,-0.52734 -0.41797,-0.71094 -0.18359,-1.625 0.52734,-2.0469 3.2305,-1.918 6.4766,-2.8789 9.7383,-2.8789 3.2617,0 6.5078,0.96094 9.7383,2.8789 2.7539,1.6367 5.4961,2.457 8.2148,2.457 2.7227,0 5.4609,-0.82031 8.2148,-2.457 3.2305,-1.918 6.4766,-2.8789 9.7383,-2.8789 3.2617,0 6.5078,0.96094 9.7383,2.8789 2.7578,1.6367 5.4961,2.457 8.2188,2.457 2.7227,0 5.4609,-0.82031 8.2148,-2.457 3.2305,-1.918 6.4766,-2.8789 9.7383,-2.8789 3.2695,0 6.5156,0.96094 9.7461,2.8789 z"
     id="path829"
     style="fill:#1a5fb4" />
</svg>
