<?xml version="1.0" encoding="UTF-8" standalone="no"?>
<svg
   version="1.1"
   viewBox="-5 -10 92.770241 92.494614"
   id="svg835"
   sodipodi:docname="SST_ANOMALY.svg"
   inkscape:version="1.1.1 (3bf5ae0d25, 2021-09-20)"
   width="92.770241"
   height="92.494614"
   xmlns:inkscape="http://www.inkscape.org/namespaces/inkscape"
   xmlns:sodipodi="http://sodipodi.sourceforge.net/DTD/sodipodi-0.dtd"
   xmlns="http://www.w3.org/2000/svg"
   xmlns:svg="http://www.w3.org/2000/svg">
  <defs
     id="defs839" />
  <sodipodi:namedview
     id="namedview837"
     pagecolor="#ffffff"
     bordercolor="#666666"
     borderopacity="1.0"
     inkscape:pageshadow="2"
     inkscape:pageopacity="0.0"
     inkscape:pagecheckerboard="0"
     showgrid="false"
     inkscape:zoom="5.0518519"
     inkscape:cx="125.00367"
     inkscape:cy="14.450147"
     inkscape:window-width="1920"
     inkscape:window-height="1027"
     inkscape:window-x="0"
     inkscape:window-y="0"
     inkscape:window-maximized="1"
     inkscape:current-layer="svg835"
     fit-margin-top="0"
     fit-margin-left="0"
     fit-margin-right="0"
     fit-margin-bottom="0" />
  <path
     d="m 32.29326,24.912576 h 9.6328 c 0.82422,0 1.4961,0.66797 1.4961,1.4961 v 20.445 c 0,0.82422 -0.66797,1.4961 -1.4961,1.4961 h -9.6328 c -0.82422,0 -1.4961,-0.66797 -1.4961,-1.4961 l -0.0039,-20.445 c 0,-0.82812 0.67188,-1.4961 1.5,-1.4961 z"
     id="path1663"
     style="fill:#77767b" />
  <path
     d="m 49.46156,20.791476 h 9.6328 c 0.82422,0 1.4961,0.66797 1.4961,1.4961 v 24.566 c 0,0.82422 -0.66797,1.4961 -1.4961,1.4961 h -9.6328 c -0.82422,0 -1.4961,-0.66797 -1.4961,-1.4961 v -24.566 c 0,-0.82812 0.67188,-1.4961 1.4961,-1.4961 z"
     id="path1659"
     style="fill:#77767b" />
  <path
     d="m 66.63386,16.666476 h 9.6328 c 0.82422,0 1.4961,0.66797 1.4961,1.4961 v 28.691 c 0,0.82422 -0.66797,1.4961 -1.4961,1.4961 h -9.6328 c -0.82422,0 -1.4961,-0.66797 -1.4961,-1.4961 v -28.688 c 0,-0.82812 0.66797,-1.5 1.4961,-1.5 z"
     id="path1655"
     style="fill:#77767b" />
  <path
     d="m 28.27406,20.428176 h 0.0039 c 0,0.05078 0.0039,0.10156 0.0078,0.15234 0.08594,0.82031 0.81641,1.418 1.6367,1.332 6.4688,-0.67187 13.512,-3.0039 20.367,-7.0039 5.8906,-3.4375 11.66,-8.1250003 16.816,-14.06600031 l 1.5195,1.34770001 c 0.23047,0.23047 0.54297,0.38672 0.89453,0.42578 0.82031,0.08594 1.5547,-0.50781 1.6445,-1.3281 l 1.0391,-9.6016 c 0.02344,-0.17188 0.01563,-0.34766 -0.02344,-0.52734 -0.18359,-0.80469 -0.98438,-1.3046997 -1.7891,-1.1211 l -9.4414,2.1836 v 0.00391 c -0.29297,0.066407 -0.57031,0.22266 -0.78516,0.46484 -0.54688,0.61719 -0.48828,1.5586 0.12891,2.1055 l 1.6055,1.4258 c -3.8867,4.14059999 -8.6016,7.4336 -13.641,9.8789 -6.0156,2.918 -12.48,4.6250003 -18.551,5.1289003 -0.79688,0.03516 -1.4297,0.69141 -1.4297,1.4961 v 7.7031 z"
     id="path1667"
     style="fill:#cc0000;fill-opacity:1" />
  <path
     d="m 87.0356,66.352576 c 0.71094,0.41797 0.94531,1.3359 0.52734,2.0469 -0.41797,0.71094 -1.3359,0.94531 -2.0469,0.52734 -2.7578,-1.6367 -5.4961,-2.457 -8.2188,-2.457 -2.7227,0 -5.4609,0.82031 -8.2188,2.457 -3.2266,1.918 -6.4727,2.8789 -9.7344,2.8789 -3.2617,0 -6.5078,-0.96094 -9.7383,-2.8789 -2.7578,-1.6367 -5.4961,-2.457 -8.2188,-2.457 -2.7227,0 -5.4609,0.82031 -8.2188,2.457 -3.2266,1.918 -6.4727,2.8789 -9.7383,2.8789 -3.2617,0 -6.5078,-0.96094 -9.7383,-2.8789 -2.7578,-1.6367 -5.4961003,-2.457 -8.2188003,-2.457 -2.7227,0 -5.46090003,0.82031 -8.2188,2.457 -0.71094,0.41797 -1.625,0.18359 -2.0469,-0.52734 -0.41797,-0.71094 -0.18359,-1.625 0.52734,-2.0469 3.2305,-1.918 6.4766,-2.8789 9.7383,-2.8789 3.2617,0 6.5078003,0.96094 9.7383003,2.8789 2.7539,1.6406 5.4961,2.457 8.2148,2.457 2.7227,0 5.4609,-0.82031 8.2148,-2.457 3.2305,-1.918 6.4766,-2.8789 9.7383,-2.8789 3.2617,0 6.5078,0.96094 9.7383,2.8789 2.7578,1.6406 5.4961,2.457 8.2188,2.457 2.7227,0 5.4609,-0.82031 8.2148,-2.457 3.2305,-1.918 6.4766,-2.8789 9.7383,-2.8789 3.2695,0 6.5156,0.95703 9.7461,2.8789 z"
     id="path1681"
     style="fill:#3584e4" />
  <path
     d="m 87.0356,55.661576 c 0.71094,0.41797 0.94531,1.3359 0.52734,2.0469 -0.41797,0.71094 -1.3359,0.94531 -2.0469,0.52734 -2.7578,-1.6367 -5.4961,-2.457 -8.2188,-2.457 -2.7227,0 -5.4609,0.82031 -8.2188,2.457 -3.2266,1.918 -6.4727,2.8789 -9.7344,2.8789 -3.2617,0 -6.5078,-0.96094 -9.7383,-2.8789 -2.7578,-1.6367 -5.4961,-2.457 -8.2188,-2.457 -2.7227,0 -5.4609,0.82031 -8.2188,2.457 -3.2266,1.918 -6.4727,2.8789 -9.7383,2.8789 -3.2617,0 -6.5078,-0.96094 -9.7383,-2.8789 -2.7578,-1.6367 -5.4961003,-2.457 -8.2188003,-2.457 -2.7227,0 -5.46090003,0.82031 -8.2188,2.457 -0.71094,0.41797 -1.625,0.18359 -2.0469,-0.52734 -0.41797,-0.71094 -0.18359,-1.625 0.52734,-2.0469 3.2305,-1.918 6.4766,-2.8789 9.7383,-2.8789 3.2617,0 6.5078003,0.96094 9.7383003,2.8789 2.7539,1.6367 5.4961,2.457 8.2148,2.457 2.7227,0 5.4609,-0.82031 8.2148,-2.457 3.2305,-1.918 6.4766,-2.8789 9.7383,-2.8789 3.2617,0 6.5078,0.96094 9.7383,2.8789 2.7578,1.6367 5.4961,2.457 8.2188,2.457 2.7227,0 5.4609,-0.82031 8.2148,-2.457 3.2305,-1.918 6.4766,-2.8789 9.7383,-2.8789 3.2695,0 6.5156,0.96094 9.7461,2.8789 z"
     id="path1679"
     style="fill:#99c1f1" />
  <path
     d="m 10.3016,29.138576 c -1.3398003,0.86328 -2.4688003,2.0234 -3.2930003,3.3828 -0.95312,1.5742 -1.5039,3.4219 -1.5039,5.3945 0,2.8828 1.168,5.4883 3.0547,7.3789 1.8867003,1.8867 4.4961003,3.0547 7.3789003,3.0547 2.8828,0 5.4883,-1.168 7.3789,-3.0547 1.8867,-1.8867 3.0547,-4.4961 3.0547,-7.3789 0,-1.9727 -0.55078,-3.8164 -1.5039,-5.3945 -0.82422,-1.3633 -1.9531,-2.5234 -3.293,-3.3828 v -13.141 l 0.0078,-6.7305003 v -9.57810001 c 0,-1.32419999 -0.53906,-2.52729999 -1.4102,-3.39449999 -0.87109,-0.87109 -2.0703,-1.4102 -3.3945,-1.4102 h -1.668 c -1.3242,0 -2.5273,0.53906 -3.3945,1.4102 -0.87109,0.87109 -1.4102,2.0703 -1.4102,3.39449999 z"
     id="path1677"
     style="fill:#77767b" />
  <path
     d="m 18.5907,24.224476 h -1.8125 c -0.82422,0 -1.4961,-0.66797 -1.4961,-1.4961 0,-0.82422 0.66797,-1.4961 1.4961,-1.4961 h 1.8125 v -3.7383 h -3.3086 c -0.82422,0 -1.4961,-0.66797 -1.4961,-1.4961 0,-0.82813 0.66797,-1.4961 1.4961,-1.4961 h 3.3086 v -3.7383 h -1.8125 c -0.82422,0 -1.4961,-0.66797 -1.4961,-1.4961003 0,-0.82422 0.66797,-1.4961 1.4961,-1.4961 h 1.8125 v -3.7383 h -3.3086 c -0.82422,0 -1.4961,-0.66797 -1.4961,-1.4961 0,-0.82422 0.66797,-1.4961 1.4961,-1.4961 h 3.3086 v -1.35160001 c 0,-0.49609 -0.20312,-0.94921999 -0.53516,-1.28119999 -0.32812,-0.32812 -0.78125,-0.53125 -1.2812,-0.53125 h -1.668 c -0.49609,0 -0.94922,0.20312 -1.2812,0.53125 -0.32812,0.32812 -0.53516,0.78124999 -0.53516,1.28119999 V 29.990176 c 0,0.53516 -0.28906,1.0547 -0.79688,1.3203 -1.207,0.63281 -2.2188,1.5898 -2.9258003,2.7539 -0.67969,1.1211 -1.0703,2.4375 -1.0703,3.8477 0,2.0547 0.83203,3.9141 2.1797003,5.2617 1.3477,1.3477 3.207,2.1797 5.2617,2.1797 2.0547,0 3.9141,-0.83203 5.2617,-2.1797 1.3477,-1.3477 2.1797,-3.207 2.1797,-5.2617 0,-1.4102 -0.39062,-2.7266 -1.0703,-3.8477 -0.6875,-1.1367 -1.668,-2.0742 -2.8398,-2.707 -0.52344,-0.23438 -0.88672,-0.75781 -0.88672,-1.3672 l 0.0039,-5.7656 z"
     id="path1675"
     style="fill:#ffffff" />
  <path
     d="m 15.94226,31.478476 c 1.7773,0 3.3867,0.72266 4.5547,1.8867 1.1641,1.1641 1.8867,2.7734 1.8867,4.5547 0,1.7773 -0.72266,3.3867 -1.8867,4.5547 -1.1641,1.1641 -2.7734,1.8867 -4.5547,1.8867 -1.7773,0 -3.3867,-0.72266 -4.5547,-1.8867 -1.1641,-1.1641 -1.8867003,-2.7734 -1.8867003,-4.5547 0,-1.7773 0.7226603,-3.3867 1.8867003,-4.5547 1.1641,-1.168 2.7734,-1.8867 4.5547,-1.8867 z"
     id="path1671"
     style="fill:#cc0000;fill-opacity:1" />
  <path
     d="m 18.37586,35.478476 c -0.625,-0.62109 -1.4844,-1.0078 -2.4375,-1.0078 -0.95313,0 -1.8125,0.38672 -2.4375,1.0078 -0.625,0.625 -1.0078,1.4844 -1.0078,2.4375 0,0.94922 0.38672,1.8125 1.0078,2.4375 0.625,0.625 1.4844,1.0078 2.4375,1.0078 0.95312,0 1.8125,-0.38672 2.4375,-1.0078 0.625,-0.625 1.0078,-1.4844 1.0078,-2.4375 0.0039,-0.95312 -0.38281,-1.8125 -1.0078,-2.4375 z"
     id="path1673"
     style="fill:#ffffff" />
  <path
     d="m 31.26626,14.080476 v 4.6523 c 5.5938,-0.83203 11.609,-2.9648 17.512,-6.4102 5.9961,-3.5000003 11.852,-8.3398003 17.004,-14.5270003 0.01953,-0.02344 0.03516,-0.04297 0.05469,-0.06641 0.54688,-0.61719 1.4883,-0.67578 2.1055,-0.12891 l 0.55859,0.49609 0.50781,-4.6719 -4.582,1.0586 0.56641,0.5 c 0.62109,0.54297 0.68359,1.4844 0.14062,2.1055 -4.3398,4.9805 -9.7617,8.8789 -15.582,11.699 -5.918,2.8750003 -12.258,4.6367003 -18.285,5.2930003 z"
     id="path1669"
     style="fill:#ffffff" />
  <path
     d="m 40.42606,27.904776 h -6.6406 v 17.453 h 6.6406 z"
     id="path1665"
     style="fill:#3584e4" />
  <path
     d="m 57.59826,23.783676 h -6.6406 v 21.574 h 6.6406 z"
     id="path1661"
     style="fill:#33d17a" />
  <path
     d="m 74.77056,19.662576 h -6.6406 v 25.695 h 6.6406 z"
     id="path1657"
     style="fill:#f6d32d" />
  <path
     d="m 87.03586,77.041476 c 0.71094,0.41797 0.94531,1.3359 0.52734,2.0469 -0.41797,0.71094 -1.3359,0.94531 -2.0469,0.52734 -2.7578,-1.6367 -5.4961,-2.457 -8.2188,-2.457 -2.7227,0 -5.4609,0.82031 -8.2188,2.457 -3.2266,1.918 -6.4727,2.8789 -9.7344,2.8789 -3.2617,0 -6.5078,-0.96094 -9.7383,-2.8789 -2.7578,-1.6367 -5.4961,-2.457 -8.2188,-2.457 -2.7227,0 -5.4609,0.82031 -8.2188,2.457 -3.2266,1.918 -6.4727,2.8789 -9.7383,2.8789 -3.2617,0 -6.5078,-0.96094 -9.7383,-2.8789 -2.7578,-1.6367 -5.4961003,-2.457 -8.2188003,-2.457 -2.7227,0 -5.46090003,0.82031 -8.2188,2.457 -0.71094,0.41797 -1.625,0.18359 -2.0469,-0.52734 -0.41797,-0.71094 -0.18359,-1.625 0.52734,-2.0469 3.2305,-1.918 6.4766,-2.8789 9.7383,-2.8789 3.2617,0 6.5078003,0.96094 9.7383003,2.8789 2.7539,1.6367 5.4961,2.457 8.2148,2.457 2.7227,0 5.4609,-0.82031 8.2148,-2.457 3.2305,-1.918 6.4766,-2.8789 9.7383,-2.8789 3.2617,0 6.5078,0.96094 9.7383,2.8789 2.7578,1.6367 5.4961,2.457 8.2188,2.457 2.7227,0 5.4609,-0.82031 8.2148,-2.457 3.2305,-1.918 6.4766,-2.8789 9.7383,-2.8789 3.2695,0 6.5156,0.96094 9.7461,2.8789 z"
     id="path829"
     style="fill:#1a5fb4" />
</svg>
