<?xml version="1.0" encoding="UTF-8" standalone="no"?>
<svg
   version="1.1"
   viewBox="-5 -10 100 199.98782"
   id="svg880"
   sodipodi:docname="temperatura.svg"
   inkscape:version="1.1.1 (3bf5ae0d25, 2021-09-20)"
   width="100"
   height="199.98782"
   xmlns:inkscape="http://www.inkscape.org/namespaces/inkscape"
   xmlns:sodipodi="http://sodipodi.sourceforge.net/DTD/sodipodi-0.dtd"
   xmlns="http://www.w3.org/2000/svg"
   xmlns:svg="http://www.w3.org/2000/svg">
  <defs
     id="defs884" />
  <sodipodi:namedview
     id="namedview882"
     pagecolor="#ffffff"
     bordercolor="#666666"
     borderopacity="1.0"
     inkscape:pageshadow="2"
     inkscape:pageopacity="0.0"
     inkscape:pagecheckerboard="0"
     showgrid="false"
     inkscape:snap-bbox="true"
     inkscape:bbox-paths="true"
     inkscape:bbox-nodes="true"
     inkscape:snap-bbox-edge-midpoints="true"
     inkscape:snap-bbox-midpoints="true"
     inkscape:snap-page="true"
     inkscape:zoom="1.5444445"
     inkscape:cx="-9.3884889"
     inkscape:cy="88.057551"
     inkscape:window-width="1920"
     inkscape:window-height="1027"
     inkscape:window-x="0"
     inkscape:window-y="0"
     inkscape:window-maximized="1"
     inkscape:current-layer="svg880"
     inkscape:showpageshadow="2"
     inkscape:deskcolor="#d1d1d1" />
  <path
     d="M 80.715153,25.712108 C 80.715153,5.9990242 64.716128,-10 45.003045,-10 25.28996,-10 9.2909371,5.9990242 9.2909371,25.712108 v 79.352882 c -11.8564202,11.92795 -16.7132664,28.85537 -13.142056,45.78234 4.57114967,21.49858 24.0693889,39.14048 48.7833099,39.14048 27.78345,0 50.067805,-22.42721 50.067805,-49.99696 0,-13.14205 -5.142544,-25.64187 -14.284843,-34.92586 z M 10.148028,147.84866 c -2.785658,-12.92767 1.35706,-25.78357 11.070867,-34.35447 1.499908,-1.35707 2.428424,-3.28552 2.428424,-5.35694 v -82.4224 c 0,-11.784881 9.642383,-21.4272639 21.427265,-21.4272639 11.78488,0 21.427263,9.6423829 21.427263,21.4272639 v 82.4224 c 0,2.0713 0.857092,3.99976 2.428424,5.35694 7.570967,6.71388 11.856421,16.35602 11.856421,26.49895 0,41.92658 -61.781376,49.28156 -70.567126,7.85666 z"
     id="path870"
     style="fill:#babdb6;stroke-width:2.28558" />
  <path
     d="M 52.14242,119.84981 V 25.711544 c 0,-3.928447 -3.213977,-7.142422 -7.142421,-7.142422 -3.928447,0 -7.142423,3.213975 -7.142423,7.142422 v 94.138266 c -8.285209,2.92828 -14.284843,10.78517 -14.284843,20.14162 0,11.78489 9.642384,21.42726 21.427265,21.42726 11.78488,0 21.427266,-9.64237 21.427266,-21.42726 0,-9.28515 -5.999636,-17.14181 -14.284844,-20.14162 z M 44.999999,147.135 c -3.928447,0 -7.142423,-3.21397 -7.142423,-7.14243 0,-3.92845 3.213976,-7.14242 7.142423,-7.14242 3.928444,0 7.142421,3.21397 7.142421,7.14242 0,3.92846 -3.213977,7.14243 -7.142421,7.14243 z"
     id="path872"
     style="fill:#cc0000;fill-opacity:1;stroke-width:2.28558" />
</svg>
