<?xml version="1.0" encoding="UTF-8" standalone="no"?>
<svg
   version="1.1"
   viewBox="-5 -10 96.419647 135"
   id="svg10"
   sodipodi:docname="umidita.svg"
   inkscape:version="1.4 (e7c3feb100, 2024-10-09)"
   width="96.419647"
   height="135"
   xmlns:inkscape="http://www.inkscape.org/namespaces/inkscape"
   xmlns:sodipodi="http://sodipodi.sourceforge.net/DTD/sodipodi-0.dtd"
   xmlns="http://www.w3.org/2000/svg"
   xmlns:svg="http://www.w3.org/2000/svg">
  <defs
     id="defs14" />
  <sodipodi:namedview
     id="namedview12"
     pagecolor="#ffffff"
     bordercolor="#666666"
     borderopacity="1.0"
     inkscape:pageshadow="2"
     inkscape:pageopacity="0.0"
     inkscape:pagecheckerboard="0"
     showgrid="false"
     inkscape:snap-bbox="true"
     inkscape:bbox-paths="true"
     inkscape:bbox-nodes="true"
     inkscape:snap-bbox-edge-midpoints="true"
     inkscape:snap-bbox-midpoints="true"
     inkscape:snap-page="true"
     inkscape:zoom="3.5721987"
     inkscape:cx="26.874205"
     inkscape:cy="68.86515"
     inkscape:window-width="1536"
     inkscape:window-height="891"
     inkscape:window-x="0"
     inkscape:window-y="0"
     inkscape:window-maximized="1"
     inkscape:current-layer="svg10"
     inkscape:showpageshadow="2"
     inkscape:deskcolor="#d1d1d1" />
  <g
     id="g1"
     transform="translate(-6.7901775)">
    <path
       id="path1030"
       style="fill:#729fcf;fill-rule:evenodd;stroke:#729fcf;stroke-width:0.559879;stroke-linecap:round"
       d="m 54.869141,12.177734 -1.332032,1.416016 c -5.452505,5.79306 -14.677794,17.875327 -19.933593,26.109375 -8.97533,14.061288 -14.242737,26.336239 -16.419922,38.259766 -0.242809,1.329753 -0.398422,3.244356 -0.480469,5.30664 -0.160643,2.263491 -0.15311,4.445283 0.01172,6.560547 0.08265,1.831162 0.226808,3.462203 0.451172,4.509766 1.054028,4.921291 2.899479,9.283476 5.816406,13.749996 0.61806,0.9464 1.511749,2.0626 2.521484,3.21485 0.0042,0.005 0.0075,0.0106 0.01172,0.0156 1.27656,1.52845 2.677171,2.95293 4.179687,4.26367 1.197513,1.09482 2.370658,2.07148 3.369141,2.75391 4.173469,2.8524 9.567484,5.19914 14.333985,6.23438 3.540161,0.76889 12.837194,0.6327 16.287109,-0.23829 7.118414,-1.79717 14.337716,-6.00076 19.220703,-11.1914 7.769109,-8.2586 11.352651,-18.840368 10.349607,-30.568341 C 91.97174,67.559788 83.861097,49.564474 69.480469,29.814453 65.752837,24.695008 59.625821,17.117444 57.048828,14.441406 Z"
       transform="translate(-5,-10)"
       sodipodi:nodetypes="ccssccsscccsssssscc" />
    <path
       d="m 53.374226,-8.5898049 c -1.880261,-1.8802601 -4.917402,-1.8802601 -6.797509,0 C 44.744745,-6.7578316 1.7901775,36.679605 1.7901775,76.790176 1.7901775,103.35417 23.436003,125 50,125 c 26.563998,0 48.209823,-21.64583 48.209823,-48.209824 0,-40.110571 -42.955338,-83.5472362 -44.78654,-85.3799809 z M 49.95125,115.35803 c -21.260146,0 -38.567857,-17.307708 -38.567857,-38.567854 0,-29.937913 28.540214,-63.926996 38.567857,-74.9172924 10.027644,10.9918394 38.567859,44.9793794 38.567859,74.9172924 0,21.260146 -17.307713,38.567854 -38.567859,38.567854 z"
       id="path2"
       style="fill:#241f31;stroke-width:1.54272" />
    <path
       d="m 78.003169,66.219258 c -0.478714,-2.585056 -2.968027,-4.356375 -5.553084,-3.829713 -2.585056,0.478714 -4.308426,2.968028 -3.829712,5.553084 3.06377,17.042221 -9.335002,29.441299 -23.456225,29.441299 -2.633004,0 -4.787141,2.154137 -4.787141,4.787142 0,2.633 2.154137,4.78714 4.787141,4.78714 19.914506,0 37.053237,-17.711655 32.840553,-40.738952 z"
       id="path2-6"
       style="fill:#241f31;stroke-width:1.53189" />
  </g>
</svg>
