<?xml version="1.0" encoding="UTF-8" standalone="no"?>
<svg
   version="1.1"
   viewBox="-5 -10 51.812 81.254608"
   id="svg8"
   sodipodi:docname="vert_int_liq.svg"
   width="51.812"
   height="81.254608"
   inkscape:version="1.1.1 (3bf5ae0d25, 2021-09-20)"
   xmlns:inkscape="http://www.inkscape.org/namespaces/inkscape"
   xmlns:sodipodi="http://sodipodi.sourceforge.net/DTD/sodipodi-0.dtd"
   xmlns="http://www.w3.org/2000/svg"
   xmlns:svg="http://www.w3.org/2000/svg">
  <defs
     id="defs12" />
  <sodipodi:namedview
     id="namedview10"
     pagecolor="#ffffff"
     bordercolor="#666666"
     borderopacity="1.0"
     inkscape:pageshadow="2"
     inkscape:pageopacity="0.0"
     inkscape:pagecheckerboard="0"
     showgrid="false"
     fit-margin-top="0"
     fit-margin-left="0"
     fit-margin-right="0"
     fit-margin-bottom="0"
     inkscape:zoom="5.0518519"
     inkscape:cx="-40.282258"
     inkscape:cy="48.101173"
     inkscape:window-width="1920"
     inkscape:window-height="1059"
     inkscape:window-x="0"
     inkscape:window-y="0"
     inkscape:window-maximized="1"
     inkscape:current-layer="svg8" />
  <path
     id="path1876"
     style="fill:#6daaee;fill-opacity:1;fill-rule:evenodd;stroke:#6daaee;stroke-width:2;stroke-linecap:round;stroke-miterlimit:4;stroke-dasharray:none;stroke-opacity:1"
     d="M 25.9375 17.123047 C 25.621997 17.123047 20.164416 23.939653 19.851562 24.703125 L 19.771484 24.810547 L 19.892578 25.056641 C 20.008687 25.378961 20.324283 26.106831 20.767578 27.042969 C 22.131964 29.924239 22.41175 30.838503 22.515625 32.759766 C 22.77772 37.607452 19.607909 42.097104 14.8125 43.667969 C 13.23412 44.185009 10.901079 44.297967 8.5820312 43.970703 L 7.3632812 43.798828 L 6.6289062 45.347656 C 4.6479602 49.522101 3.7334845 52.78979 3.7265625 55.714844 C 3.7130879 61.408859 6.1438705 67.0109 10.441406 71.191406 C 13.640571 74.303451 17.259498 76.248376 21.597656 77.189453 C 23.135104 77.522973 27.322204 77.57502 29.40625 77.285156 C 31.436989 77.002708 34.174239 76.087938 36.171875 75.025391 C 43.19502 71.28976 47.728179 64.219264 48.042969 56.513672 C 48.127441 54.445923 48.077777 53.755079 47.732422 52.310547 C 46.523567 47.254196 43.144776 40.66218 37.458984 32.265625 C 33.803544 26.867413 26.389163 17.123047 25.9375 17.123047 z "
     transform="translate(-5,-10)" />
  <path
     id="path1564"
     style="fill:#d5edff;fill-rule:evenodd;stroke:#d5edff;stroke-width:2;stroke-linecap:round;stroke-miterlimit:4;stroke-dasharray:none;stroke-opacity:1;fill-opacity:1"
     d="M 11.308594 19.658203 L 9.6347656 21.910156 C 6.7547989 25.782927 4.8016048 29.089828 4.0605469 31.351562 C 2.9219832 34.826499 5.3736187 39.016122 9.3027344 40.306641 C 9.5749118 40.396043 10.605862 40.446029 11.591797 40.417969 C 13.105748 40.374889 13.56703 40.276143 14.558594 39.791016 C 17.629003 38.288804 19.44339 34.792152 18.695312 31.820312 C 18.137626 29.60483 15.254981 24.695028 12.292969 20.914062 L 11.308594 19.658203 z "
     transform="translate(-5,-10)" />
  <path
     d="m 22.2812,2.79701 c -0.69141,-0.80469 -2.0625,-0.80469 -2.75,0 -0.03516,0.03906 -3.1328,3.6602 -7.0664,8.8359 C 10.2968,8.51571 8.1679,5.99621 7.7031,5.45321 7.01169,4.64852 5.6406,4.64852 4.9492,5.45321 3.9297,6.64071 -5,17.21121 -5,22.96921 c 0,3.5859 1.6797,6.7812 4.2891,8.8594 -2.8711,5.5781 -4.2891,10.02 -4.2891,13.52 0,14.285 11.621,25.906 25.906,25.906 14.285,0 25.906,-11.621 25.906,-25.906 0,-13.82 -23.527,-41.379 -24.531,-42.547 z m -15.953,6.6797 c 1.4727,1.8359 3.1016,4.0469 4.4805,6.2031 0.0078,0.01562 0.02344,0.03125 0.03125,0.04687 1.8125,2.8398 3.1875,5.582 3.1875,7.2422 0,4.2461 -3.4531,7.7031 -7.7031,7.7031 -4.2461,0 -7.6992,-3.457 -7.6992,-7.7031 0,-2.9258 4.2812,-9.2266 7.6992,-13.492 z m 14.578,58.148 c -12.285,0 -22.281,-9.9961 -22.281,-22.281 0,-2.8516 1.2969,-6.8047 3.8242,-11.746 1.2109,0.44531 2.5117,0.69922 3.875,0.69922 6.2461,0 11.328,-5.082 11.328,-11.328 0,-2.25 -1.3672,-5.2266 -3.0859,-8.0977 2.6172,-3.4922 4.9414,-6.375 6.3359,-8.0664 5.0508,6.1328 22.281,27.832 22.281,38.539 0,12.285 -9.9961,22.281 -22.281,22.281 z m 14.934,-59.215 c 4,0 7.2539,-3.2539 7.2539,-7.2539 0,-3.5 -4.8945,-9.3789 -5.8789,-10.523 C 36.87145,-9.76953 36.36754,-10 35.8402,-10 c -0.52734,0 -1.0312,0.23047 -1.375,0.63281 -0.98047,1.1445 -5.8789,7.0234 -5.8789,10.523 0,4 3.2539,7.2539 7.2539,7.2539 z m 0,-13.719 c 1.9258,2.5078 3.6289,5.3008 3.6289,6.4648 0,2 -1.625,3.6289 -3.6289,3.6289 -2,0 -3.6289,-1.625 -3.6289,-3.6289 0,-1.1641 1.7031,-3.9531 3.6289,-6.4648 z"
     id="path2" />
  <path
     id="path2188"
     style="fill:#a5d4ff;fill-opacity:1;fill-rule:evenodd;stroke:#a5d4ff;stroke-width:0.395894;stroke-linecap:round;stroke-miterlimit:4;stroke-dasharray:none;stroke-opacity:1"
     d="M 40.837891 4.6230469 L 39.416016 6.8046875 C 37.679705 9.467529 37.412109 10.085134 37.412109 11.427734 C 37.412109 12.746985 38.028732 13.728406 39.232422 14.324219 C 40.298043 14.851692 41.359518 14.862609 42.357422 14.353516 C 43.458717 13.791678 44.182647 12.760266 44.294922 11.591797 C 44.30275 11.510326 44.306425 11.428548 44.308594 11.347656 C 44.316435 11.212768 44.312124 11.083976 44.294922 10.951172 C 44.19801 9.9650265 43.620009 8.8416191 42.121094 6.5683594 L 40.837891 4.6230469 z "
     transform="translate(-5,-10)" />
</svg>
