<?xml version="1.0" encoding="UTF-8" standalone="no"?>
<svg
   xml:space="preserve"
   version="1.1"
   style="image-rendering:optimizeQuality;shape-rendering:geometricPrecision;text-rendering:geometricPrecision"
   viewBox="0 0 13015.624 13015.624"
   x="0px"
   y="0px"
   fill-rule="evenodd"
   clip-rule="evenodd"
   id="svg14"
   sodipodi:docname="vil-dens.svg"
   width="13015.624"
   height="13015.624"
   inkscape:version="1.1.1 (3bf5ae0d25, 2021-09-20)"
   xmlns:inkscape="http://www.inkscape.org/namespaces/inkscape"
   xmlns:sodipodi="http://sodipodi.sourceforge.net/DTD/sodipodi-0.dtd"
   xmlns="http://www.w3.org/2000/svg"
   xmlns:svg="http://www.w3.org/2000/svg"><sodipodi:namedview
     id="namedview16"
     pagecolor="#ffffff"
     bordercolor="#666666"
     borderopacity="1.0"
     inkscape:pageshadow="2"
     inkscape:pageopacity="0.0"
     inkscape:pagecheckerboard="0"
     showgrid="false"
     inkscape:snap-page="false"
     fit-margin-top="0"
     fit-margin-left="0"
     fit-margin-right="0"
     fit-margin-bottom="0"
     inkscape:zoom="0.04"
     inkscape:cx="7387.5"
     inkscape:cy="7425"
     inkscape:window-width="1920"
     inkscape:window-height="1027"
     inkscape:window-x="0"
     inkscape:window-y="0"
     inkscape:window-maximized="1"
     inkscape:current-layer="g8" /><defs
     id="defs4"><style
       type="text/css"
       id="style2">
   
    .fil0 {fill:black;fill-rule:nonzero}
   
  </style></defs><g
     id="g8"
     transform="matrix(0.13015624,0,0,0.13015624,3.108131,-3.108131)"><path
       d="m 24723.65,23.88 h 74263.94 c 189.9,0 362.72,47.8 514.82,135.46 259.02,149.53 411.56,372.05 460.3,655.03 v 3.48 c 14.17,82.63 16.89,165.86 8.27,249.09 V 78994.2 c 8.77,82.51 6.3,165.46 -7.33,248.23 -14.37,111.43 -49.52,216.42 -101.44,311.01 -73.27,139.94 -187.37,281.69 -337.82,409.06 l -23138.7,19591.54 c -147.06,124.54 -325.27,234.63 -493.92,311.7 -213.5,97.56 -445.24,158.14 -643.71,158.14 H 984.12 c -19.92,0 -39.66,-0.53 -59.21,-1.58 -17.46,1 -35.02,1.58 -52.73,1.58 -494.87,0 -896.06,-398.33 -896.06,-889.68 V 21013.84 c 0,-92.66 14.29,-181.98 40.75,-265.97 14.52,-66.47 36.27,-132.29 65.25,-197.16 h 3.49 c 72.01,-161.02 194.9,-324.22 361.72,-465.45 L 23586.01,493.72 c 147.08,-124.54 325.31,-234.64 493.94,-311.7 213.51,-97.58 445.28,-158.14 643.7,-158.14 z"
       id="path6"
       style="fill:#3d3846" /><path
       d="m 74352,66372.39 c -1718.45,-1853.6 -2768,-4328.02 -2768,-7045.82 0,-2717.78 1049.55,-5192.21 2768,-7045.81 v -5376.22 c -528.75,-80.54 -1045.26,-200.44 -1546.34,-356.64 -719.58,-224.3 -1407.27,-524.93 -2053.58,-892.52 -390.25,585.78 -838.49,1130.16 -1336.76,1624.88 -1896.78,1883.28 -4517.08,3048.13 -7411.3,3048.13 -2894.2,0 -5514.5,-1164.85 -7411.28,-3048.13 -1896.77,-1883.27 -3069.96,-4484.93 -3069.96,-7358.56 0,-2873.62 1173.19,-5475.29 3069.96,-7358.55 1896.78,-1883.28 4517.08,-3048.13 7411.28,-3048.13 1891.78,0 3666.48,497.77 5198.63,1368.45 874.69,-1312.58 2039.7,-2416.17 3403.53,-3219.81 1130.09,-665.91 2396.02,-1127.06 3745.82,-1332.07 v -4428.08 h -3589.38 c -44.54,45.88 -89.38,91.48 -134.76,136.54 -1896.77,1883.28 -4517.07,3048.12 -7411.29,3048.12 -2894.2,0 -5514.5,-1164.84 -7411.28,-3048.12 -45.38,-45.06 -90.22,-90.66 -134.76,-136.54 h -6287.65 c 5.5,138.31 8.34,277.3 8.34,416.95 0,2873.62 -1173.19,5475.28 -3069.96,7358.56 -1896.77,1883.28 -4517.08,3048.12 -7411.28,3048.12 -2894.22,0 -5514.52,-1164.84 -7411.28,-3048.12 -1896.78,-1883.28 -3069.97,-4484.94 -3069.97,-7358.56 0,-139.65 2.85,-278.64 8.34,-416.95 h -2981.92 v 7258.29 c 960.26,494.63 1833.79,1132.27 2591.7,1884.8 1896.77,1883.26 3069.96,4484.92 3069.96,7358.54 0,2503.46 -893.98,4803.09 -2383.06,6601.92 -898.41,1085.3 -2013.2,1986.87 -3278.6,2639.43 v 18534.63 c 1366.14,527.83 2593.35,1331.79 3611.85,2343.05 1896.77,1883.28 3069.96,4484.93 3069.96,7358.55 0,779.84 -86.58,1539.59 -250.4,2270.46 l 5187.13,26.07 c 1804.76,-1461.25 4108.82,-2337.64 6619.04,-2337.64 2510.54,0 4814.88,876.64 6619.76,2338.24 l 8921.97,-5.89 c 186.81,-2570.88 1314.14,-4883.1 3042.29,-6598.96 1896.77,-1883.27 4517.07,-3048.12 7411.28,-3048.12 1675.55,0 3259.27,390.45 4663.97,1084.64 z"
       id="path1111"
       style="fill:#ffffff" /><path
       d="M 23663.03,20124.15 V 2760.85 l -20507,17363.3 z"
       id="path1151"
       style="fill:#ffffff" /><path
       d="m 30230.95,21903.51 c -6.64,138.17 -10.1,277.16 -10.1,416.95 0,2382.46 972.54,4539.32 2544.91,6100.51 1572.37,1561.18 3744.68,2526.81 6144.22,2526.81 2399.52,0 4571.85,-965.64 6144.21,-2526.81 1572.38,-1561.19 2544.92,-3718.05 2544.92,-6100.51 0,-139.79 -3.47,-278.78 -10.1,-416.95 z"
       id="path1149"
       style="fill:#3584e4" /><path
       d="m 45054.19,16219.96 c -1572.37,-1561.18 -3744.7,-2526.81 -6144.21,-2526.81 -2399.54,0 -4571.86,965.64 -6144.22,2526.81 -1071.43,1063.82 -1864.22,2404.28 -2260.7,3904.19 h 16809.83 c -396.48,-1499.91 -1189.26,-2840.37 -2260.7,-3904.19 z"
       id="path1147"
       style="fill:#3584e4" /><path
       d="m 37221.66,61422.06 c -61.31,-23.04 -121.56,-46.3 -180.72,-69.8 -2686.45,-1067.13 -4683.3,-3115.2 -5740.06,-5563.81 -1055.65,-2446.08 -1171.06,-5293.07 -96.01,-7961.11 1074.78,-2667.38 3137.53,-4650.02 5603.67,-5699.25 2463.6,-1048.14 5330.98,-1162.74 8018.15,-95.34 2050.88,814.65 3699.95,2200.91 4835.73,3900.56 1082.51,1619.91 1697.48,3526.07 1748.32,5494.01 60.76,22.87 121.49,46.12 182.08,70.19 2686.46,1067.12 4683.32,3115.19 5740.06,5563.81 1055.66,2446.07 1171.08,5293.08 96.03,7961.14 -1074.78,2667.34 -3137.52,4649.99 -5603.69,5699.22 -2463.6,1048.15 -5331,1162.72 -8018.17,95.33 -2686.47,-1067.13 -4683.32,-3115.2 -5740.08,-5563.81 -519.2,-1203.06 -810.76,-2503.11 -845.31,-3831.14 z"
       id="path1129"
       style="fill:#3d3846" /><path
       d="m 68148.25,33821.2 c -1572.37,-1561.18 -3744.69,-2526.81 -6144.23,-2526.81 -2399.52,0 -4571.83,965.62 -6144.21,2526.81 -1572.37,1561.18 -2544.92,3718.03 -2544.92,6100.5 0,2382.47 972.55,4539.32 2544.92,6100.51 1572.38,1561.19 3744.69,2526.81 6144.21,2526.81 2399.54,0 4571.85,-965.62 6144.23,-2526.81 1572.37,-1561.19 2544.91,-3718.05 2544.91,-6100.51 0,-2382.46 -972.54,-4539.31 -2544.91,-6100.5 z"
       id="path1145"
       style="fill:#1c71d8" /><path
       d="m 76144.11,45243.28 c 2320.89,-51.52 4417.24,-1006.36 5946.24,-2524.49 1572.37,-1561.19 2544.92,-3718.05 2544.92,-6100.51 0,-2382.46 -972.55,-4539.31 -2544.91,-6100.5 C 80561.35,28999.65 78465,28044.82 76144.11,27993.3 Z"
       id="path1143"
       style="stroke:#1a5fb4;fill:#1a5fb4" /><path
       d="m 71606.83,44098.39 c 541,309.47 1120.64,563.36 1730.87,753.57 329.56,102.73 668.09,186.41 1014.3,249.81 V 28135.48 c -1019.51,187.19 -1975.89,550.62 -2835.78,1057.31 -1143.75,673.97 -2117.92,1599.59 -2844.5,2699.28 258.57,211.9 506.73,435.89 743.6,671.08 1896.77,1883.27 3069.96,4484.94 3069.96,7358.55 0,1485.47 -313.53,2898.25 -878.45,4176.69 z"
       id="path1141"
       style="stroke:#1a5fb4;fill:#1a5fb4" /><path
       d="m 58461.55,21903.51 c 1366.19,888.52 2999.79,1405.29 4755.02,1405.29 1755.25,0 3388.86,-516.76 4755.05,-1405.29 z"
       id="path1139"
       style="fill:#99c1f1" /><path
       d="M 69360.79,8580.99 C 67788.42,7019.8 65616.11,6054.18 63216.57,6054.18 c -2399.53,0 -4571.84,965.63 -6144.21,2526.81 -1572.37,1561.18 -2544.91,3718.04 -2544.91,6100.5 0,2063.69 729.83,3958.02 1947.01,5442.66 H 69958.7 c 1217.17,-1484.65 1947,-3378.97 1947,-5442.66 0,-2382.46 -972.54,-4539.32 -2544.91,-6100.5 z"
       id="path1137"
       style="fill:#99c1f1" /><path
       d="m 63216.57,4274.82 c 2894.22,0 5514.52,1164.84 7411.29,3048.12 1896.77,1883.27 3069.96,4484.93 3069.96,7358.55 0,1995.15 -565.67,3859.14 -1546.31,5442.66 h 3009.43 c 25.61,-12.78 47.94,-26.4 62.68,-38.89 L 96815.68,1803.25 H 25455.15 v 18320.9 h 3207.61 c 431.11,-1992.25 1436.52,-3772.79 2835.94,-5162.24 1896.76,-1883.28 4517.06,-3048.12 7411.28,-3048.12 2894.19,0 5514.51,1164.84 7411.28,3048.12 1399.41,1389.45 2404.82,3169.99 2835.94,5162.24 h 5124.44 c -980.64,-1583.52 -1546.31,-3447.51 -1546.31,-5442.66 0,-2873.62 1173.19,-5475.28 3069.96,-7358.55 1896.78,-1883.28 4517.08,-3048.12 7411.28,-3048.12 z"
       id="path1135"
       style="fill:#ffffff" /><path
       d="m 55687.78,57756.38 c -875.58,-2028.85 -2531.44,-3726.34 -4759.99,-4611.58 -2227.81,-884.93 -4607.17,-789 -6653.1,81.44 -2043.38,869.36 -3753.05,2513.44 -4644.62,4726.13 -891.28,2211.96 -794.67,4574.39 82.01,6605.77 875.59,2028.85 2531.44,3726.34 4759.98,4611.56 2227.82,884.94 4607.18,789.04 6653.12,-81.42 2043.39,-869.35 3753.05,-2513.43 4644.62,-4726.12 891.28,-2211.97 794.67,-4574.4 -82.02,-6605.78 z"
       id="path1133"
       style="fill:#99c1f1;stroke:#1a5fb4" /><path
       d="m 49593.29,50922.23 c -131.32,-1435.09 -623.94,-2814.68 -1421.96,-4008.88 -941.22,-1408.51 -2308.55,-2557.59 -4009.64,-3233.3 -2227.83,-884.93 -4607.19,-789 -6653.11,81.43 -2043.37,869.36 -3753.02,2513.43 -4644.59,4726.11 l -3.52,10.46 -2.9,5.77 c -884.3,2207.28 -786.13,4563.15 88.41,6589.57 827.53,1917.46 2352.09,3538.81 4398.27,4458.36 120.06,-758.75 327.13,-1516.16 626.71,-2259.66 1074.77,-2667.36 3137.53,-4650.01 5603.69,-5699.24 1859.84,-791.28 3949.82,-1050.39 6018.64,-670.62 z"
       id="path1131"
       style="fill:#1c71d8" /><path
       d="m 27799.93,69782.22 c -1572.37,-1561.19 -3744.68,-2526.81 -6144.21,-2526.81 -2399.54,0 -4571.85,965.62 -6144.21,2526.81 -1572.38,1561.19 -2544.92,3718.05 -2544.92,6100.5 0,2382.47 972.55,4539.34 2544.92,6100.5 1572.36,1561.19 3744.67,2526.81 6144.21,2526.81 2399.53,0 4571.84,-965.62 6144.21,-2526.81 1572.38,-1561.17 2544.92,-3718.03 2544.92,-6100.5 0,-2382.45 -972.54,-4539.31 -2544.92,-6100.5 z"
       id="path1127"
       style="fill:#1c71d8" /><path
       d="m 76144.11,84707.72 c 1388.04,-1528.98 2233.05,-3553.51 2233.05,-5774.16 0,-2220.64 -845.01,-4245.19 -2233.05,-5774.17 z"
       id="path1125"
       style="fill:#3584e4" /><path
       d="m 74352,71653.13 c -1347.48,-852.72 -2947.56,-1346.88 -4663.97,-1346.88 -2399.53,0 -4571.85,965.63 -6144.21,2526.81 -1572.38,1561.19 -2544.92,3718.04 -2544.92,6100.5 0,2382.47 972.54,4539.32 2544.92,6100.5 1572.36,1561.18 3744.68,2526.81 6144.21,2526.81 1716.41,0 3316.49,-494.16 4663.97,-1346.89 z"
       id="path1123"
       style="fill:#3584e4" /><path
       d="m 80121.39,79932.58 c -237.45,2474.89 -1347.75,4697.13 -3022.08,6359.53 -300.78,298.65 -619.82,579.16 -955.2,839.88 V 97426.23 L 96818.1,79921.57 Z"
       id="path1121"
       style="fill:#ffffff" /><path
       d="m 49836.94,80147.78 c -1572.37,-1561.18 -3744.68,-2526.81 -6144.21,-2526.81 -2399.54,0 -4571.85,965.62 -6144.23,2526.81 -1572.37,1561.18 -2544.91,3718.04 -2544.91,6100.5 0,2382.47 972.54,4539.32 2544.91,6100.5 1572.38,1561.19 3744.69,2526.81 6144.23,2526.81 2399.52,0 4571.84,-965.63 6144.21,-2526.81 1572.36,-1561.17 2544.92,-3718.03 2544.92,-6100.5 0,-2382.45 -972.55,-4539.31 -2544.92,-6100.5 z"
       id="path1119"
       style="stroke:#1a5fb4;fill:#1a5fb4" /><path
       d="m 52037.68,79951.11 c 1340.39,1748.36 2136.29,3930.48 2136.29,6297.17 0,2873.63 -1173.19,5475.29 -3069.96,7358.56 -1896.78,1883.27 -4517.09,3048.12 -7411.28,3048.12 -2894.22,0 -5514.52,-1164.85 -7411.3,-3048.12 -1896.77,-1883.27 -3069.96,-4484.93 -3069.96,-7358.56 0,-2370.33 798.33,-4555.53 2142.44,-6305.23 l -4036.18,-20.29 c -530.5,1249.27 -1299.66,2374.21 -2250.73,3318.52 -1896.77,1883.28 -4517.07,3048.12 -7411.28,3048.12 -1274.21,0 -2495.31,-225.83 -3624.94,-639.35 L 3156.02,98244.51 H 74352 V 88255.6 c -1404.7,694.19 -2988.42,1084.64 -4663.97,1084.64 -2894.21,0 -5514.51,-1164.85 -7411.28,-3048.13 -1671.22,-1659.32 -2780.53,-3876.4 -3020.76,-6345.76 z"
       id="path1117"
       style="fill:#ffffff" /><path
       d="m 74352,55350.52 c -623.41,1189.86 -975.89,2542.05 -975.89,3976.05 0,1434.01 352.48,2786.23 975.89,3976.07 z"
       id="path1115"
       style="fill:#1a5fb4" /><path
       d="m 88209.46,53226.07 c -1572.37,-1561.19 -3744.68,-2526.81 -6144.22,-2526.81 -2288.01,0 -4369.43,877.98 -5921.13,2313.06 v 12628.51 c 1551.69,1435.08 3633.11,2313.06 5921.13,2313.06 2399.54,0 4571.85,-965.62 6144.22,-2526.81 1572.37,-1561.19 2544.91,-3718.04 2544.91,-6100.51 0,-2382.46 -972.54,-4539.31 -2544.91,-6100.5 z"
       id="path1113"
       style="stroke:#1a5fb4;fill:#1c71d8" /><path
       d="m 82065.24,48919.9 c 2894.22,0 5514.52,1164.84 7411.29,3048.12 1896.77,1883.27 3069.96,4484.94 3069.96,7358.55 0,2873.63 -1173.19,5475.29 -3069.96,7358.57 -1896.77,1883.27 -4517.07,3048.12 -7411.29,3048.12 -2197.19,0 -4236.39,-671.49 -5921.13,-1818.84 v 2820.7 c 335.38,260.73 654.42,541.24 955.2,839.88 1725.06,1712.79 2851.48,4019.8 3041.32,6585.16 l 18038.23,-11.9 V 2981.39 L 76385.7,21433.68 c -74.32,62.93 -156.61,122.18 -241.59,175.34 v 4604.62 c 2815.59,51.81 5359.9,1205.86 7213.32,3046.09 1896.75,1883.26 3069.95,4484.93 3069.95,7358.55 0,2873.61 -1173.19,5475.29 -3069.96,7358.56 -1853.41,1840.24 -4397.72,2994.29 -7213.31,3046.1 v 3715.79 c 1684.75,-1147.35 3723.95,-1818.83 5921.13,-1818.83 z"
       id="path1109"
       style="fill:#ffffff" /><path
       d="m 19032.32,41460.38 c -1572.38,-1561.19 -3744.69,-2526.81 -6144.22,-2526.81 -2399.53,0 -4571.84,965.62 -6144.21,2526.81 -1572.37,1561.18 -2544.92,3718.04 -2544.92,6100.5 0,2382.47 972.55,4539.33 2544.92,6100.5 1572.37,1561.19 3744.68,2526.82 6144.21,2526.82 2399.53,0 4571.84,-965.63 6144.22,-2526.82 1572.37,-1561.17 2544.91,-3718.03 2544.91,-6100.5 0,-2382.46 -972.54,-4539.32 -2544.91,-6100.5 z"
       id="path1107"
       style="fill:#99c1f1" /><path
       d="m 23330.33,48463.36 c -217.5,2513.63 -1334.87,4772.08 -3030.94,6456.08 -1896.78,1883.28 -4517.08,3048.12 -7411.29,3048.12 -2894.21,0 -5514.52,-1164.84 -7411.28,-3048.12 -1896.77,-1883.27 -3069.96,-4484.93 -3069.96,-7358.56 0,-2873.62 1173.19,-5475.28 3069.96,-7358.55 1286.91,-1277.77 2906.95,-2224.67 4719.58,-2701.52 224.07,-2581.07 1396.35,-4892.39 3169.08,-6588.63 1885.53,-1804.16 4448.2,-2913.71 7270.09,-2913.71 1052.62,0 2068.96,154.18 3027.46,440.92 V 21903.51 H 1768.24 v 75183.7 L 16267.63,84810.56 c -738.34,-440.26 -1417.69,-968.08 -2023.19,-1569.28 -1896.77,-1883.27 -3069.96,-4484.93 -3069.96,-7358.56 0,-2873.62 1173.19,-5475.27 3069.96,-7358.55 1896.76,-1883.28 4517.06,-3048.12 7411.28,-3048.12 686.53,0 1357.63,65.61 2007.31,190.78 V 48369.71 c -110.15,32.98 -221.06,64.2 -332.7,93.65 z"
       id="path1105"
       style="fill:#ffffff" /><path
       d="m 12888.1,37154.21 c 2894.21,0 5514.51,1164.84 7411.29,3048.12 1685.68,1673.69 2799.79,3914.8 3026.9,6409.92 1595.48,-514.65 2987.94,-1474.32 4028.39,-2731.2 1230.97,-1487.03 1970.02,-3394.08 1970.02,-5475.91 0,-2382.46 -972.54,-4539.31 -2544.92,-6100.49 -1572.36,-1561.18 -3744.67,-2526.81 -6144.21,-2526.81 -2343.63,0 -4469.36,918.97 -6031.02,2413.25 -1363.27,1304.44 -2298.25,3046.47 -2575.36,4997.76 283.29,-22.82 569.71,-34.64 858.91,-34.64 z"
       id="path1103"
       style="fill:#1a5fb4" /></g></svg>
